<?xml version="1.0" encoding="UTF-8" standalone="no"?>
<svg
   xmlns:dc="http://purl.org/dc/elements/1.1/"
   xmlns:cc="http://creativecommons.org/ns#"
   xmlns:rdf="http://www.w3.org/1999/02/22-rdf-syntax-ns#"
   xmlns:svg="http://www.w3.org/2000/svg"
   xmlns="http://www.w3.org/2000/svg"
   xmlns:sodipodi="http://sodipodi.sourceforge.net/DTD/sodipodi-0.dtd"
   xmlns:inkscape="http://www.inkscape.org/namespaces/inkscape"
   version="1.1"
   id="Calque_1"
   x="0px"
   y="0px"
   viewBox="0 0 72.500001 72.5"
   xml:space="preserve"
   sodipodi:docname="compass.svg"
   width="72.5"
   height="72.5"
   inkscape:version="1.0 (4035a4fb49, 2020-05-01)"><metadata
   id="metadata211"><rdf:RDF><cc:Work
       rdf:about=""><dc:format>image/svg+xml</dc:format><dc:type
         rdf:resource="http://purl.org/dc/dcmitype/StillImage" /><dc:title></dc:title></cc:Work></rdf:RDF></metadata><defs
   id="defs209" /><sodipodi:namedview
   inkscape:document-rotation="0"
   pagecolor="#ffffff"
   bordercolor="#666666"
   borderopacity="1"
   objecttolerance="10"
   gridtolerance="10"
   guidetolerance="10"
   inkscape:pageopacity="0"
   inkscape:pageshadow="2"
   inkscape:window-width="1920"
   inkscape:window-height="1001"
   id="namedview207"
   showgrid="false"
   fit-margin-top="0"
   fit-margin-left="0"
   fit-margin-right="0"
   fit-margin-bottom="0"
   inkscape:zoom="3.32"
   inkscape:cx="8.8963772"
   inkscape:cy="83.408466"
   inkscape:window-x="-9"
   inkscape:window-y="-9"
   inkscape:window-maximized="1"
   inkscape:current-layer="Calque_1" />
<style
   type="text/css"
   id="style2">
	.st0{display:none;}
	.st1{display:inline;}
	.st2{fill:#2F2F2E;}
</style>
<g
   class="st0"
   id="g6"
   transform="translate(-17,-13.8)">
	<path
   class="st1"
   d="m 95,25.6 v 19.5 c 0,1.4 -0.7,2.6 -1.6,2.6 h -0.5 c -0.9,0 -1.6,-1.2 -1.6,-2.6 V 39.4 H 90 v 3.9 c 0,1 -0.8,1.8 -1.8,1.8 h -0.4 c -1,0 -1.8,-0.8 -1.8,-1.8 v -3.7 h -2.5 v 0.6 c 0,0.6 0,1.2 0,1.7 v 5.6 c 0,0.5 -0.9,1 -2.2,1.3 v 26.3 h 10.5 c 0.8,0 1.5,0.7 1.5,1.5 V 79 c 0,0.8 -0.7,1.5 -1.5,1.5 H 7.3 C 6.5,80.5 5.8,79.8 5.8,79 v -2.3 c 0,-0.8 0.7,-1.5 1.5,-1.5 h 46.3 c 0,0 0,0 6,-18.1 3.9,-12.9 0.1,-17.4 -24,-16.8 -13.8,0 -17.4,10 -17.4,12.8 v 4 c 0,1 -0.8,1.8 -1.8,1.8 H 14.7 V 64 h -0.3 v 2 h -0.6 v -2 h -0.3 -2.6 v -1.2 h 2.6 v -3.9 h -0.1 -1.8 c -1,0 -1.8,-0.8 -1.8,-1.8 V 26.8 c 0,-1 0.8,-1.8 1.8,-1.8 h 4.7 c 1,0 26.8,9.5 45.5,-0.5 0,0 -0.1,-0.9 0.7,-0.9 h 6.9 4.8 1.1 c 0,0 0,0 0,0 0.1,0 0.1,0 0.2,0 5.6,0 7.7,0 7.7,1.8 v 5.8 h 1.8 1 v -3.8 c 0,-1 0.8,-1.8 1.8,-1.8 h 0.4 c 1,0 1.8,0.8 1.8,1.8 v 3.8 h 1.3 v -5.7 c 0,-1.4 0.7,-2.6 1.6,-2.6 h 0.5 c 0.9,0.1 1.6,1.3 1.6,2.7 z"
   id="path4" />
</g>
<g
   class="st0"
   id="g10"
   transform="translate(-17,-13.8)">
	<path
   class="st1"
   d="M 88,76 V 74.7 C 87.8,64.6 83.8,61.2 83.8,61.2 H 59.4 c 0,0 -1,-0.8 -1.2,-3.4 V 43.2 c 0,0 0.2,-14.2 -12.5,-11.4 0,0 -8.1,1.5 -12,1.2 -0.2,-1.2 -0.8,-2.2 -1.7,-2.8 v -1.1 c 0,-0.6 -0.6,-0.6 -0.6,-0.6 v -1.4 c 0.9,0 1.6,-0.7 1.6,-1.6 0,-0.9 -0.7,-1.6 -1.6,-1.6 H 31 30.4 c -0.1,0 -0.3,0 -0.3,-0.1 0.2,-0.1 0.4,-0.2 0.6,-0.4 C 34.2,23 47.4,21 47.4,21 c 1.4,-0.2 2.4,-1.5 2.2,-2.8 -0.2,-1.4 -1.5,-2.4 -2.8,-2.2 -0.1,0 -0.2,0 -0.2,0 v 0 l -15.8,4 c -0.5,-0.5 -1.1,-0.8 -1.8,-0.8 -1.4,0 -2.5,1.1 -2.5,2.5 0,0.1 0,0.2 0,0.3 v 6.5 h -1.4 c -0.7,0 -0.5,0.6 -0.5,0.6 v 1 c -1.1,0.8 -1.8,2 -1.8,3.5 v 16.6 c 0,2.1 1.6,3.9 3.6,4.2 v 1.9 h -1 v -0.4 c 0,-0.2 -0.2,-0.4 -0.5,-0.4 -0.3,0 -0.5,0.2 -0.5,0.4 v 2 c 0,0.2 0.2,0.4 0.5,0.4 0.3,0 0.5,-0.2 0.5,-0.4 v -0.4 h 1 V 59 l 0.7,0.8 h 0.3 v 1.4 H 16.2 c 0,0 -4,3.4 -4.2,13.5 V 76 L 9.7,78.3 V 84 H 90.4 V 78.3 Z M 27.9,21.7 c 0,-0.6 0.5,-1 1,-1 0.6,0 1,0.5 1,1 0,0.5 -0.5,1 -1,1 -0.5,0 -1,-0.5 -1,-1 z M 45,57.9 c 0,0 -0.3,3.3 -2,3.3 H 29 v -1.4 h 0.3 L 30,59 v -1.5 h 1 v 0.4 c 0,0.2 0.2,0.4 0.5,0.4 0.3,0 0.5,-0.2 0.5,-0.4 v -2 c 0,-0.2 -0.2,-0.4 -0.5,-0.4 -0.3,0 -0.5,0.1 -0.5,0.4 v 0.4 h -1 v -1.9 c 2.2,-0.2 3.9,-2 3.9,-4.2 v -6.8 h 9.4 c 0,0 2.1,0 2.1,2.9 z"
   id="path8" />
</g>
<g
   class="st0"
   id="g14"
   transform="translate(-17,-13.8)">
	<path
   class="st1"
   d="m 92.9,58.1 v 2.4 c 0,0.2 -0.1,0.3 -0.2,0.4 -0.1,0 -7.5,4 -17.1,5 -3.3,0.4 -6.7,0.6 -10,0.6 -1.6,0 -3.2,0 -4.8,-0.1 C 56.7,66.2 52.9,65.6 49.9,64.7 44,63 40.1,62.4 39,62.2 c 0,0 -3.8,-0.7 -8.6,-0.7 l -1.4,4 c -0.1,0.2 -0.2,0.3 -0.4,0.3 H 8.2 C 8,65.8 7.8,65.6 7.8,65.4 v -8.2 c 0,-0.2 0.1,-0.4 0.3,-0.4 0.2,-0.1 0.4,0 0.5,0.2 v 0 c 0,0.1 1,1.6 4,1.8 2.7,0.2 12,-0.1 12,-0.1 2.2,0 9.5,0 14.7,0.9 1.1,0.2 5.2,0.8 11.3,2.6 3.9,1.1 9.1,1.7 14.8,1.7 3.2,0 6.5,-0.2 9.7,-0.5 8.4,-0.9 15.9,-4.8 16.8,-5.2 l 0.2,-0.1 c 0.1,-0.1 0.3,-0.1 0.4,0 0.3,-0.2 0.4,-0.1 0.4,0 z m -79,-0.3 c 0,0 4.4,0.1 11.5,-0.1 0,0 2.9,-0.1 6.9,0.2 2.2,0.1 4.6,0.3 6.7,0.6 3.1,0.4 6.3,1 9.2,1.9 0.8,0.2 1.6,0.4 2.5,0.7 3.9,1.1 9,1.7 14.8,1.7 3.1,-0.1 6.3,-0.3 9.4,-0.7 9.3,-1 15.8,-4.5 15.8,-4.5 1,-0.5 0.9,-1.6 0.9,-1.6 C 91.5,53.3 89.7,52 89.7,52 88.9,51 84.9,50.8 83.1,51 77.6,51.7 71,50 71,50 68,49.4 62.7,46.1 59.1,43.7 l -2.8,2.8 c -0.1,0.1 -0.2,0.1 -0.3,0.1 -0.1,0 -0.2,0 -0.3,-0.1 -0.2,-0.2 -0.2,-0.4 0,-0.6 l 2.7,-2.7 C 56.6,42 55.3,41 55.3,41 c 0,0 0,0 0,0 l -3.2,3.2 c -0.1,0.1 -0.2,0.1 -0.3,0.1 -0.1,0 -0.2,0 -0.3,-0.1 -0.2,-0.2 -0.2,-0.4 0,-0.6 l 3.1,-3.1 C 53.5,39.7 52.5,39.1 51.5,38.4 L 48,41.9 C 47.9,42 47.8,42 47.7,42 c -0.1,0 -0.2,0 -0.3,-0.1 -0.2,-0.2 -0.2,-0.4 0,-0.6 L 50.7,38 c -6.4,-3.7 -11,-4.3 -11,-4.3 -0.9,-0.3 -1.1,0.4 -1.1,0.4 v 1.1 c -2,0.8 -7.1,1.5 -12.1,2 -6.6,0.6 -13.2,-1.2 -15.6,-1.6 -0.7,-0.1 -1,0.5 -1,0.5 l -0.6,1.5 c 0,0 -3.1,8.1 -1.9,13.7 0,0 0,0.8 0.3,2 0.2,1.2 1,4.7 6.2,4.5 z"
   id="path12" />
</g>
<g
   class="st0"
   id="g18"
   transform="translate(-17,-13.8)">
	<path
   class="st1"
   d="m 92.6,62.6 v 2.3 c 0,0.2 -0.1,0.3 -0.2,0.4 -0.1,0 -7.5,3.9 -17,5 -3.3,0.4 -6.7,0.6 -10,0.6 -1.6,0 -3.2,0 -4.7,-0.1 C 56.6,70.6 52.8,70 49.8,69.1 44,67.5 40.1,66.8 39.1,66.7 c 0,0 -3.8,-0.7 -8.6,-0.7 l -1.3,4 c -0.1,0.2 -0.2,0.3 -0.4,0.3 H 8.6 c -0.2,0 -0.4,-0.2 -0.4,-0.4 v -8.2 c 0,-0.2 0.1,-0.4 0.3,-0.4 0.2,-0.1 0.4,0 0.5,0.2 v 0 c 0,0.1 1,1.6 3.9,1.8 2.7,0.2 11.9,-0.1 11.9,-0.1 2.2,0 9.5,0 14.7,0.9 1.1,0.2 5.2,0.8 11.2,2.5 3.9,1.1 9,1.7 14.7,1.7 3.2,0 6.4,-0.2 9.7,-0.5 8.4,-0.9 15.8,-4.8 16.7,-5.2 L 92,62.5 c 0.1,-0.1 0.3,-0.1 0.4,0 0.1,-0.2 0.2,-0.1 0.2,0.1 z M 14.1,62.2 c 0,0 4.4,0.1 11.4,-0.1 0,0 2.9,-0.1 6.9,0.2 2.2,0.1 4.6,0.3 6.6,0.6 3.1,0.4 6.2,1 9.1,1.9 0.8,0.2 1.6,0.4 2.5,0.7 3.9,1.1 9,1.7 14.7,1.7 3.1,-0.1 6.3,-0.3 9.3,-0.7 9.2,-1 15.7,-4.5 15.7,-4.5 1,-0.5 0.9,-1.6 0.9,-1.6 -0.1,-2.6 -1.9,-4 -1.9,-4 -0.8,-1 -4.8,-1.2 -6.6,-1 -5.3,0.7 -11.8,-1.1 -11.8,-1.1 -3,-0.6 -8.3,-3.9 -11.8,-6.3 v 0 c 0,0 0,0 -0.1,-0.1 -0.6,-0.4 -1.4,-1.1 -2.2,-1.9 l -3,1.7 c -0.1,0.1 -0.2,0.1 -0.3,0 -0.1,0 -0.2,-0.1 -0.3,-0.2 -0.1,-0.2 0,-0.5 0.2,-0.6 l 2.8,-1.6 c -0.8,-0.8 -1.7,-1.8 -2.5,-2.8 l -3.3,1.9 c -0.1,0.1 -0.2,0.1 -0.3,0 -0.1,0 -0.2,-0.1 -0.3,-0.2 -0.1,-0.2 0,-0.5 0.2,-0.6 L 53,42 C 52.2,41.1 51.4,40.1 50.7,39.2 L 47,41.3 c -0.1,0.1 -0.2,0.1 -0.3,0 -0.1,0 -0.2,-0.1 -0.3,-0.2 -0.1,-0.2 0,-0.5 0.2,-0.6 l 3.5,-2 c -3.3,-4 -6.1,-7.9 -6.6,-8.7 -0.8,-1.4 -5.8,-0.3 -6.7,-0.1 v 0 c 0,0 -6.2,1.9 -11.1,1.9 -6.7,0 -11.9,-0.1 -14.3,-0.4 -0.7,-0.1 -1.2,0.5 -1.2,0.5 l -0.4,1.5 c 0,0 -3.3,16.9 -2.1,22.5 0,0 0,0.8 0.3,2 0.2,1.2 1,4.7 6.1,4.5 z"
   id="path16" />
</g>
<g
   class="st0"
   id="g22"
   transform="translate(-17,-13.8)">
	<path
   class="st1"
   d="M 96.1,56.7 C 95.7,53.9 93.7,52.6 93.7,52.6 92.8,51.6 88.4,51.7 86.5,52.1 80.8,53.3 73.7,51.9 73.7,51.9 68.4,51.2 56.6,41.7 56.6,41.7 47.4,35 43.3,33.6 43.3,33.6 c -1,-0.3 -1.1,0.5 -1.1,0.5 l -2.2,18.4 0.3,0.1 c 0.9,0.2 1.7,0.8 2.2,1.6 0,0 0,0 0.1,0.1 0,0 0,0.1 0.1,0.1 0.4,0.6 0.6,1.3 0.6,2 0,0.1 0,0.2 0,0.3 0,2.1 -1.4,3.8 -3.2,4.2 l -0.5,2.3 c 0,0.1 0,0.2 0.1,0.4 0.7,0 5.1,0.4 12,1.8 7.5,1.5 17.7,1 27,-0.7 9.8,-1.9 16.6,-6.1 16.6,-6.1 1.1,-0.7 0.8,-1.9 0.8,-1.9 z M 44,44.1 c -0.5,0 -0.9,-0.4 -0.9,-0.9 0,-0.5 0.4,-0.9 0.9,-0.9 0.5,0 0.9,0.4 0.9,0.9 -0.1,0.5 -0.4,0.9 -0.9,0.9 z m 1.7,14.1 c -0.5,0 -0.9,-0.4 -0.9,-0.9 0,-0.5 0.4,-0.9 0.9,-0.9 0.5,0 0.9,0.4 0.9,0.9 0,0.5 -0.4,0.9 -0.9,0.9 z m 20.8,5.4 c -0.5,0 -0.9,-0.4 -0.9,-0.9 0,-0.5 0.4,-0.9 0.9,-0.9 0.5,0 0.9,0.4 0.9,0.9 0,0.5 -0.4,0.9 -0.9,0.9 z M 36.7,53.5 c -0.2,0 -0.4,0 -0.6,0.1 L 36,53.1 28.6,42.7 26.5,40.2 24,40.9 c -5.8,2 -14.2,2.2 -16.8,2.1 -0.8,0 -1,0.7 -1,0.7 l -0.5,1.6 c 0,0 -2.2,9.1 -0.2,14.9 0,0 0.2,0.8 0.6,2.1 0.4,1.3 1.8,4.9 7.2,4 0,0 4.7,-0.5 12.2,-1.7 0,0 6.5,-0.9 11.2,-1 l 0.6,-3.5 h 0.2 v 0 c 1.5,-0.4 2.6,-1.8 2.5,-3.4 0.1,-1.8 -1.4,-3.3 -3.3,-3.2 z m -11.6,-9 c -0.5,0 -0.9,-0.4 -0.9,-0.8 0,-0.5 0.4,-0.9 0.8,-0.9 0.5,0 0.9,0.4 0.9,0.8 0,0.4 -0.4,0.9 -0.8,0.9 z m 8.2,13.8 c -0.5,0 -0.9,-0.4 -0.9,-0.8 0,-0.5 0.4,-0.9 0.8,-0.9 0.5,0 0.9,0.4 0.9,0.8 0,0.5 -0.3,0.9 -0.8,0.9 z"
   id="path20" />
</g>
<g
   class="st0"
   id="g26"
   transform="translate(-17,-13.8)">
	<path
   class="st1"
   d="m 94.5,46.5 c -1.3,-1.1 -4.8,-4 -10.3,-1.5 -5.1,2.3 -9,3.7 -9,3.7 0,0 -6.2,2.9 -14.5,-2.7 L 44.4,33.6 42.5,32.2 c -2.5,-2.1 -2.3,1.1 -2.3,1.1 0.2,7.5 -0.9,13.6 -1.2,15.5 2.4,0.5 4.1,2.6 4.1,5.1 0,1.7 -0.9,3.1 -2.2,4 l -0.8,5 c 2.5,0.2 4.4,0.6 6,1.4 7.6,3.8 12.4,3.9 12.4,3.9 0,0 5,1.8 16.9,-6.7 l 19,-14.3 c 0,0.2 0.5,-0.3 0.1,-0.7 z M 49,58.8 c -0.5,0 -0.9,-0.4 -0.9,-0.9 0,-0.5 0.4,-0.9 0.9,-0.9 0.5,0 0.8,0.4 0.8,0.9 0,0.5 -0.3,0.9 -0.8,0.9 z m -8.3,-5.1 c -0.2,-1.9 -1.9,-3.2 -3.7,-3 -0.2,0 -0.4,0.1 -0.6,0.1 l -0.2,-0.5 -8.1,-9.7 -2.2,-2.3 c 0,0 -16.1,3.5 -18.8,4.1 -0.8,0.2 -0.9,0.8 -0.9,0.8 l -0.3,1.7 c 0,0 -1.5,9.1 0.9,14.8 0,0 0.2,0.8 0.7,2 0.5,1.2 2.1,4.7 7.4,3.4 0,0 2.9,-0.5 7.7,-1.6 5.1,-0.8 11.5,-1.6 15,-0.7 l 0.9,-5.5 v 0 0 0 c 1.4,-0.5 2.4,-2 2.2,-3.6 z m -25,-8 c -0.5,0 -0.9,-0.4 -0.9,-0.9 0,-0.5 0.4,-0.9 0.9,-0.9 0.5,0 0.9,0.4 0.9,0.9 -0.1,0.5 -0.4,0.9 -0.9,0.9 z m 15.6,10 c -0.5,0 -0.9,-0.4 -0.9,-0.9 0,-0.5 0.4,-0.9 0.9,-0.9 0.5,0 0.8,0.4 0.8,0.9 0.1,0.5 -0.3,0.9 -0.8,0.9 z"
   id="path24" />
</g>
<g
   class="st0"
   id="g30"
   transform="translate(-17,-13.8)">
	<path
   class="st1"
   d="m 94.5,46.5 c -1.3,-1.1 -4.8,-4 -10.3,-1.5 -5.1,2.3 -9,3.7 -9,3.7 0,0 -6.2,2.9 -14.5,-2.7 L 44.4,33.6 42.5,32.2 c -2.5,-2.1 -2.3,1.1 -2.3,1.1 0.2,7.5 -0.9,13.6 -1.2,15.5 2.4,0.5 4.1,2.6 4.1,5.1 0,1.7 -0.9,3.1 -2.2,4 l -0.8,5 c 2.5,0.2 4.4,0.6 6,1.4 7.6,3.8 12.4,3.9 12.4,3.9 0,0 5,1.8 16.9,-6.7 l 19,-14.3 c 0,0.2 0.5,-0.3 0.1,-0.7 z m -53.8,7.2 c -0.2,-1.9 -1.9,-3.2 -3.7,-3 -0.2,0 -0.4,0.1 -0.6,0.1 l -0.2,-0.5 -8.1,-9.7 -2.2,-2.3 c 0,0 -16.1,3.5 -18.8,4.1 -0.8,0.2 -0.9,0.8 -0.9,0.8 l -0.3,1.7 c 0,0 -1.5,9.1 0.9,14.8 0,0 0.2,0.8 0.7,2 0.5,1.2 2.1,4.7 7.4,3.4 0,0 2.9,-0.5 7.7,-1.6 5.1,-0.8 11.5,-1.6 15,-0.7 l 0.9,-5.5 v 0 0 0 c 1.4,-0.5 2.4,-2 2.2,-3.6 z"
   id="path28" />
</g>
<g
   class="st0"
   id="g34"
   transform="translate(-17,-13.8)">
	<path
   class="st1"
   d="m 95.3,58.5 c 0,0 -6.8,4.3 -16.6,6.1 -9.3,1.8 -19.6,2.2 -27,0.7 -6.9,-1.4 -11.3,-1.7 -12,-1.8 0,-0.1 0,-0.2 -0.1,-0.4 l 0.5,-2.3 c 1.8,-0.4 3.2,-2.1 3.2,-4.2 0,-0.1 0,-0.2 0,-0.3 0,-0.7 -0.3,-1.4 -0.6,-2 0,0 0,-0.1 -0.1,-0.1 0,0 0,0 -0.1,-0.1 C 42,53.3 41.2,52.7 40.3,52.5 H 40 l 2.2,-18.4 c 0,0 0.1,-0.8 1.1,-0.5 0,0 4.1,1.3 13.3,8.1 0,0 11.8,9.6 17.1,10.2 0,0 7.2,1.4 12.8,0.2 1.9,-0.4 6.3,-0.5 7.2,0.5 0,0 2,1.3 2.4,4.1 0,0 0.3,1.2 -0.8,1.8 z m -58.6,-5 c -0.2,0 -0.4,0 -0.6,0.1 L 36,53.1 28.6,42.7 26.5,40.2 24,40.9 c -5.8,2 -14.2,2.2 -16.8,2.1 -0.8,0 -1,0.7 -1,0.7 l -0.5,1.6 c 0,0 -2.2,9.1 -0.2,14.9 0,0 0.2,0.8 0.6,2.1 0.4,1.3 1.8,4.9 7.2,4 0,0 4.7,-0.5 12.2,-1.7 0,0 6.5,-0.9 11.2,-1 l 0.8,-3.5 h 0.4 v 0 c 1,-0.4 2.4,-1.8 2.4,-3.4 0,-1.8 -1.7,-3.3 -3.6,-3.2 z"
   id="path32" />
</g>
<g
   class="st0"
   id="g38"
   transform="translate(-17,-13.8)">
	<path
   class="st1"
   d="m 85.6,55.8 c -0.9,-7.2 -8.4,-6.5 -8.4,-6.5 0,0 -3.6,0 -7.4,2.5 -3.8,2.5 -9.8,7.8 -16.4,3.1 0,0 -1.2,-0.8 -0.9,-2.8 0.3,-1.7 5.1,-5.8 14.2,-3.7 0,0 9.3,2.9 13.6,-0.8 L 90.6,36.5 c 0,0 1.6,-1.5 2.7,-1.5 0.2,0 0.3,0 0.5,0.1 -0.1,0 -0.1,-0.1 -0.1,-0.1 0,0 0.8,0.5 1,-0.3 0.2,-0.8 -1.6,-2.6 -4.8,0.3 L 81,44 c 0,0 -3,4.1 -8.2,3 -4.9,-1 -14.3,-5.2 -21.5,2.6 V 49.4 L 19.8,43 c 0,0 -10.1,-1.8 -14.5,1.4 L 43.4,52.9 6,58.8 c 4.1,3.5 14.3,2.7 14.3,2.7 l 30.5,-4.9 c 0.4,0.4 0.8,0.7 0.8,0.7 1.3,1.7 6.7,3.2 6.7,3.2 7.2,9.8 18.9,5.2 18.9,5.2 0,0 9.3,-2.6 8.4,-9.9 z M 47,54.2 c -0.6,-0.5 -0.7,-1.4 -0.2,-2.1 0.5,-0.6 1.4,-0.7 2.1,-0.2 0.6,0.5 0.7,1.4 0.2,2.1 -0.6,0.7 -1.5,0.7 -2.1,0.2 z m 31.8,8.6 C 68.6,67.1 63,62.3 63,62.3 59.7,60.1 60.2,59.1 62.1,58.7 64,58.4 67.2,57.1 69.7,55 c 2.5,-2 3.9,-2.5 3.9,-2.5 7.1,-3.2 9.2,2.1 9.2,2.1 1.9,4.9 -4,8.2 -4,8.2 z"
   id="path36" />
</g>
<g
   class="st0"
   id="g42"
   transform="translate(-17,-13.8)">
	<path
   class="st1"
   d="m 85.3,56.4 c -0.6,-7 -7.8,-6.6 -7.8,-6.6 0,0 -3.4,-0.2 -7.1,2.1 -3.7,2.2 -9.7,7.1 -15.8,2.3 0,0 -1,-1.1 -0.7,-2.7 0.2,-1.6 5.1,-5.3 13.7,-3 0,0 8.7,3.1 13,-0.3 L 92.2,37 c 0,0 1.6,-1.3 2.6,-1.3 0.2,0 0.3,0 0.5,0.1 -0.1,0 -0.1,-0.1 -0.1,-0.1 0,0 0.8,0.5 1,-0.3 0.2,-0.8 -1.4,-2.6 -4.6,0.1 l -10.2,9.2 c 0,0 -3,3.8 -7.9,2.5 C 68.9,46 60.3,41.8 53.1,48.6 V 48.4 L 16.5,47.1 c 0,0 -9.8,0.1 -13.4,3.8 l 30,1.4 -29.6,0.6 c 3.4,3.8 13.2,4.3 13.2,4.3 l 36.4,-0.3 c 1.7,1.5 5.8,2.9 5.8,2.9 6.5,9.6 17.8,5.7 17.8,5.7 0,0 9.2,-2.1 8.6,-9.1 z M 49.4,53.8 c -0.6,-0.5 -0.7,-1.5 -0.2,-2.1 0.5,-0.6 1.5,-0.7 2.1,-0.2 0.6,0.5 0.7,1.5 0.2,2.1 -0.5,0.6 -1.5,0.8 -2.1,0.2 z m 29.1,9 c -9.9,3.7 -15.6,-1.5 -15.6,-1.5 -1.6,-0.9 -2,-2.8 -0.2,-3 1.9,-0.3 4.9,-1.4 7.4,-3.2 2.5,-1.8 3.9,-2.3 3.9,-2.3 6.9,-2.8 8.7,2.3 8.7,2.3 1.6,4.8 -4.2,7.7 -4.2,7.7 z"
   id="path40" />
</g>
<g
   class="st0"
   id="g46"
   transform="translate(-17,-13.8)">
	<path
   class="st1"
   d="m 76,42 v 13.9 c 0,0 -2.6,-1.5 -6.2,-1.7 v -2.4 h -1.3 v 2.4 c -1.3,0.1 -2.6,0.4 -4,1 v -4 h -1.3 v 4.6 c -1.7,0.8 -3.1,1 -4,0.9 0.1,-0.3 0.1,-0.5 0.1,-0.8 V 44 c 0,-0.6 -0.2,-1.2 -0.6,-1.7 1.4,0.1 3.1,0 5,-0.7 4.9,-1.9 11.4,-0.9 12.3,0.4 z m -18,1.4 c 0.1,0.2 0.1,0.4 0.1,0.7 V 56 c 0,0.2 -0.1,0.4 -0.1,0.6 -0.5,1.2 -2.3,2.1 -4.8,2.7 v -3.2 h -1.3 v 3.5 c -1.5,0.3 -3.1,0.5 -4.7,0.7 V 55 h -1.3 v 5.4 c -2,0.2 -4,0.3 -5.7,0.3 V 57.2 H 39 v 3.5 c -1.6,0 -3.6,-0.1 -5.7,-0.2 V 55 H 32 v 5.4 C 30.1,60.2 28.2,60 26.5,59.6 v -3.5 h -1.3 v 3.2 c -2.9,-0.7 -5,-1.8 -5,-3.3 V 44 c 0,-3.7 12.4,-4.7 18.9,-4.7 4.9,0 13.2,0.6 16.9,2.4 0,0 0,0 0,0 0,0 0,0 0.1,0 0.3,0.1 0.5,0.3 0.8,0.4 0,0 0,0 0,0 0.2,0.2 0.4,0.3 0.6,0.5 0,0 0.1,0.1 0.1,0.1 0.2,0.4 0.3,0.5 0.4,0.7 z M 34.3,44 c 0,0.4 2.2,0.7 4.9,0.7 2.7,0 4.8,-0.3 4.8,-0.7 0,-0.4 -2.2,-0.7 -4.9,-0.7 -2.7,0 -4.8,0.3 -4.8,0.7 z m 21.8,2.2 -0.4,-0.8 c -2.7,1.4 -9.3,2.4 -16.6,2.4 -7.2,0 -13.7,-0.9 -16.5,-2.3 l -0.4,0.8 c 2.9,1.5 9.5,2.4 16.9,2.4 7.6,0 14.2,-1 17,-2.5 z m 21.2,-3.7 v 13.9 l 2.5,1.7 V 44.2 Z"
   id="path44" />
</g>
<g
   class="st0"
   id="g50"
   transform="translate(-17,-13.8)">
	<path
   class="st1"
   d="M 38,67.7 61.1,47.6 V 58 L 44,72.9 H 39.5 C 38.7,72.9 38,72.2 38,71.4 Z M 61.1,28.8 c 0,-0.8 -0.7,-1.5 -1.5,-1.5 H 58.1 L 38,44.8 v 9.6 L 61.1,34.3 Z m -1.5,44.1 c 0.8,0 1.5,-0.7 1.5,-1.5 v -2.3 l -4.3,3.8 z m -14.3,3.3 h 7.9 V 73 h 2 l 6,-5.3 V 59.5 L 45.3,73.3 Z M 39.5,27.3 C 38.7,27.3 38,28 38,28.8 v 3.1 l 5.3,-4.6 c -0.1,0 -3.8,0 -3.8,0 z m 13.6,0 v -3.5 h -7.9 v 3.5 H 45 l -7,6.1 v 9.9 l 18.4,-16 z M 73.5,34 c -0.3,0.3 -0.7,0.6 -1,0.8 l -0.9,0.9 -10.4,8.4 v 2 L 38,66.2 V 62.8 L 22.8,75.2 38,60.5 V 55.9 L 61.1,35.8 v 2.4 l 6.3,-6 2.4,-2.1 c 0,0 0.1,-0.1 0.1,-0.1 0.1,0 0.1,-0.1 0.2,-0.1 l 1.3,-1.1 0.7,-0.5 c 0,0 3.1,-2.6 4.7,-1 0,0 0.1,0.1 0.1,0.2 0,0 0.1,0 0.1,0.1 0.9,0.9 -0.6,3.9 -3.5,6.4 z m 1.9,-5.3 c -0.4,-0.5 -1.9,0.1 -3.3,1.3 -1.4,1.2 -2.2,2.6 -1.7,3.1 0.4,0.5 1.9,-0.1 3.3,-1.3 1.3,-1.2 2.1,-2.6 1.7,-3.1 z"
   id="path48" />
</g>
<g
   class="st0"
   id="g56"
   transform="translate(-17,-13.8)">
	<g
   class="st1"
   id="g54">
		<path
   d="M 93.9,44.5 C 90,38.4 81.3,37.6 81.3,37.6 71.9,36.9 68.2,43.4 68.2,43.4 h -5.1 c 0,0 -2.8,0.3 -8.3,-2.2 C 48.1,38.4 37.1,30 21,28.5 c 0,0 -5.5,-0.9 -14.6,0.9 0,0 -2.1,1.2 0.1,1.6 14.3,-1.5 22.9,1.6 27.3,3.1 4.5,1.5 12.6,6.9 12.6,6.9 4.2,2.9 9.9,4.9 9.9,4.9 l 5.6,2.3 0.3,0.1 c -1,1.1 -3.8,2.4 -3.8,2.4 -4.9,2 -18.8,10.8 -18.8,10.8 l -4.1,2.1 c -9,4.4 -14.1,5 -14.1,5 -2.4,0.9 -12.8,0.6 -12.8,0.6 -2,1.1 0,2.1 0,2.1 8.2,0.7 13.2,0 13.2,0 10.2,-1 27,-10.4 27,-10.4 0,0 6.9,-4.4 12.3,-6.1 3.8,-1.2 5.3,-2.5 5.9,-3.2 h 6.2 l -1.2,7.6 0.3,0.4 c 0,0 7.9,0 8.2,0 0.2,0 0.2,-0.3 0.2,-0.3 l -1.2,-8 h 1.4 c 0,0 5.3,0 10.5,5.3 0,0 0.9,1.1 1.6,0.6 0.9,-0.6 -2.8,-8.1 -12.1,-9.6 L 74.8,47 73.1,45.6 c 0,0 1.2,-0.9 1.5,-1.1 2.3,-1.6 5.6,-1.8 5.6,-1.8 0,0 5.8,-0.8 10.1,1.6 l 2.9,1.8 c 2.2,1.3 0.7,-1.6 0.7,-1.6 z M 68.3,43.3 c 0.1,0 0.5,-0.2 0,0 z m 0.6,5.8 c -0.9,0 -1.6,-0.7 -1.6,-1.6 0,-0.9 0.7,-1.5 1.6,-1.5 0.9,0 1.6,0.7 1.6,1.6 0,0.9 -0.7,1.5 -1.6,1.5 z"
   id="path52" />
	</g>
</g>
<g
   class="st0"
   id="g60"
   transform="translate(-17,-13.8)">
	<path
   class="st1"
   d="m 5.9,42.6 c 0,0.1 0.2,0.2 0.3,0.2 1.5,-0.6 3.9,-0.7 5.6,-0.7 0.8,0 1.4,0 1.4,0 l 53.9,2.3 c 0.1,0 3,0.4 4,2.3 0.8,1.7 3.6,2.4 3.6,2.4 0,0 0.4,0.1 0.9,0.4 l 0.5,0.2 -0.5,0.2 c -0.5,0.3 -0.9,0.4 -0.9,0.4 0,0 -2.8,0.8 -3.6,2.5 -0.9,1.9 -3.8,2.3 -3.9,2.3 l -53.7,2.3 v 0 C 13,57.2 12.4,57.1 11.9,57.1 h -0.1 c -0.8,0 -1.4,0.2 -1.7,0.6 -0.3,0.3 -0.4,0.8 -0.4,1.4 0,1.3 0.7,1.8 2,1.8 h 0.1 c 0.5,0 1,-0.1 1.5,-0.3 h 0.1 l 59.7,-1 c 0,0 1.3,-0.3 1.8,-1.5 0.5,-1.4 2.5,-3.4 4.8,-3.4 h 0.1 l 0.7,-0.1 0.1,0.3 c 0,0.1 0,0.1 0,0.2 l 0.2,0.7 c 1.7,4.3 6.4,4.5 7.3,4.5 0.1,0 0.1,0 0.1,0 5.3,0 5.9,-6.9 6,-8.3 l -2.7,0.3 c -0.1,0.2 -0.2,0.5 -0.3,0.7 -0.2,0.5 -0.4,0.9 -0.8,1.1 -0.6,0.6 -1.3,1 -2.1,1 -2,0 -3.7,-2.4 -3.6,-5.4 0,-3 1.7,-5.4 3.7,-5.3 1.4,0 2.6,1.2 3.2,3 l 2.6,0.3 c 0,-0.7 -0.2,-2.4 -0.8,-4.1 -1,-2.8 -2.8,-4.3 -5.2,-4.3 0,0 -0.1,0 -0.2,0 -0.9,0 -5.6,0.2 -7.3,4.5 l -0.2,0.7 c 0,0 0,0.1 0,0.2 L 80.4,45 h -0.8 -0.1 c -2.3,0 -4.3,-2 -4.8,-3.4 -0.4,-1.2 -1.8,-1.5 -1.8,-1.5 L 13.2,39 c -3.2,0.3 -6.1,2.1 -6.1,2.1 -1.2,1 -1.2,1.4 -1.2,1.5 z m 74.5,5.8 c 0.9,0 1.6,0.7 1.6,1.6 0,0.9 -0.7,1.6 -1.6,1.6 -0.9,0 -1.6,-0.7 -1.6,-1.6 0,-0.9 0.7,-1.6 1.6,-1.6 z"
   id="path58" />
</g>
<g
   class="st0"
   id="g66"
   transform="translate(-17,-13.8)">
	<g
   class="st1"
   id="g64">
		<path
   d="m 86.3,81.8 c 0,0.2 -0.1,0.4 -0.2,0.6 l -4.8,4.8 c -0.2,0.2 -0.4,0.3 -0.6,0.3 -0.2,0 -0.4,-0.1 -0.6,-0.2 l -48,-53.1 -7.4,8.1 c -2.1,2.1 -1.6,5.2 -1.6,5.2 l 0.2,0.7 c 0.1,0.2 0,0.4 -0.1,0.6 l -0.7,1.4 c -0.1,0.2 -0.3,0.3 -0.5,0.4 -0.2,0.1 -0.4,0 -0.6,-0.1 l -7.5,-4.3 c -0.2,-0.1 -0.3,-0.3 -0.4,-0.5 -0.1,-0.2 0,-0.4 0.1,-0.6 l 1.3,-1.8 C 15,43.1 15.2,43 15.4,42.9 l 0.9,-0.3 c 0,0 3.4,-0.8 5.8,-7.5 0,0 2,-6.1 4.5,-8.8 2.5,-2.7 6,-4.4 11.9,-5.2 5.9,-0.8 11.1,-3.2 11.1,-3.2 0,0 3.4,-1.5 6.2,-5.1 l 0.8,-0.3 0.6,0.7 -0.2,2.5 -3.4,3.2 c 0,0 -5.3,4.5 -12.9,7.9 -2.2,1 -4.1,2.5 -4.2,2.6 l 49.6,51.9 c 0.1,0 0.2,0.2 0.2,0.5 z"
   id="path62" />
	</g>
</g>
<g
   class="st0"
   id="g70"
   transform="translate(-17,-13.8)">
	<path
   class="st1"
   d="m 83.1,77.1 v 0 l -0.2,-0.2 c 0,0 -0.1,-0.1 -0.1,-0.1 -0.1,-0.1 -0.2,-0.2 -0.3,-0.2 L 43,36.6 55.8,20.5 48.5,12.1 30,23.9 c -0.2,-0.1 -0.4,-0.1 -0.6,-0.1 -1.1,0 -2.1,0.8 -2.1,2 0,0.2 0,0.4 0.1,0.6 L 13.7,43.5 21.3,51.6 38.7,40.5 74.8,84 c 0,0 0,0.1 0.1,0.1 0,0 0,0 0,0 v 0 0 c 2.6,2.7 6.4,3.2 8.6,1.2 2,-1.9 1.9,-5.5 -0.4,-8.2 z"
   id="path68" />
</g>
<g
   class="st0"
   id="g74"
   transform="translate(-17,-13.8)">
	<path
   class="st1"
   d="m 29.2,23.7 c -0.4,-0.4 -1.2,-0.5 -1.6,0 l -1.2,1.1 c -0.5,0.4 -0.5,1.2 -0.1,1.6 l -4.5,4.2 -0.3,1.9 1.6,1.7 -1.9,1.8 -3,-3.2 h -1.7 l -0.9,0.8 c -0.5,0.4 -0.5,1.2 -0.1,1.7 L 26,46.5 c 0.4,0.5 1.2,0.5 1.7,0 l 0.9,-0.8 0.1,-1.7 -3,-3.2 1.9,-1.8 1.6,1.7 1.9,-0.2 4.3,-4.1 45.2,50 c 0.2,0.1 0.3,0.2 0.5,0.2 0.2,0 0.4,-0.1 0.5,-0.2 l 4.1,-3.9 c 0.1,-0.1 0.2,-0.3 0.2,-0.5 0,-0.2 -0.1,-0.4 -0.2,-0.5 L 38.8,33.2 c 1.9,-2 9.6,-9.3 15.8,-5.5 0,0 0.5,0.3 0.9,0 0.7,-0.6 0.2,-1.2 0.2,-1.2 C 43.6,13.6 32.1,21.3 29.2,23.7 Z"
   id="path72" />
</g>
<g
   class="st0"
   id="g78"
   transform="translate(-17,-13.8)">
	<path
   class="st1"
   d="m 79.8,65.7 c 0.6,0.7 0.5,1.2 0.5,1.2 v 5.9 H 69.1 c 0,0 -2,0 -2.8,-1.5 0,0 -2.1,-3.4 -11.2,-3.1 H 54.3 C 45.1,68 43,71.4 43,71.4 c -0.8,1.4 -2.8,1.5 -2.8,1.5 H 28.9 V 67 c 0,0 -0.1,-0.5 0.5,-1.2 l 4.2,-4.9 c 0.2,-0.2 0.7,-0.3 0.7,-0.3 L 36.5,60 H 72 l 2.8,0.6 c 0,0 0.5,0.1 0.7,0.3 z M 38.2,27.2 v 1.4 c 0,0 -0.7,0.9 -3.6,0.9 h -2.1 v 1.3 H 15.9 c 0,0 -2.4,-0.1 -10.4,-0.5 L 4.2,30.2 c 0,0 -0.1,0 -0.1,0 -0.4,0 -0.8,0.3 -0.8,0.8 0,0.2 0,0.3 0.1,0.4 l 0.1,0.1 c 0,0 8.9,14.7 28.5,14.9 h 4.2 c 3.9,0 7.4,3.3 7.4,7.2 0,2.1 -1.2,4 -3,5 h 27.7 c -1.9,-1.3 -3.2,-3.6 -3.2,-6.1 0,-5.1 4.7,-14.4 21.3,-17.2 l 6.9,-1.5 c 0,0 2.5,-0.3 2.5,-1.8 v -1.2 l 0.7,-0.7 V 27.4 H 38.2 Z"
   id="path76" />
</g>
<g
   class="st0"
   id="g82"
   transform="translate(-17,-13.8)">
	<path
   class="st1"
   d="m 97,27 v 2.9 l -1,0.7 v 1.2 c 0,1.5 -2.6,1.8 -2.6,1.8 l -6.9,1.5 C 69.9,38 65.2,47.3 65.2,52.4 c 0,2.5 1.2,4.7 3.2,6.1 l 6.5,2 c 0,0 0.5,0.1 0.6,0.3 l 4.2,4.9 C 80.2,66.4 80,67 80,67 v 6 H 69.1 c 0,0 -2,-0.3 -2.8,-1.7 0,0 -2.1,-3.3 -11.2,-3.3 H 54.3 C 45.1,68 43,71.3 43,71.3 42.2,72.7 40.2,73 40.2,73 H 29 v -6 c 0,0 -0.1,-0.6 0.5,-1.3 l 4.2,-4.9 c 0.2,-0.2 0.7,-0.5 0.7,-0.5 L 40.8,58 v 0 c 1.7,0 2.9,-2.6 2.9,-4.7 0,-3.9 -3.5,-7 -7.4,-7 H 32.1 C 12.5,46.1 3.6,31.4 3.6,31.4 L 3.5,31.3 C 3.4,31.2 3.4,31 3.4,30.9 c 0,-0.4 0.3,-0.7 0.7,-0.7 0,0 0.1,0 0.1,0 l 1.3,0.2 c 8,0.5 10.4,0.7 10.4,0.7 H 33 v -2 h 1.7 c 2.9,0 3.3,-0.4 3.3,-0.4 V 27 Z"
   id="path80" />
</g>
<g
   class="st0"
   id="g94"
   transform="translate(-17,-13.8)">
	<g
   class="st1"
   id="g92">
		<path
   d="m 66.9,54.2 c 0,-0.2 0,-0.5 0,-0.7 0.4,-4 4.1,-5.8 8.3,-5.9 V 28.5 H 29.9 V 49 h 3.7 c 4.5,0 8.5,2 8.5,6.5 0,2.4 -1.3,4.5 -3.3,5.7 h 31.7 c -2.2,-1.5 -3.6,-4.1 -3.6,-7 z"
   id="path84" />
		<path
   d="m 29.2,31.2 h -6 v 1.5 H 12.5 c 0,0 -9.1,0 -9.1,0 -0.5,0 -0.9,0.4 -0.9,0.9 0,0.2 0.1,0.3 0.1,0.5 0,0 4.3,12.6 26.6,12.9 z"
   id="path86" />
		<polygon
   points="86.5,40.3 92.1,40.3 92.1,34.4 78.6,28.5 75.9,28.5 75.9,47.7 77.8,47.7 "
   id="polygon88" />
		<path
   d="M 73,61.9 H 36.8 l -6.9,4.6 c -0.7,0.8 -0.6,1.4 -0.6,1.4 v 4.8 H 39.7 L 41.3,71 h 27.2 l 1.6,1.7 h 10.4 v -4.8 c 0,0 0.1,-0.6 -0.6,-1.4 z"
   id="path90" />
	</g>
</g>
<g
   class="st0"
   id="g98"
   transform="translate(-17,-13.8)">
	<path
   class="st1"
   d="m 36.4,46.2 h -0.5 c -30.6,-3 -31.7,-16 -31.7,-16 0,0 0,-0.3 0,-0.5 0,-0.4 0.3,-0.7 0.7,-0.7 0,0 0.1,0 0.1,0 l 1.2,0.1 c 7.3,1 25.2,0.8 25.2,0.8 v -1 h 5.1 v -1.2 h 59.4 v 5.2 C 79.5,33 67,42.3 67,54.1 l 0.9,4.3 H 45 l 1.2,-4.1 c 0,-5.8 -6.3,-8.1 -9.8,-8.1 z m 8.1,13.3 -8.1,8.3 v 4.5 h 7.4 C 47,69 56.3,69 56.3,69 h 0.2 c 0,0 8.9,-0.4 12.5,3.3 h 7.4 v -4.5 l -8.1,-8.3 z"
   id="path96" />
</g>
<g
   class="st0"
   id="g104"
   transform="translate(-17,-13.8)">
	<g
   class="st1"
   id="g102">
		<path
   d="M 95.9,33.1 C 79.5,33.1 67,42.4 67,54.2 l 1,4.7 8.4,8.6 V 72 H 69 C 65.3,68.3 56.5,68.7 56.5,68.7 h -0.2 c 0,0 -9.3,0.1 -12.5,3.3 h -7.4 v -4.5 l 8.4,-8.6 1.3,-4.6 c 0,-5.7 -6.2,-8 -9.8,-8 h -0.5 c -30.6,-3 -31.7,-16 -31.7,-16 0,0 0,-0.3 0,-0.5 0,-0.4 0.3,-0.7 0.7,-0.7 0,0 0.1,0 0.1,0 l 1.2,0.1 c 7.3,1 25.2,0.8 25.2,0.8 v -1 h 5.1 v -1.2 h 59.4 z"
   id="path100" />
	</g>
</g>
<g
   class="st0"
   id="g108"
   transform="translate(-17,-13.8)">
	<path
   class="st1"
   d="m 92.7,34.3 v 5.9 H 87 l -8.7,7.5 h -2.5 c -4.3,0 -8.1,2.4 -8.5,6.4 0,0.2 0,-0.1 0,0.2 0,2.9 1.4,5.4 3.6,7 l 9.5,4.8 c 0.7,0.8 0.6,1.4 0.6,1.4 v 4.8 H 70.5 L 68.9,70.6 H 41.5 l -1.6,1.7 H 29.4 v -4.8 c 0,0 -0.1,-0.6 0.6,-1.4 l 9,-4.9 v 0 c 2,-1.1 3.3,-3.2 3.3,-5.7 0,-4.5 -4,-6.6 -8.5,-6.6 H 29.7 V 46.7 C 7,46.7 2.6,33.9 2.6,33.9 2.5,33.8 2.5,33.6 2.5,33.4 c 0,-0.5 0.4,-0.9 0.9,-0.9 0,0 9.2,0 9.2,0 H 23.3 V 31 h 6.5 v -2.7 l 54.3,0.1 z"
   id="path106" />
</g>
<g
   class="st0"
   id="g112"
   transform="translate(-17,-13.8)">
	<path
   class="st1"
   d="m 15.2,32 c -0.2,0.7 0.4,2.1 0.6,2.5 L 43.4,50 16,65 c -0.9,1.1 -1,2.8 -1,2.8 L 49.5,53.6 67,66.7 C 63.8,76.8 77.7,82.5 82.9,76.8 89.9,66.8 74,60.2 68.8,64.1 67.3,62.7 58.1,55.7 58.1,55.7 57.6,55.3 56,52.1 54.9,50 c 0.8,-1.6 2,-3.9 2.5,-4.7 L 57.6,45 v 0 c 0.2,-0.4 0.4,-0.6 0.6,-0.8 0,0 9.3,-7 10.8,-8.4 C 74.2,39.7 90.3,33 83.2,23 77.9,17.3 63.9,23 67.1,33.2 L 49.6,46.4 Z M 72.6,75.7 C 66.3,72 69.2,67.8 69.7,67.2 72,64.1 76,65.5 76,65.5 c 12.4,4.2 5.9,15.2 -3.4,10.2 z m 0.3,-51.4 c 9.4,-5 15.9,6.1 3.3,10.2 0,0 -4,1.5 -6.3,-1.7 -0.5,-0.6 -3.4,-4.8 3,-8.5 z M 50,48.4 c 0.8,0 1.5,0.7 1.5,1.5 0,0.8 -0.7,1.5 -1.5,1.5 -0.8,0 -1.5,-0.7 -1.5,-1.5 0,-0.8 0.6,-1.5 1.5,-1.5 z"
   id="path110" />
</g>
<g
   id="g116"
   transform="translate(-13.385542,-13.8)">
	<path
   class="st2"
   d="m 69.5,57.5 c 1.4,-1.1 2.8,-2.3 4.2,-3.7 l -2.2,-2.2 c -1.1,1.1 -2.3,2.2 -3.5,3.1 L 55.4,31.6 c 2.2,-1.4 3.6,-3.9 3.6,-6.7 0,-3.8 -2.6,-7 -6.2,-7.8 v -3.3 h -4.1 v 3.4 c -3.4,1 -5.8,4.1 -5.8,7.7 0,2.7 1.4,5.1 3.4,6.6 l -28.9,53 c -0.4,0.8 -0.5,1.3 -0.3,1.8 l 8,-6.6 9.4,-16.7 c 2.5,0.8 6.5,1.8 11.3,1.9 0.5,0 0.9,0 1.4,0 5.2,0 11.9,-1.1 18.5,-4.9 l 13.2,24.1 3.9,2.2 0.1,-3.9 z m -18.6,-37 c 2.4,0 4.4,2 4.4,4.4 0,2.4 -2,4.4 -4.4,4.4 -2.4,0 -4.4,-2 -4.4,-4.4 0.1,-2.5 2,-4.4 4.4,-4.4 z M 46,61.8 C 41.9,61.7 38.4,60.9 36,60.2 L 51,33.3 64.2,57.4 C 58.8,60.5 52.6,62 46,61.8 Z"
   id="path114" />
</g>
<g
   class="st0"
   id="g120"
   transform="translate(-17,-13.8)">
	<path
   class="st1"
   d="m 71,60.5 h 2.3 V 58.3 H 69.5 L 55.4,31.6 c 2.2,-1.4 3.6,-3.9 3.6,-6.7 0,-3.8 -2.6,-7 -6.2,-7.8 v -3.3 h -4.1 v 3.4 c -3.4,1 -5.8,4.1 -5.8,7.7 0,2.7 1.4,5.1 3.4,6.6 L 32.2,58.2 h -3.8 v 2.2 h 2.3 l -13.2,24 v -0.1 c -0.4,0.8 -0.5,1.4 -0.3,2 l 8,-6.6 10.7,-19.2 h 13.4 v 3.8 h 3.1 V 60.5 H 66 l 12.9,23.7 3.9,2.2 0.1,-3.9 z m -20.1,-40 c 2.4,0 4.4,2 4.4,4.4 0,2.4 -2,4.4 -4.4,4.4 -2.4,0 -4.4,-2 -4.4,-4.4 0.1,-2.4 2,-4.4 4.4,-4.4 z m 1.4,37.7 v -4 h -3.1 v 4 H 37.3 L 51,33.3 64.5,58.2 Z"
   id="path118" />
</g>
<g
   class="st0"
   id="g124"
   transform="translate(-17,-13.8)">
	<path
   class="st1"
   d="m 32.9,66.4 -8.8,8.1 -3,1.2 1.7,-2.7 10,-9.3 z M 77.8,29.2 c -0.2,0.2 -0.4,0.3 -0.7,0.4 l -6.8,3.9 -6.3,4.9 v -2.9 l 4.1,-3.3 v 0 0 l 5.5,-6.6 c 0.2,-0.2 0.3,-0.4 0.6,-0.6 1.2,-1 3,-0.8 3.9,0.4 1.1,1.1 0.9,2.8 -0.3,3.8 z m -0.8,-3 c -0.5,-0.5 -1.3,-0.6 -1.8,-0.1 -0.1,0 -4.5,5.2 -4.5,5.2 -0.1,0.1 -0.1,0.2 0,0.3 0.1,0.1 0.2,0.1 0.3,0 0,0 5.8,-3.5 5.9,-3.6 0.5,-0.5 0.6,-1.3 0.1,-1.8 z m -42.8,6.2 c 0.3,0.3 0.9,0.6 1.4,0.6 h 25.7 c 0.5,0 1.1,-0.3 1.4,-0.6 l 3.5,-3.5 C 66.5,28.6 66.4,28.3 66,28.3 H 31.5 c -0.5,0 -0.6,0.3 -0.3,0.6 z M 62.8,68.6 C 62.5,68.3 61.9,68 61.4,68 H 35.6 c -0.5,0 -1.1,0.3 -1.4,0.6 l -2.9,2.9 c -0.3,0.3 -0.2,0.6 0.2,0.6 H 65 c 0.5,0 0.6,-0.3 0.3,-0.6 z M 62.3,35.8 c 0,-0.5 -0.4,-0.9 -0.9,-0.9 H 35.7 c -0.5,0 -0.9,0.4 -0.9,0.9 v 0.4 c 0,0.5 0.4,0.9 0.9,0.9 h 25.6 c 0.5,0 0.9,-0.4 0.9,-0.9 v -0.4 z m 0,16.5 c 0,-0.5 -0.4,-0.9 -0.9,-0.9 H 35.7 c -0.5,0 -0.9,0.4 -0.9,0.9 v 0.4 c 0,0.5 0.4,0.9 0.9,0.9 h 25.6 c 0.5,0 0.9,-0.4 0.9,-0.9 v -0.4 z m 0,4.1 c 0,-0.5 -0.4,-0.9 -0.9,-0.9 H 35.7 c -0.5,0 -0.9,0.4 -0.9,0.9 v 0.4 c 0,0.5 0.4,0.9 0.9,0.9 h 25.6 c 0.5,0 0.9,-0.4 0.9,-0.9 v -0.4 z m 0,4.2 c 0,-0.5 -0.4,-0.9 -0.9,-0.9 H 35.7 c -0.5,0 -0.9,0.4 -0.9,0.9 V 61 c 0,0.5 0.4,0.9 0.9,0.9 h 25.6 c 0.5,0 0.9,-0.4 0.9,-0.9 v -0.4 z m -1,-13.3 H 35.7 c -0.5,0 -0.9,0.4 -0.9,0.9 v 0.4 c 0,0.5 0.4,0.9 0.9,0.9 h 25.6 c 0.5,0 0.9,-0.4 0.9,-0.9 v -0.4 c 0.1,-0.5 -0.4,-0.9 -0.9,-0.9 z m 1,-7.3 c 0,-0.3 -0.2,-0.6 -0.4,-0.7 -0.2,-0.1 -0.3,-0.2 -0.5,-0.2 H 35.7 c -0.5,0 -0.9,0.4 -0.9,0.9 v 0.4 c 0,0.5 0.4,0.9 0.9,0.9 h 25.6 c 0.5,0 0.9,-0.4 0.9,-0.9 V 40 Z m -1,23.8 H 35.7 c -0.5,0 -0.9,0.4 -0.9,0.9 v 0.4 c 0,0.5 0.4,0.9 0.9,0.9 h 25.6 c 0.5,0 0.9,-0.4 0.9,-0.9 v -0.4 c 0.1,-0.5 -0.4,-0.9 -0.9,-0.9 z m 1,-19.7 c 0,-0.5 -0.4,-0.9 -0.9,-0.9 H 35.7 c -0.5,0 -0.9,0.4 -0.9,0.9 v 0.4 c 0,0.5 0.4,0.9 0.9,0.9 h 25.6 c 0.5,0 0.9,-0.4 0.9,-0.9 0.1,0 0.1,-0.4 0.1,-0.4 z"
   id="path122" />
</g>
<g
   class="st0"
   id="g134"
   transform="translate(-17,-13.8)">
	<g
   class="st1"
   id="g132">
		<path
   d="m 11.6,79 c -0.2,0.4 0,0.8 0.3,1 l 5.7,3 c 0.4,0.2 0.8,0.1 1,-0.3 l 1,-1.9 -7,-3.7 z"
   id="path126" />
		<path
   d="m 88.4,79 -1,-1.9 -7,3.7 1,1.9 c 0.2,0.4 0.6,0.5 1,0.3 l 5.7,-3 c 0.4,-0.2 0.5,-0.7 0.3,-1 z"
   id="path128" />
		<path
   d="m 85.3,72.3 -1.1,0.6 -0.5,-0.9 1.1,-0.6 -1.8,-3.3 -3.1,1.7 -0.5,-0.9 3.1,-1.7 -1.8,-3.3 -1.1,0.6 -0.5,-0.9 1.1,-0.6 -1.8,-3.4 -3.1,1.7 -0.5,-0.9 3.1,-1.7 -1.8,-3.3 -1.1,0.6 -0.5,-0.9 1.1,-0.6 -1.8,-3.4 -3.1,1.7 -0.5,-0.9 3.1,-1.7 -1.8,-3.3 -1.1,0.6 L 70,46.6 71,46 69.2,42.6 66.1,44.3 65.6,43.4 68.7,41.7 66.9,38.4 65.8,39 65.3,38.1 66.4,37.5 64.6,34.1 61.5,35.8 61,35 64.1,33.3 62.3,30 l -1.1,0.6 -0.5,-0.9 1.1,-0.6 -4.4,-8.2 -1.3,0.7 C 55.4,18.9 52.9,17 50,17 c -2.9,0 -5.3,1.9 -6.2,4.5 l -1.1,-0.6 -4.4,8.2 1.1,0.6 -0.5,0.9 -1.1,-0.6 -1.8,3.3 3.1,1.7 -0.5,0.9 -3.1,-1.7 -1.8,3.4 1.1,0.6 -0.5,0.8 -1.1,-0.6 -1.8,3.3 3.1,1.7 -0.5,0.9 -3.1,-1.7 -1.8,3.4 1.1,0.6 -0.5,0.9 -1.1,-0.6 -1.8,3.3 3.1,1.7 -0.5,0.9 -3.1,-1.7 -1.8,3.4 1.1,0.6 -0.5,0.9 -1.1,-0.6 -1.8,3.3 3.1,1.7 -0.5,0.9 -3.1,-1.7 -1.8,3.4 1.1,0.6 -0.5,0.9 -1.1,-0.6 -1.8,3.3 3.1,1.7 -0.5,0.9 -3.1,-1.7 -1.8,3.4 1.1,0.6 -0.5,0.9 -1.1,-0.6 -1.7,3.2 6.9,3.7 27.1,-50.1 c 0.9,0.4 1.8,0.7 2.9,0.7 1.1,0 2.1,-0.3 3,-0.7 L 80.1,79.4 87,75.7 Z M 50,25.1 c -0.9,0 -1.7,-0.7 -1.7,-1.7 0,-1 0.7,-1.7 1.7,-1.7 1,0 1.7,0.7 1.7,1.7 0,0.9 -0.8,1.7 -1.7,1.7 z"
   id="path130" />
	</g>
</g>
<g
   class="st0"
   id="g158"
   transform="translate(-17,-13.8)">
	<g
   class="st1"
   id="g156">
		<path
   d="m 81.8,18.2 c -1.2,-1.2 -3.2,-1.2 -4.5,0 -0.2,0.2 -0.4,0.5 -0.6,0.8 l -6.8,9.3 v 0 0 L 64.1,34.2 52.8,22.8 C 52.5,22.5 52.2,22.6 52.1,23 l -0.3,4.5 c 0,0.5 0.2,1.1 0.5,1.4 l 18.2,18.2 c 0.3,0.3 1,0.6 1.4,0.6 h 4.9 c 0.5,0 0.6,-0.3 0.2,-0.6 L 65.9,35.9 71.8,30.1 v 0 l 9.3,-6.9 c 0.3,-0.1 0.5,-0.3 0.7,-0.5 1.3,-1.3 1.3,-3.3 0,-4.5 z m -1.4,3.4 c -0.1,0.1 -0.1,0.1 -0.2,0.2 0,0 0,0 0,0 L 74,26.1 c -0.1,0.1 -0.3,0.1 -0.4,0 -0.1,-0.1 -0.1,-0.3 0,-0.4 l 4.5,-6 c 0,0 0,0 0,0 0,-0.1 0.1,-0.1 0.1,-0.2 0.6,-0.6 1.5,-0.6 2,0 0.8,0.6 0.8,1.5 0.2,2.1 z"
   id="path136" />
		<path
   d="m 36.5,45 c -0.4,-0.4 -0.9,-0.4 -1.3,0 l -0.3,0.3 c -0.4,0.4 -0.4,0.9 0,1.3 l 18.2,18.2 c 0.4,0.4 0.9,0.4 1.3,0 l 0.3,-0.3 c 0.4,-0.4 0.4,-0.9 0,-1.3 z"
   id="path138" />
		<path
   d="m 30.7,50.8 c -0.4,-0.4 -0.9,-0.4 -1.3,0 l -0.3,0.3 c -0.4,0.4 -0.4,0.9 0,1.3 l 18.2,18.2 c 0.4,0.4 0.9,0.4 1.3,0 l 0.3,-0.3 c 0.4,-0.4 0.4,-0.9 0,-1.3 z"
   id="path140" />
		<path
   d="m 33.6,47.9 c -0.4,-0.4 -0.9,-0.4 -1.3,0 L 32,48.2 c -0.4,0.4 -0.4,0.9 0,1.3 l 18.2,18.2 c 0.4,0.4 0.9,0.4 1.3,0 l 0.3,-0.3 c 0.4,-0.4 0.4,-0.9 0,-1.3 z"
   id="path142" />
		<path
   d="m 27.6,53.7 c -0.3,-0.3 -1,-0.6 -1.4,-0.6 h -4.1 c -0.5,0 -0.6,0.3 -0.2,0.6 L 33.4,65.2 18.7,79.9 17.2,82.7 20,81.2 34.7,66.6 45.5,77.4 c 0.3,0.3 0.6,0.2 0.7,-0.2 l 0.2,-3.8 c 0,-0.5 -0.2,-1.1 -0.5,-1.4 z"
   id="path144" />
		<path
   d="M 51.1,30.4 C 50.7,30 50.2,30 49.8,30.4 l -0.3,0.3 c -0.4,0.4 -0.4,0.9 0,1.3 l 18.2,18.2 c 0.4,0.4 0.9,0.4 1.3,0 l 0.3,-0.3 c 0.4,-0.4 0.4,-0.9 0,-1.3 z"
   id="path146" />
		<path
   d="m 39.5,42.1 c -0.4,-0.4 -0.9,-0.4 -1.3,0 l -0.3,0.3 c -0.4,0.4 -0.4,0.9 0,1.3 L 56,61.9 c 0.4,0.4 0.9,0.4 1.3,0 l 0.3,-0.3 c 0.4,-0.4 0.4,-0.9 0,-1.3 z"
   id="path148" />
		<path
   d="m 45.3,36.2 c -0.4,-0.4 -0.9,-0.4 -1.3,0 l -0.3,0.3 c -0.4,0.4 -0.4,0.9 0,1.3 L 61.8,56 c 0.4,0.4 0.9,0.4 1.3,0 l 0.3,-0.3 c 0.4,-0.4 0.4,-0.9 0,-1.3 z"
   id="path150" />
		<path
   d="M 66.4,51.5 48.2,33.3 c -0.4,-0.4 -0.9,-0.4 -1.3,0 l -0.3,0.3 c -0.4,0.4 -0.4,0.9 0,1.3 l 18.2,18.2 c 0.4,0.4 0.9,0.4 1.3,0 l 0.3,-0.3 c 0.2,-0.2 0.3,-0.5 0.3,-0.8 -0.1,-0.2 -0.2,-0.4 -0.3,-0.5 z"
   id="path152" />
		<path
   d="m 42.4,39.2 c -0.4,-0.4 -0.9,-0.4 -1.3,0 l -0.3,0.3 c -0.4,0.4 -0.4,0.9 0,1.3 L 59,59 c 0.4,0.4 0.9,0.4 1.3,0 l 0.3,-0.3 c 0.4,-0.4 0.4,-0.9 0,-1.3 z"
   id="path154" />
	</g>
</g>
<g
   class="st0"
   id="g162"
   transform="translate(-17,-13.8)">
	<path
   class="st1"
   d="m 39.8,56.6 c 2.9,-2.9 6,-5.3 8.7,-6.9 0,0 0.2,-0.1 0.3,-0.2 1.5,-0.9 8.6,-5.1 14.5,-10.8 L 89.2,12.8 v 0 c 0.8,-0.7 1.9,-0.6 2.7,0.1 0.8,0.7 0.8,1.9 0.1,2.7 v 0 L 66,41.5 c -5.7,5.9 -10,13 -10.8,14.5 0,0 -0.2,0.3 -0.2,0.3 v 0 C 53.4,59 51.1,62 48.1,65 c -4.5,4.5 -9.2,7.6 -12.6,8.7 l -4.4,-4.4 c 1.1,-3.5 4.3,-8.2 8.7,-12.7 z M 33.3,77.7 27,71.4 C 24.6,71 22.1,71.8 20.5,75.1 17,83.9 7.6,83.2 7.6,83.2 c 0,0 13,9.3 23.1,1.3 2.1,-1.7 3,-4.3 2.6,-6.8 z"
   id="path160" />
</g>
<g
   class="st0"
   id="g166"
   transform="translate(-17,-13.8)">
	<path
   class="st1"
   d="M 9.8,87.8 C 16,85.5 15.8,79 21.4,74.5 24,72.4 27.3,71 27.5,71 27.9,68.5 36.9,61 38.8,59.4 L 82.2,16.9 v 0 c 3.7,-3.5 7,-5.6 7.8,-4.9 0.8,0.8 -1.9,4.8 -6.1,9 C 83.7,21.2 42.5,63.1 42.5,63.1 41.6,64.2 33.6,74 30.9,74.4 v 0 C 26.9,86.1 15.7,89.2 9.8,87.8 Z"
   id="path164" />
</g>
<g
   class="st0"
   id="g170"
   transform="translate(-17,-13.8)">
	<path
   class="st1"
   d="M 40.9,74.8 C 30.1,97.5 8,83.8 8,83.8 c 0,0 11.1,1.7 11.3,-8.7 0.2,-9.8 9.9,-10.7 11.1,-10.8 z m -5.3,-15.4 -3.2,2.8 10.4,10.4 2.7,-3.2 c 2,0.1 3.9,-0.4 5.3,-1.8 1.6,-1.6 2.2,-4 1.7,-6.4 l 39,-46.1 c 0.7,-0.7 0.7,-1.8 0,-2.5 -0.7,-0.7 -1.8,-0.7 -2.5,0 L 43.5,52.5 c -2.3,-0.4 -4.5,0.2 -6.1,1.7 -1.4,1.3 -2,3.2 -1.8,5.2 z"
   id="path168" />
</g>
<g
   class="st0"
   id="g174"
   transform="translate(-17,-13.8)">
	<path
   class="st1"
   d="m 87,66 v 4 H 11 v -4 h 14.1 c 0,0 3.1,-0.1 7.9,-4.8 1.7,-1.7 3.3,-3.2 4.8,-4.7 l 6,-5.8 18.9,-19.7 4.6,5.1 -17.1,18 c 3.3,0.7 7.2,2.9 14.5,8.1 0,0 3.4,2.4 6.6,2.6 0,0 0.2,0 0.2,0 0.7,-1.8 2.9,-3.3 1.4,-8.6 -1,-3.5 -5.1,-10.4 -5.1,-10.4 0,0 -2.9,-4.3 1.4,-6.2 4.3,-1.9 7.2,-3.1 13.9,-3.7 0,0 0.9,0.4 0,1.3 -0.9,0.9 -6.1,4.7 -3.3,9.6 1.9,3.3 6.2,8.3 6.1,19.3 H 87 Z M 15.7,58 c 0,1.8 -0.7,3 -0.7,3 v 2 h 10 v -2 c 0,0 -0.8,-1.2 -0.8,-3 0,-1.8 -0.3,-2.1 1.4,-5.3 1.7,-3.2 1.9,-2 1.9,-4.5 0,-2.5 -1.5,-6.8 -7.6,-6.8 -6.1,0 -7.6,4.3 -7.6,6.8 0,2.5 0.3,1.3 1.9,4.5 1.7,3.2 1.5,3.6 1.5,5.3 z"
   id="path172" />
</g>
<g
   class="st0"
   id="g182"
   transform="translate(-17,-13.8)">
	<g
   class="st1"
   id="g180">
		<path
   d="m 85.6,66 c 0.1,-11 -4.2,-15.9 -6.1,-19.3 -2.8,-4.9 2.4,-8.7 3.3,-9.6 0.9,-0.9 0,-1.3 0,-1.3 -6.6,0.6 -9.6,1.9 -13.9,3.7 -4.3,1.9 -1.4,6.2 -1.4,6.2 0,0 4.1,6.9 5.1,10.4 1.5,5.3 -0.7,6.8 -1.4,8.6 0,0 -0.2,0 -0.2,0 C 67.8,64.5 64.4,62.1 64.4,62.1 57.1,56.9 53.2,54.7 49.9,54 L 67,36 62.7,31 46.8,47.6 c 0.4,-2 0.2,-4.1 -0.5,-6 -0.9,-2.2 -2.5,-4 -4.7,-4.9 -2.2,-1 -4.6,-1 -6.8,-0.2 -3.7,1.4 -5.6,5.6 -4.2,9.4 1.2,3.1 4.6,4.6 7.7,3.4 1.2,-0.5 2.2,-1.4 2.7,-2.6 0.5,-1.2 0.6,-2.5 0.1,-3.8 -0.4,-1 -1.2,-1.8 -2.2,-2.3 -1,-0.4 -2.1,-0.5 -3.1,-0.1 -1.8,0.7 -2.6,2.7 -2,4.4 0.6,1.5 2.2,2.2 3.7,1.7 -0.2,-0.7 -0.3,-0.8 -0.5,-1.4 -0.7,0.3 -1.5,-0.1 -1.8,-0.8 -0.4,-1 0.1,-2.1 1.1,-2.5 0.6,-0.2 1.3,-0.2 2,0 0.6,0.3 1.1,0.8 1.4,1.4 0.3,0.8 0.3,1.8 -0.1,2.6 -0.4,0.8 -1,1.5 -1.9,1.8 -2.3,0.9 -4.9,-0.3 -5.7,-2.5 -1.1,-2.9 0.3,-6.3 3.3,-7.4 1.8,-0.7 3.8,-0.7 5.6,0.1 1.8,0.8 3.2,2.2 3.9,4.1 0.9,2.3 0.8,4.9 -0.2,7.2 -0.2,0.4 -0.4,0.8 -0.6,1.2 l -0.3,0.3 -6,5.8 C 36.2,58 34.6,59.6 32.9,61.2 28.1,65.9 25,66 25,66 H 11 v 4 h 76 v -4 z"
   id="path176" />
		<path
   d="m 15.7,58 c 0,1.8 -0.7,3 -0.7,3 v 2 h 10 v -2 c 0,0 -0.8,-1.2 -0.8,-3 0,-1.8 -0.3,-2.1 1.4,-5.3 1.7,-3.2 1.9,-2 1.9,-4.5 0,-2.5 -1.5,-6.8 -7.6,-6.8 -6.1,0 -7.6,4.3 -7.6,6.8 0,2.5 0.3,1.3 1.9,4.5 1.7,3.2 1.5,3.6 1.5,5.3 z"
   id="path178" />
	</g>
</g>
<g
   class="st0"
   id="g188"
   transform="translate(-17,-13.8)">
	<g
   class="st1"
   id="g186">
		<path
   d="m 74.3,39.7 c -0.2,0.2 -1.8,4.4 -7.9,-1.2 -4.2,5.4 -5.9,5.2 -5.9,5.2 L 58.2,46 c -0.7,0.5 -2,-0.3 -2,-0.3 L 29.9,71.9 24.8,76 24.6,75.8 28,70 54.3,43.7 c 0,0 -0.8,-1.3 -0.3,-2 l 2.3,-2.3 c 0,0 -0.2,-1.6 5.2,-5.9 -5.6,-6.1 -1.4,-7.8 -1.2,-7.9 7.7,-4.4 11.9,0.8 12.4,1.5 0.8,0.6 5.9,4.8 1.6,12.6 z"
   id="path184" />
	</g>
</g>
<g
   class="st0"
   id="g196"
   transform="translate(-17,-13.8)">
	<g
   class="st1"
   id="g194">
		<g
   id="g192">
			<path
   d="M 36,52.5 V 30.6 c 0,-5.8 -6.2,-5.7 -6.2,0 v 21.9 2.6 21 l 9.1,9.8 h 20.3 l 9.7,-9.8 c 3.9,-14 -1.7,-27.3 -0.6,-33.4 1.2,-4.7 -6.2,-3.2 -6.2,2.5 v 12.2 h -1.8 v -2.5 0 -32 c 0,-5.8 -6.2,-5.7 -6.2,0 V 52.5 H 52.3 V 18.4 c 0,-5.8 -6.2,-5.7 -6.2,0 V 52.5 H 44.3 V 23.1 c 0,-5.8 -6.2,-5.7 -6.2,0 v 29.4 z"
   id="path190" />
		</g>
	</g>
</g>
<g
   class="st0"
   id="g204"
   transform="translate(-17,-13.8)">
	<g
   class="st1"
   id="g202">
		<g
   id="g200">
			<path
   d="M 37,51.2 V 29.4 c 0,-5.7 -6.2,-5.7 -6.2,0 v 21.8 2.6 c 0,0 0,10.6 0,15.3 0,23.8 38.2,23.6 38.2,0 C 69,50 67.9,47.6 69,41.5 70.2,36.8 62.8,38.3 62.8,44 V 56.1 H 61 v -2.5 0 -31.8 c 0,-5.7 -6.2,-5.7 -6.2,0 V 51.2 H 53 V 17.4 c 0,-5.7 -6.2,-5.7 -6.2,0 V 51.3 H 45 V 22.1 c 0,-5.7 -6.2,-5.7 -6.2,0 V 51.3 C 38.8,51.2 37,51.2 37,51.2 Z"
   id="path198" />
		</g>
	</g>
</g>
</svg>
