<svg xmlns="http://www.w3.org/2000/svg" width="149.68" height="122.024" viewBox="0 0 149.68 122.024">
  <g id="Groupe_96" data-name="Groupe 96" transform="translate(-851 -3113)">
    <circle id="Ellipse_42" data-name="Ellipse 42" cx="54.5" cy="54.5" r="54.5" transform="translate(851 3113)" fill="rgba(245,204,73,0.6)"/>
    <g id="compass2" transform="translate(1583.986 3109.876)">
      <g id="Groupe_68" data-name="Groupe 68" transform="translate(-689.986 7.676)">
        <path id="Tracé_422" data-name="Tracé 422" d="M101.89,84.613a64.6,64.6,0,0,0,6.822-5.946l-3.527-3.525a62.933,62.933,0,0,1-5.7,5.04L79.114,42.606A13.037,13.037,0,0,0,74.9,19.077v-5.4H68.256v5.559A13.039,13.039,0,0,0,64.41,42.448L17.675,128.188c-.7,1.289-.831,2.044-.458,2.936l12.973-10.676L45.275,93.38a69.91,69.91,0,0,0,18.243,3.126q1.128.044,2.324.042A60.7,60.7,0,0,0,95.747,88.7L117.1,127.66l6.376,3.488.222-6.323ZM71.876,24.66a7.1,7.1,0,1,1-7.1,7.1A7.1,7.1,0,0,1,71.876,24.66Zm-7.991,66.87a65.315,65.315,0,0,1-16.122-2.618L72.009,45.394,93.363,84.359A54.852,54.852,0,0,1,63.885,91.531Z" transform="translate(-17.014 -13.676)" fill="#2f2f2e"/>
      </g>
    </g>
  </g>
</svg>
