<?xml version="1.0" encoding="utf-8"?>
<!-- Generator: Adobe Illustrator 21.0.0, SVG Export Plug-In . SVG Version: 6.00 Build 0)  -->
<svg version="1.1" id="Layer_1" xmlns="http://www.w3.org/2000/svg" xmlns:xlink="http://www.w3.org/1999/xlink" x="0px" y="0px"
	 viewBox="0 0 512 512" style="enable-background:new 0 0 512 512;" xml:space="preserve">
<style type="text/css">
	.st0{fill:#2F2F2E;}
</style>
<g>
	<g>
		<path class="st0" d="M458.7,85.3H53.3C23.9,85.3,0,109.3,0,138.7v234.7c0,29.4,23.9,53.3,53.3,53.3h405.3
			c29.4,0,53.3-23.9,53.3-53.3V138.7C512,109.3,488.1,85.3,458.7,85.3z M490.7,373.3c0,17.6-14.4,32-32,32H53.3
			c-17.6,0-32-14.4-32-32V138.7c0-17.6,14.4-32,32-32h405.3c17.6,0,32,14.4,32,32L490.7,373.3L490.7,373.3z"/>
	</g>
</g>
<g>
	<g>
		<path class="st0" d="M501.3,149.3H10.7C4.8,149.3,0,154.1,0,160v64c0,5.9,4.8,10.7,10.7,10.7h490.7c5.9,0,10.7-4.8,10.7-10.7v-64
			C512,154.1,507.2,149.3,501.3,149.3z M490.7,213.3H21.3v-42.7h469.3L490.7,213.3L490.7,213.3z"/>
	</g>
</g>
<g>
	<g>
		<path class="st0" d="M160,298.7H74.7c-5.9,0-10.7,4.8-10.7,10.7S68.8,320,74.7,320H160c5.9,0,10.7-4.8,10.7-10.7
			S165.9,298.7,160,298.7z"/>
	</g>
</g>
<g>
	<g>
		<path class="st0" d="M224,341.3H74.7c-5.9,0-10.7,4.8-10.7,10.7s4.8,10.7,10.7,10.7H224c5.9,0,10.7-4.8,10.7-10.7
			C234.7,346.1,229.9,341.3,224,341.3z"/>
	</g>
</g>
</svg>
