<?xml version="1.0" encoding="utf-8"?>
<!-- Generator: Adobe Illustrator 21.0.0, SVG Export Plug-In . SVG Version: 6.00 Build 0)  -->
<svg version="1.1" id="Capa_1" xmlns="http://www.w3.org/2000/svg" xmlns:xlink="http://www.w3.org/1999/xlink" x="0px" y="0px"
	 viewBox="0 0 325.8 325.8" style="enable-background:new 0 0 325.8 325.8;" xml:space="preserve">
<style type="text/css">
	.st0{fill:#2F2F2E;}
</style>
<g>
	<g>
		<path class="st0" d="M285.3,296.3c-73.7,28.4-156.5-8.4-184.9-82.2c-0.5-1.4-1-2.7-1.5-4.1h147.8c5.5,0,10-4.5,10-10
			s-4.5-10-10-10H93.6c-3-15.8-3.3-32.1-1-48h170.1c5.5,0,10-4.5,10-10s-4.5-10-10-10H97.1C119.8,46.4,199.6,3.5,275.3,26.2
			c3.3,1,6.7,2.1,10.1,3.4c5.1,2,10.9-0.5,13-5.7c2-5.1-0.5-10.9-5.7-13h-0.1c-84-32.3-178.3,9.6-210.7,93.6
			c-2.2,5.7-4.1,11.5-5.6,17.4H36.7c-5.5,0-10,4.5-10,10c0,5.5,4.5,10,10,10h35.7c-2,16-1.7,32.1,0.9,48H36.7c-5.5,0-10,4.5-10,10
			s4.5,10,10,10H78c26.1,86.2,117.1,134.9,203.2,108.9c3.8-1.2,7.6-2.5,11.3-3.9c5.1-2,7.7-7.8,5.7-12.9
			C296.2,296.9,290.4,294.3,285.3,296.3z"/>
	</g>
</g>
</svg>
