<svg xmlns="http://www.w3.org/2000/svg" width="140.705" height="126.2" viewBox="0 0 140.705 126.2">
  <g id="Groupe_97" data-name="Groupe 97" transform="translate(-1495 -3113)">
    <circle id="Ellipse_43" data-name="Ellipse 43" cx="54.5" cy="54.5" r="54.5" transform="translate(1495 3113)" fill="rgba(245,204,73,0.6)"/>
    <g id="euro" transform="translate(1507.294 3117.552)">
      <g id="Groupe_67" data-name="Groupe 67" transform="translate(26.706 0)">
        <path id="Tracé_420" data-name="Tracé 420" d="M123.263,110.634A53.412,53.412,0,0,1,54.224,79.942c-.187-.523-.373-1.008-.56-1.531H108.85a3.734,3.734,0,1,0,0-7.468H51.685a54.49,54.49,0,0,1-.373-17.922h63.512a3.734,3.734,0,1,0,0-7.468H52.992a53.437,53.437,0,0,1,66.537-35.77c1.232.373,2.5.784,3.771,1.27a3.748,3.748,0,0,0,2.726-6.982h-.037A60.9,60.9,0,0,0,47.317,39.019a57.2,57.2,0,0,0-2.091,6.5H30.44a3.734,3.734,0,1,0,0,7.468H43.77a62.668,62.668,0,0,0,.336,17.922H30.44a3.734,3.734,0,0,0,0,7.468H45.86a60.9,60.9,0,0,0,75.871,40.661c1.419-.448,2.838-.933,4.219-1.456a3.724,3.724,0,0,0-2.688-6.945Z" transform="translate(-26.706 0)" fill="#2f2f2e"/>
      </g>
    </g>
  </g>
</svg>
