<?xml version="1.0" encoding="utf-8"?>
<!-- Generator: Adobe Illustrator 21.0.0, SVG Export Plug-In . SVG Version: 6.00 Build 0)  -->
<svg version="1.1" id="Capa_1" xmlns="http://www.w3.org/2000/svg" xmlns:xlink="http://www.w3.org/1999/xlink" x="0px" y="0px"
	 viewBox="0 0 84.4 84.4" style="enable-background:new 0 0 84.4 84.4;" xml:space="preserve">
<style type="text/css">
	.st0{fill:#2F2F2E;}
</style>
<g>
	<path class="st0" d="M35.7,7c0-3.9,3.1-7,7-7c3.9,0,7,3.1,7,7c0,3.9-3.1,7-7,7C38.9,14,35.7,10.9,35.7,7z M58.1,55.3
		c-1.5,0-2.8,1.3-2.8,2.8c0,11.4-9.3,20.7-20.7,20.7C23.3,78.8,14,69.5,14,58.1c0-11.4,9.3-20.7,20.7-20.7c1.5,0,2.8-1.3,2.8-2.8
		c0-1.5-1.3-2.8-2.8-2.8c-14.5,0-26.3,11.8-26.3,26.3s11.8,26.3,26.3,26.3c14.5,0,26.3-11.8,26.3-26.3
		C60.9,56.6,59.7,55.3,58.1,55.3z M34.7,44.3c0.8,0,1.4-0.6,1.4-1.4s-0.6-1.4-1.4-1.4C25.5,41.5,18,49,18,58.1
		c0,9.2,7.5,16.6,16.6,16.6c9.2,0,16.6-7.5,16.6-16.6c0-0.8-0.6-1.4-1.4-1.4c-0.8,0-1.4,0.6-1.4,1.4c0,7.6-6.2,13.8-13.8,13.8
		c-7.6,0-13.8-6.2-13.8-13.8C20.8,50.5,27,44.3,34.7,44.3z M75.7,58.5c-0.7-1.4-2.4-1.9-3.8-1.3l-2.3,1.2L64,48.7
		c-0.5-0.9-1.4-1.4-2.4-1.4h-16V18.2c0-1.5-1.3-2.8-2.8-2.8c-1.5,0-2.8,1.3-2.8,2.8v31.9c0,1.5,1.3,2.8,2.8,2.8h17.2l6.2,10.6
		c0.5,0.9,1.5,1.4,2.4,1.4c0.4,0,0.8-0.1,1.2-0.3l4.7-2.3C75.8,61.6,76.4,59.9,75.7,58.5z"/>
</g>
</svg>
