<svg xmlns="http://www.w3.org/2000/svg" width="160.643" height="122.024" viewBox="0 0 160.643 122.024">
  <g id="Groupe_95" data-name="Groupe 95" transform="translate(-211 -3113)">
    <circle id="Ellipse_41" data-name="Ellipse 41" cx="54.5" cy="54.5" r="54.5" transform="translate(211 3113)" fill="rgba(245,204,73,0.6)"/>
    <g id="open-source" transform="translate(246 3105.236)">
      <g id="Groupe_66" data-name="Groupe 66" transform="translate(0 8.14)">
        <path id="Tracé_419" data-name="Tracé 419" d="M62.822,8.14A62.774,62.774,0,0,0,40.3,129.527a3.9,3.9,0,0,0,3.11-.133,3.94,3.94,0,0,0,2.034-2.364L57.223,89.415a3.91,3.91,0,0,0-1.845-4.61A15.717,15.717,0,1,1,70.258,84.8a3.933,3.933,0,0,0-1.845,4.61l11.779,37.614a3.937,3.937,0,0,0,3.754,2.756,3.869,3.869,0,0,0,1.4-.259A62.769,62.769,0,0,0,62.822,8.14ZM86.4,120.544l-9.6-30.633a23.558,23.558,0,1,0-27.971,0l-9.588,30.633a54.965,54.965,0,1,1,47.155,0Z" transform="translate(0 -8.14)" fill="#2f2f2e"/>
      </g>
    </g>
  </g>
</svg>
