<svg xmlns="http://www.w3.org/2000/svg" width="156.579" height="100" viewBox="0 0 156.579 100">
  <g id="People" transform="translate(-354.71 -1317)">
    <circle id="Ellipse_12" data-name="Ellipse 12" cx="50" cy="50" r="50" transform="translate(354.71 1317)" fill="rgba(245,204,73,0.6)"/>
    <g id="user" transform="translate(381.876 1231.667)">
      <g id="Groupe_12" data-name="Groupe 12" transform="translate(45.013 85.333)">
        <g id="Groupe_11" data-name="Groupe 11">
          <path id="Tracé_254" data-name="Tracé 254" d="M190.359,85.333a19.693,19.693,0,1,0,19.693,19.693A19.715,19.715,0,0,0,190.359,85.333Zm0,33.76a14.067,14.067,0,1,1,14.067-14.067A14.086,14.086,0,0,1,190.359,119.093Z" transform="translate(-170.666 -85.333)" fill="#2f2f2e"/>
        </g>
      </g>
      <g id="Groupe_14" data-name="Groupe 14" transform="translate(90.027 107.84)">
        <g id="Groupe_13" data-name="Groupe 13">
          <path id="Tracé_255" data-name="Tracé 255" d="M355.4,170.667a14.067,14.067,0,1,0,14.067,14.067A14.086,14.086,0,0,0,355.4,170.667Zm0,22.507a8.44,8.44,0,1,1,8.44-8.44A8.45,8.45,0,0,1,355.4,193.174Z" transform="translate(-341.334 -170.667)" fill="#2f2f2e"/>
        </g>
      </g>
      <g id="Groupe_16" data-name="Groupe 16" transform="translate(11.653 107.84)">
        <g id="Groupe_15" data-name="Groupe 15">
          <path id="Tracé_256" data-name="Tracé 256" d="M58.249,170.667a14.067,14.067,0,1,0,14.067,14.067A14.082,14.082,0,0,0,58.249,170.667Zm0,22.507a8.44,8.44,0,1,1,8.44-8.44A8.45,8.45,0,0,1,58.249,193.174Z" transform="translate(-44.182 -170.667)" fill="#2f2f2e"/>
        </g>
      </g>
      <g id="Groupe_18" data-name="Groupe 18" transform="translate(28.133 130.346)">
        <g id="Groupe_17" data-name="Groupe 17">
          <path id="Tracé_257" data-name="Tracé 257" d="M143.239,256a36.615,36.615,0,0,0-36.573,36.573,2.813,2.813,0,1,0,5.627,0,30.946,30.946,0,0,1,61.893,0,2.813,2.813,0,0,0,5.627,0A36.615,36.615,0,0,0,143.239,256Z" transform="translate(-106.666 -256)" fill="#2f2f2e"/>
        </g>
      </g>
      <g id="Groupe_20" data-name="Groupe 20" transform="translate(89.625 141.6)">
        <g id="Groupe_19" data-name="Groupe 19" transform="translate(0 0)">
          <path id="Tracé_258" data-name="Tracé 258" d="M354.281,298.667a25.322,25.322,0,0,0-13.116,3.657,2.814,2.814,0,0,0,2.92,4.811,19.7,19.7,0,0,1,29.889,16.852,2.813,2.813,0,1,0,5.627,0A25.351,25.351,0,0,0,354.281,298.667Z" transform="translate(-339.813 -298.667)" fill="#2f2f2e"/>
        </g>
      </g>
      <g id="Groupe_22" data-name="Groupe 22" transform="translate(0 141.6)">
        <g id="Groupe_21" data-name="Groupe 21" transform="translate(0 0)">
          <path id="Tracé_259" data-name="Tracé 259" d="M38.43,302.319A25.329,25.329,0,0,0,0,323.987a2.813,2.813,0,1,0,5.627,0A19.7,19.7,0,0,1,35.51,307.129a2.814,2.814,0,0,0,2.92-4.811Z" transform="translate(0 -298.667)" fill="#2f2f2e"/>
        </g>
      </g>
    </g>
  </g>
</svg>
