<svg xmlns="http://www.w3.org/2000/svg" width="116.948" height="100" viewBox="0 0 116.948 100">
  <g id="wellchair" transform="translate(-1502 -1321)">
    <circle id="Ellipse_14" data-name="Ellipse 14" cx="50" cy="50" r="50" transform="translate(1502 1321)" fill="rgba(245,204,73,0.6)"/>
    <g id="handicapped-sign" transform="translate(1535.59 1321)">
      <path id="Tracé_264" data-name="Tracé 264" d="M38.7,7.766a7.766,7.766,0,1,1,7.766,7.766A7.772,7.772,0,0,1,38.7,7.766Zm24.853,53.6a3.109,3.109,0,0,0-3.106,3.107A22.912,22.912,0,1,1,37.538,41.558a3.107,3.107,0,1,0,0-6.214A29.128,29.128,0,1,0,66.66,64.469,3.094,3.094,0,0,0,63.553,61.362ZM37.538,49.13a1.553,1.553,0,1,0,0-3.106A18.449,18.449,0,1,0,55.979,64.47a1.553,1.553,0,0,0-3.106,0A15.338,15.338,0,1,1,37.538,49.13ZM83.03,64.894a3.112,3.112,0,0,0-4.163-1.4L76.294,64.78,70,53.965a3.107,3.107,0,0,0-2.682-1.535H49.573V20.187a3.106,3.106,0,0,0-6.213,0v35.35a3.116,3.116,0,0,0,3.106,3.107H65.531L72.39,70.42a3.1,3.1,0,0,0,2.692,1.542,3.007,3.007,0,0,0,1.383-.327l5.183-2.584A3.1,3.1,0,0,0,83.03,64.894Z" fill="#2f2f2e"/>
    </g>
  </g>
</svg>
