<?xml version="1.0" encoding="utf-8"?>
<!-- Generator: Adobe Illustrator 21.0.0, SVG Export Plug-In . SVG Version: 6.00 Build 0)  -->
<svg version="1.1" id="Calque_1" xmlns="http://www.w3.org/2000/svg" xmlns:xlink="http://www.w3.org/1999/xlink" x="0px" y="0px"
	 viewBox="0 0 24 30" style="enable-background:new 0 0 24 30;" xml:space="preserve">
<style type="text/css">
	.st0{fill:#2F2F2E;}
</style>
<path class="st0" d="M20.9,20.1l-4.6-4.6c1.1-1.3,1.8-3,1.8-4.9c0-4.2-3.4-7.5-7.5-7.5S3,6.4,3,10.5s3.4,7.5,7.5,7.5
	c1.9,0,3.6-0.7,4.9-1.8l4.6,4.6c0.1,0.1,0.3,0.2,0.4,0.2s0.3-0.1,0.4-0.2C21.1,20.6,21.1,20.3,20.9,20.1z M10.5,17
	c-3.5,0-6.4-2.9-6.4-6.4S7,4.1,10.5,4.1S17,7,17,10.5S14.1,17,10.5,17z"/>
</svg>
