<?xml version="1.0" encoding="utf-8"?>
<!-- Generator: Adobe Illustrator 21.0.0, SVG Export Plug-In . SVG Version: 6.00 Build 0)  -->
<svg version="1.1" id="Calque_1" xmlns="http://www.w3.org/2000/svg" xmlns:xlink="http://www.w3.org/1999/xlink" x="0px" y="0px"
	 viewBox="0 0 500 500" style="enable-background:new 0 0 500 500;" xml:space="preserve">
<style type="text/css">
	.st0{fill:#F5F5F5;}
	.st1{fill:#E0E0E0;}
	.st2{fill:#FFFFFF;}
	.st3{fill:#EBEBEB;}
	.st4{fill:#F5CC49;}
	.st5{opacity:0.8;}
	.st6{fill:#263238;}
	.st7{opacity:0.2;}
	.st8{fill:#455A64;}
	.st9{fill:none;}
	.st10{fill:#FAFAFA;}
	.st11{opacity:0.3;}
	.st12{fill:#FFBE9D;}
	.st13{fill:#EB996E;}
	.st14{opacity:0.78;}
	.st15{opacity:0.4;}
	.st16{font-family:'MyriadPro-Regular';}
	.st17{font-size:8.3391px;}
	.st18{fill:#F9EAC2;}
	.st19{fill:none;stroke:#263238;stroke-width:0.25;stroke-miterlimit:10;}
</style>
<g id="freepik--background-complete--inject-1134">
	<polygon class="st0" points="128.6,428.4 128.6,471.1 191.1,471.1 260,471.1 260,428.4 	"/>
	<polygon class="st1" points="123.1,416.5 123.1,428.4 264.6,428.4 264.6,416.5 191.1,416.5 	"/>
	<polygon class="st1" points="193.9,471.1 260,471.1 260,428.4 264.6,428.4 264.6,416.5 191.1,416.5 191.1,427.3 	"/>
	<rect x="147" y="435.3" class="st1" width="26.6" height="6.4"/>
	<rect x="143.6" y="449.8" class="st2" width="34.2" height="13.6"/>
	<polygon class="st0" points="143.7,383.6 143.7,416.5 191.7,416.5 244.6,416.5 244.6,383.6 	"/>
	<polygon class="st1" points="139.5,374.5 139.5,383.6 248.2,383.6 248.2,374.5 191.7,374.5 	"/>
	<polygon class="st3" points="193.8,416.5 244.6,416.5 244.6,383.6 248.2,383.6 248.2,374.5 191.7,374.5 191.7,382.8 	"/>
	<rect x="157.8" y="388.9" class="st1" width="20.5" height="4.9"/>
	<rect x="155.2" y="400" class="st2" width="26.3" height="10.4"/>
	<path class="st1" d="M445.3,93.8c3.7-1.7,6.1-5.4,6.1-9.5c0-5.7-4.3-10.3-9.6-10.3s-9.6,4.5-9.6,10.2c-0.1,4.1,2.3,7.9,6.1,9.6
		c-14.8,2.2-14.1,18.3-14.1,18.3l34.9,0.2C459.1,112.3,459.9,96.1,445.3,93.8z"/>
	<path class="st1" d="M123.9,318.9c1.2-0.7,2.5-1.3,3.9-1.7l0.8-3.8l6.5-0.1l0.9,3.8c1.4,0.3,2.7,0.9,3.9,1.5l3.3-2.1l4.6,4.5
		l-2,3.3c0.7,1.2,1.3,2.5,1.7,3.9l3.8,0.8l0.1,6.4l-3.8,0.9c-0.3,1.4-0.9,2.7-1.5,3.9l2.1,3.3l-4.5,4.6l-3.3-2
		c-1.2,0.7-2.5,1.3-3.9,1.7l-0.8,3.8l-6.5,0.1l-0.9-3.8c-1.4-0.3-2.7-0.9-3.9-1.5l-3.3,2.1l-4.6-4.5l2-3.3c-0.7-1.2-1.3-2.5-1.7-3.9
		l-3.8-0.8l-0.1-6.5l3.8-0.9c0.3-1.4,0.9-2.7,1.5-3.9l-2.2-3.3l4.5-4.6L123.9,318.9L123.9,318.9z M127.4,327.5
		c-2.7,2.8-2.6,7.1,0.2,9.8s7.1,2.6,9.8-0.2c2.6-2.8,2.6-7.1-0.2-9.8C134.4,324.6,130,324.7,127.4,327.5
		C127.4,327.5,127.4,327.5,127.4,327.5L127.4,327.5z"/>
	<path class="st1" d="M127.4,327.5c0.4-0.4,0.8-0.8,1.3-1.1c2.3-1.5,5.3-1.5,7.6,0c1.7,1.1,2.8,2.8,3.1,4.7c0.1,0.7,0.1,1.4,0,2.1
		c-0.4,3.1-2.8,5.5-5.8,6c-0.7,0.1-1.4,0.1-2.1,0c-0.7-0.1-1.4-0.3-2-0.6c-3.5-1.6-5.1-5.7-3.6-9.2c0.1-0.3,0.2-0.5,0.4-0.8
		c0.3-0.5,0.7-0.9,1.1-1.3c0,0-0.4,0.5-1,1.4c-0.7,1.4-1,2.9-0.8,4.4c0.4,2.3,1.9,4.2,4,5.1c0.6,0.3,1.2,0.4,1.9,0.5
		c0.7,0.1,1.3,0.1,2,0c2.9-0.5,5.1-2.8,5.5-5.7c0.1-0.7,0.1-1.3,0-2c-0.1-0.6-0.3-1.3-0.6-1.9c-0.5-1.1-1.3-2-2.3-2.7
		c-0.9-0.6-1.9-1-2.9-1.1c-1.5-0.2-3,0.2-4.3,1C128.3,326.8,127.8,327.1,127.4,327.5z"/>
	<path class="st1" d="M123.9,318.9c-0.1,0-0.2-0.1-0.2-0.1l-0.6-0.4l-2.5-1.5h0.1l-4.5,4.7v-0.1c0.7,1,1.4,2.1,2.1,3.3v0.1v0.1
		c-0.7,1.2-1.2,2.5-1.5,3.9v0.1h-0.1l-3.8,0.9l0.1-0.1c0,2,0.1,4.2,0.1,6.5l-0.1-0.1l3.8,0.8h0.1v0.1c0.4,1.3,0.9,2.6,1.7,3.8
		l0.1,0.1l-0.1,0.1l-2,3.3v-0.2c1.5,1.4,3,2.9,4.6,4.5h-0.2l3.3-2.1l0.1-0.1h0.1c1.2,0.7,2.5,1.2,3.9,1.5h0.1v0.1l0.9,3.8l-0.2-0.1
		l6.5-0.1l-0.2,0.2l0.8-3.8v-0.1h0.1c1.3-0.4,2.6-0.9,3.8-1.6l0,0l0.1-0.1l0.1,0.1l3.3,2h-0.2c1.5-1.6,3-3.1,4.5-4.6v0.2l-2.1-3.3
		l-0.1-0.1l0.1-0.1c0.7-1.2,1.2-2.5,1.5-3.9V336h0.1l3.8-0.9l-0.1,0.2c0-2.2-0.1-4.4-0.1-6.5l0.1,0.2l-3.8-0.8h-0.1v-0.1
		c-0.4-1.3-0.9-2.6-1.6-3.8l-0.1-0.1l0.1-0.1l2-3.3v0.2c-1.6-1.6-3.2-3.1-4.6-4.5h0.2l-3.3,2.1l-0.1,0.1h-0.1
		c-1.2-0.7-2.5-1.2-3.9-1.5h-0.1v-0.1c-0.3-1.4-0.6-2.6-0.9-3.8l0.1,0.1l-6.5,0.1l0.1-0.1c-0.3,1.5-0.6,2.8-0.8,3.8l0,0l0,0
		c-1,0.3-2,0.7-3,1.1l-0.7,0.4C124.1,318.7,124,318.8,123.9,318.9l0.2-0.2c0.1-0.1,0.4-0.2,0.7-0.4c0.9-0.5,1.9-0.9,3-1.2l0,0
		l0.8-3.8v-0.1h0.1l6.5-0.1h0.1v0.1l0.9,3.8l-0.1-0.1c1.4,0.4,2.7,0.9,3.9,1.6h-0.1l3.3-2.1l0.1-0.1l0.1,0.1l4.6,4.5l0.1,0.1
		l-0.1,0.1l-2,3.3v-0.2c0.7,1.2,1.3,2.5,1.7,3.9l-0.1-0.1l3.8,0.8h0.1v0.1c0,2.1,0.1,4.3,0.1,6.5v0.1h-0.1l-3.8,0.9l0.1-0.1
		c-0.3,1.4-0.9,2.7-1.6,4v-0.2c0.7,1.1,1.4,2.2,2.1,3.3l0.1,0.1l-0.1,0.1l-4.5,4.6l-0.1,0.1l-0.1-0.1l-3.3-2h0.2
		c-1.2,0.7-2.5,1.3-3.9,1.7l0.1-0.2c-0.3,1.3-0.5,2.6-0.8,3.8v0.2h-0.2l-6.5,0.1h-0.1v-0.1l-0.9-3.8l0.1,0.1c-1.4-0.3-2.7-0.9-4-1.6
		h0.2l-3.3,2.1l-0.1,0.1l-0.1-0.1l-4.6-4.5l-0.1-0.1l0.1-0.1l2-3.3v0.2c-0.7-1.2-1.3-2.5-1.7-3.9l0.1,0.1l-3.8-0.8h-0.1v-0.1
		c0-2.3-0.1-4.4-0.1-6.5v-0.1h0.1l3.8-0.9l-0.1,0.1c0.3-1.4,0.9-2.7,1.6-3.9v0.1l-2.1-3.3l0-0.1l0.1-0.1l4.5-4.6l0,0l0,0l2.5,1.5
		l0.6,0.4L123.9,318.9z"/>
	<path class="st1" d="M99.8,76c2.5,0.7,5.2,0.2,7.1-1.5c1.2,1.8,2.8,3.9,4.6,6.2c1,1.2,1.9,2.4,2.8,3.5c-3.4,1.6-5.1,5.5-4,9.1
		c-1.7,0.5-3.6,1.2-5.6,1.9c-1.8,0.7-3.4,1.3-4.9,1.9c-1.3-4.1-5.6-6.4-9.7-5.1c-4.1,1.3-6.4,5.6-5.1,9.7s5.6,6.4,9.7,5.1
		c2.4-0.8,4.3-2.7,5.1-5.1c0.3-0.9,0.4-1.8,0.3-2.7c1.6-0.5,3.4-1.1,5.3-1.8s4-1.5,5.6-2.2c2.1,3.7,6.8,5,10.5,2.9s5-6.8,2.9-10.5
		c-1.6-2.9-5-4.4-8.2-3.8c-0.9-1.3-2-2.7-3.2-4.1c-1.8-2.3-3.6-4.4-5-6.1c0.7-0.9,1.2-1.9,1.6-2.9c1.4-4.4-0.8-9.1-4.8-10.3
		s-8.5,1.3-9.9,5.7S95.7,74.7,99.8,76z"/>
	<path class="st1" d="M329.3,289.3c-2.9,3.9-4.9,7.6-5.7,9.3c-0.2,0.5-0.7,0.7-1.2,0.7l-1.3,0c-3.1-0.1-4.4-3.9-2.2-5.9l4.7-4.3
		c1.3-1.2,2.9-1.8,4.6-1.8C329.3,287.3,329.9,288.5,329.3,289.3z M348.6,307.7c0-1-1.2-1.7-2-1c-4,2.9-7.7,4.9-9.3,5.7
		c-0.5,0.2-0.7,0.7-0.7,1.2l0,1.3c0.1,3.1,3.9,4.4,5.9,2.2l4.3-4.7C348,311,348.6,309.4,348.6,307.7L348.6,307.7z M321.6,308.5
		l1.6-1.6c0.5-0.5,0.5-1.3,0-1.8c-0.5-0.5-1.3-0.5-1.8,0l-1.6,1.6c-0.8,0.8-0.2,2.2,0.9,2.2C321,308.8,321.3,308.7,321.6,308.5
		L321.6,308.5z M329.3,316.2l1.6-1.6c0.5-0.5,0.5-1.3,0-1.8c-0.5-0.5-1.3-0.5-1.8,0l-1.6,1.6c-0.8,0.8-0.2,2.2,0.9,2.2
		C328.8,316.6,329.1,316.5,329.3,316.2L329.3,316.2z M322.6,315.1l5.6-5.6c0.5-0.5,0.5-1.3,0-1.8c-0.5-0.5-1.3-0.5-1.8,0l-5.6,5.6
		c-0.8,0.8-0.2,2.2,0.9,2.2C322.1,315.5,322.4,315.3,322.6,315.1L322.6,315.1z M349.1,302.8c-1.8,1.6-3.7,3-5.7,4.2
		c-0.4,0.3-1,0.2-1.4-0.1L329.1,294c-0.4-0.4-0.4-1-0.1-1.4c1.4-2.2,2.8-4,4.4-5.8c5.3-6.1,13.4-9,21.3-7.5l0.9,0.2
		c0.5,0.1,0.9,0.5,1,1l0.2,0.9C358.1,289,355.6,297.2,349.1,302.8z M347.9,288c-2.1-2.1-5.6-2.1-7.7,0c-2.1,2.1-2.1,5.6,0,7.7
		c2.1,2.1,5.6,2.1,7.7,0C350.1,293.6,350.1,290.1,347.9,288z M328.1,296.6c-0.5-0.5-1.4-0.4-1.8,0.3c-0.2,0.5-0.5,0.9-0.7,1.4
		c-0.8,1.6-0.5,3.5,0.8,4.7l6.5,6.5c0.8,0.8,1.8,1.2,2.9,1.2c1.1,0,1.8-0.4,3.2-1.1c0.7-0.4,0.8-1.3,0.3-1.8L328.1,296.6z"/>
</g>
<g id="freepik--mind-map--inject-1134">
	<path class="st4" d="M234.7,219.9c-0.1,0.2-0.2,0.4-0.4,0.6l-1.1,1.6c-1,1.4-2.4,3.4-4.2,5.9c-3.6,5-8.6,11.8-14.2,19.1
		c-5.7,7.4-11,14-15,18.6c-2,2.3-3.6,4.2-4.9,5.4l-1.4,1.4c-0.2,0.2-0.3,0.3-0.5,0.5c0.1-0.2,0.3-0.4,0.4-0.5l1.3-1.5
		c1.1-1.3,2.7-3.2,4.7-5.5c3.9-4.7,9.2-11.3,14.8-18.7c5.7-7.4,10.7-14.2,14.4-19.1l4.3-5.8c0.5-0.6,0.9-1.2,1.2-1.6
		C234.4,220.3,234.5,220.1,234.7,219.9z"/>
	<path class="st4" d="M262.3,104.5c0.1,0-0.5,5.2-1.4,11.6c-0.9,6.4-1.7,11.5-1.9,11.4c-0.1,0,0.5-5.2,1.4-11.6
		C261.4,109.5,262.2,104.5,262.3,104.5z"/>
	<path class="st4" d="M359.5,97.8c-0.2,0.2-0.4,0.4-0.7,0.6c-0.5,0.4-1.1,0.9-1.9,1.5l-7.1,5.6l-23.5,18.2l-23.5,18.1l-7.2,5.4
		l-1.9,1.5c-0.2,0.2-0.5,0.3-0.7,0.5c0.2-0.2,0.4-0.4,0.7-0.6l1.9-1.5l7.1-5.6l23.5-18.2l23.6-18.1l7.2-5.4l1.9-1.5
		C359.1,98.1,359.3,97.9,359.5,97.8z"/>
	<path class="st4" d="M406.5,161.2c0,0.1-23.8,2.1-53.1,4.4c-29.3,2.3-53.1,4-53.2,3.9c0-0.2,23.8-2.1,53.1-4.4
		C382.7,162.7,406.5,161.1,406.5,161.2z"/>
	<path class="st4" d="M340.8,219.1c-0.1,0.1-10.2-4.9-22.5-11.1c-12.4-6.3-22.3-11.4-22.3-11.6s10.1,4.8,22.5,11.1
		C330.9,213.9,340.9,219,340.8,219.1z"/>
	<path class="st4" d="M220.5,139c-0.2-0.2-0.3-0.4-0.5-0.6l-1.3-1.8c-1.2-1.5-2.8-3.8-4.9-6.5c-4.1-5.5-9.6-13.3-15.5-21.9
		c-5.9-8.6-11.2-16.5-15-22.3c-1.9-2.9-3.4-5.2-4.4-6.9c-0.5-0.8-0.9-1.4-1.2-1.9c-0.1-0.2-0.3-0.4-0.4-0.7c0.2,0.2,0.3,0.4,0.5,0.6
		l1.3,1.8c1.1,1.6,2.6,3.9,4.5,6.7c3.8,5.7,9.1,13.6,15.1,22.2c6,8.6,11.4,16.4,15.4,22l4.7,6.6l1.3,1.8
		C220.3,138.6,220.4,138.8,220.5,139z"/>
	<path class="st4" d="M207.7,157.2c-0.1,0.1-6.7-2.9-14.8-6.6c-8.1-3.7-14.6-6.9-14.6-7.1s6.7,2.8,14.8,6.6S207.7,157.1,207.7,157.2
		z"/>
	<path class="st4" d="M203.9,175.1c0,0.1-22.3-1.7-49.8-4.2s-49.7-4.5-49.7-4.7c0-0.1,22.3,1.7,49.8,4.2S203.9,174.9,203.9,175.1z"
		/>
	<path class="st4" d="M211.9,201.5c0.1,0.1-13.2,5.8-29.5,12.8c-16.4,6.9-29.7,12.4-29.7,12.3c-0.1-0.2,13.2-5.8,29.6-12.8
		C198.5,206.8,211.8,201.4,211.9,201.5z"/>
	<ellipse class="st4" cx="252.4" cy="175.1" rx="48.5" ry="48.1"/>
	<g class="st5">
		<ellipse class="st2" cx="252.4" cy="175.1" rx="48.5" ry="48.1"/>
	</g>
	<path class="st4" d="M268.7,162.8c-3.2-10.1-14-15.7-24.1-12.6c-10.2,3.1-15.8,13.9-12.7,23.9c2.2,7.1,8.4,12.2,15.8,13.2l1.4,4.6
		l16.1-5c0,0-0.7-2.6-1.4-4.9C269,177.1,270.9,169.7,268.7,162.8z"/>
	<path class="st6" d="M259.4,188.8l-0.1-0.2c0-0.2-0.1-0.4-0.1-0.7c-0.1-0.6-0.3-1.5-0.5-2.6s-0.4-2.6-0.5-4.2
		c-0.2-1.9-0.1-3.7,0.1-5.6c0.1-1.1,0.3-2.2,0.7-3.2c0.2-0.6,0.5-1.1,0.9-1.5c0.5-0.4,1.1-0.6,1.8-0.5c0.3,0.1,0.6,0.3,0.8,0.5
		c0.2,0.3,0.3,0.6,0.2,1c-0.1,0.7-0.5,1.2-1,1.7c-1.1,0.8-2.5,1.1-3.9,0.9c-1.4-0.2-2.7-1-3.6-2.2c-0.4-0.6-0.7-1.3-0.8-2.1
		c-0.1-0.8,0.5-1.6,1.3-1.8c0.4-0.1,0.8,0,1.1,0.4c0.3,0.3,0.5,0.7,0.5,1.1c0,0.8-0.3,1.6-0.7,2.2c-0.9,1.4-2.3,2.3-3.9,2.6
		c-1.6,0.2-3.3-0.3-4.4-1.5c-0.6-0.6-0.9-1.4-0.8-2.2c0-0.8,0.7-1.4,1.5-1.3c0.1,0,0.2,0,0.3,0c0.4,0.1,0.8,0.3,1,0.6
		c0.3,0.3,0.5,0.6,0.6,1c0.3,0.7,0.4,1.4,0.4,2.2c0,1.4-0.6,2.8-1.6,3.9c-1,1-2.3,1.6-3.6,1.7c-0.7,0.1-1.4,0-1.9-0.4
		c-0.6-0.4-0.9-1.1-0.7-1.7c0.1-0.3,0.4-0.5,0.7-0.7c0.3-0.1,0.6-0.2,1-0.1c0.6,0.1,1.1,0.4,1.5,0.9c0.8,0.8,1.4,1.7,2.1,2.5
		c2.6,3.2,4.6,5.9,6,7.8c0.7,1,1.2,1.7,1.5,2.2l0.4,0.6l0.1,0.2c-0.1-0.1-0.1-0.1-0.1-0.2l-0.4-0.6l-1.6-2.2c-1.4-1.9-3.4-4.6-6-7.8
		c-0.7-0.8-1.3-1.6-2.1-2.5c-0.4-0.4-0.9-0.7-1.4-0.8c-0.6-0.1-1.1,0.1-1.4,0.6c-0.2,0.6,0.1,1.2,0.6,1.5c0.6,0.3,1.2,0.4,1.8,0.3
		c1.3-0.1,2.6-0.7,3.5-1.6c1-1,1.5-2.3,1.6-3.7c0-0.7-0.1-1.4-0.4-2.1c-0.2-0.7-0.8-1.2-1.5-1.4c-0.3-0.1-0.7,0-1,0.2
		c-0.3,0.2-0.4,0.5-0.5,0.9c0,0.7,0.2,1.5,0.8,2c1.1,1.1,2.6,1.7,4.2,1.5c1.5-0.3,2.9-1.1,3.7-2.5c0.4-0.6,0.7-1.3,0.7-2.1
		c0-0.4-0.2-0.7-0.4-1c-0.2-0.3-0.6-0.4-0.9-0.3c-0.3,0.1-0.6,0.3-0.8,0.6c-0.2,0.3-0.3,0.6-0.3,1c0.1,0.7,0.3,1.4,0.7,1.9
		c1.6,2.3,4.7,2.9,7,1.4c0,0,0.1,0,0.1-0.1c0.5-0.4,0.8-0.9,1-1.5c0.1-0.6-0.3-1.2-0.9-1.3c-0.6-0.1-1.2,0-1.6,0.4
		c-0.4,0.4-0.7,0.9-0.9,1.4c-0.3,1-0.5,2.1-0.7,3.2c-0.2,1.8-0.3,3.7-0.1,5.6c0.1,1.6,0.3,3,0.5,4.2s0.3,2,0.4,2.6
		c0,0.3,0.1,0.5,0.1,0.7L259.4,188.8z"/>
	<path class="st6" d="M264.9,190.4l-13.8,4.3c-0.6,0.2-1.2-0.1-1.4-0.7l0,0c-0.2-0.6,0.1-1.2,0.7-1.3l13.8-4.3
		c0.6-0.2,1.2,0.1,1.4,0.7c0,0,0,0,0,0l0,0C265.8,189.6,265.5,190.2,264.9,190.4C264.9,190.4,264.9,190.4,264.9,190.4z"/>
	<path class="st6" d="M265.2,191.3l-13.8,4.3c-0.6,0.2-0.9,0.8-0.7,1.4c0.2,0.6,0.8,0.9,1.3,0.7c0,0,0,0,0,0l1.5-0.5l3.2,3.2
		c0.4,0.4,0.9,0.5,1.4,0.3l4.9-1.5c0.5-0.1,0.9-0.6,1-1.1l0.8-4.4l1-0.3c0.6-0.2,0.9-0.8,0.7-1.3c0,0,0,0,0,0
		C266.4,191.5,265.8,191.1,265.2,191.3C265.2,191.3,265.2,191.3,265.2,191.3z"/>
	<g class="st7">
		<path class="st2" d="M234.9,160.5c0.8-1.3,1.8-2.5,2.9-3.6c0.8-0.7,1.6-1.3,2.6-1.7c0.7-0.3,1.1-0.3,1.2-0.2
			c0.2,0.3-1.1,1.2-2.5,3.1c-4,4.7-4.9,11.3-2.3,16.9c1,2.1,1.9,3.4,1.6,3.6c-0.1,0.1-0.5,0-1.1-0.5c-0.8-0.7-1.5-1.4-2-2.3
			c-0.9-1.3-1.5-2.7-1.9-4.2c-0.5-1.8-0.6-3.8-0.4-5.7"/>
	</g>
	<g class="st7">
		<path class="st2" d="M246.2,154.5c-1.2,0.4-2.3,0.4-2.6-0.2c-0.1-0.3,0-0.7,0.3-1.1c0.4-0.5,1-0.8,1.6-1c0.6-0.2,1.3-0.2,1.9-0.1
			c0.5,0.1,0.8,0.4,0.9,0.7"/>
	</g>
	<path class="st8" d="M263.9,198.5c0,0-0.4,0-1,0c-0.8,0-1.7,0.2-2.4,0.4c-0.8,0.3-1.5,0.7-2.2,1.1c-0.3,0.2-0.5,0.4-0.8,0.6
		c0.2-0.3,0.4-0.6,0.7-0.8c0.7-0.5,1.4-1,2.2-1.2c0.8-0.3,1.7-0.4,2.5-0.4C263.2,198.3,263.6,198.4,263.9,198.5z"/>
	<path class="st8" d="M264.9,193.7c0,0.1-2.5,0.9-5.6,1.8c-3.1,1-5.6,1.7-5.6,1.6c0-0.1,2.5-0.9,5.6-1.8
		C262.3,194.4,264.9,193.7,264.9,193.7z"/>
	<path class="st8" d="M264.5,195.6c-0.4,0.2-0.9,0.4-1.3,0.6c-0.8,0.3-1.9,0.7-3.3,1.1c-1.3,0.4-2.5,0.8-3.3,1
		c-0.5,0.1-0.9,0.3-1.4,0.3c0.4-0.2,0.9-0.4,1.3-0.5l3.3-1.1l3.3-1.1C263.6,195.8,264.1,195.7,264.5,195.6z"/>
	<path class="st4" d="M187.7,57.8c0-0.1,0-0.3,0-0.4c0-0.3,0-0.7-0.1-1.1l-0.1-0.8c0-0.3-0.1-0.6-0.2-1c-0.1-0.8-0.3-1.6-0.5-2.4
		c-0.6-2.2-1.5-4.3-2.6-6.2c-5.8-9.7-17.7-13.8-28.4-10c-1.1,0.4-2.1,0.8-3.1,1.3c-1,0.5-2,1.2-2.9,1.8c-0.9,0.7-1.8,1.4-2.7,2.3
		c-0.8,0.8-1.6,1.7-2.3,2.7c-1.5,2-2.6,4.1-3.4,6.4c-1.6,4.8-1.6,10,0,14.8c0.8,2.3,1.9,4.5,3.4,6.4c0.7,0.9,1.5,1.9,2.3,2.7
		c0.8,0.8,1.7,1.6,2.7,2.3c0.9,0.7,1.9,1.3,2.9,1.8c1,0.5,2,1,3.1,1.3c4,1.4,8.2,1.8,12.4,1c6.7-1.2,12.5-5.3,16-11
		c1.2-1.9,2.1-4.1,2.6-6.3c0.2-0.8,0.4-1.6,0.5-2.4c0.1-0.4,0.1-0.7,0.2-1l0-0.8c0-0.5,0.1-0.8,0.1-1.1
		C187.6,58.1,187.6,58,187.7,57.8c-0.1,0-0.1,0.2-0.1,0.4c0,0.3,0,0.7,0,1.1c0,0.3,0,0.5,0,0.8c0,0.3-0.1,0.6-0.1,1
		c-0.1,0.8-0.2,1.6-0.5,2.5c-0.5,2.2-1.4,4.4-2.6,6.4c-3.5,5.9-9.4,10-16.1,11.3c-4.2,0.8-8.6,0.5-12.6-1c-1.1-0.4-2.1-0.8-3.1-1.4
		c-1-0.6-2-1.2-2.9-1.9c-1-0.7-1.9-1.5-2.7-2.3c-0.9-0.9-1.6-1.8-2.4-2.8c-1.5-2-2.7-4.2-3.4-6.6c-1.7-4.9-1.7-10.2,0-15.1
		c0.8-2.4,1.9-4.6,3.4-6.6c0.7-1,1.5-1.9,2.4-2.8c0.9-0.8,1.8-1.6,2.7-2.3c0.9-0.7,1.9-1.3,2.9-1.9c1-0.5,2.1-1,3.1-1.4
		c10.8-3.9,22.9,0.4,28.8,10.3c1.2,2,2.1,4.1,2.6,6.3c0.2,0.8,0.4,1.6,0.5,2.5c0,0.4,0.1,0.7,0.1,1c0,0.3,0,0.6,0,0.8
		c0,0.5,0,0.8,0,1.1C187.7,57.5,187.7,57.7,187.7,57.8z"/>
	<path class="st6" d="M169,55.3c0-0.6-0.1-1.2-0.3-1.8c-0.2-0.7-0.5-1.3-0.8-1.9c-0.5-0.8-1.1-1.5-1.9-2.1c-2-1.5-4.6-1.9-7-1.1
		c-0.7,0.2-1.3,0.5-1.9,1c-0.3,0.2-0.6,0.5-0.8,0.7c-0.3,0.3-0.5,0.5-0.7,0.8c-1.9,2.6-1.9,6.1,0,8.7c0.2,0.3,0.5,0.6,0.7,0.8
		c0.3,0.3,0.5,0.5,0.8,0.7c0.6,0.4,1.2,0.7,1.9,1c3.3,1.2,7-0.1,8.9-3.1c0.4-0.6,0.7-1.2,0.8-1.9C168.9,56.5,169,55.9,169,55.3
		l0,0.1c0,0.1,0,0.2,0,0.4c0,0.2,0,0.4,0,0.6c0,0.3-0.1,0.5-0.1,0.8c-0.2,0.7-0.4,1.4-0.8,2c-1.1,1.8-2.9,3.1-5.1,3.6
		c-1.3,0.2-2.7,0.1-4-0.3c-0.7-0.2-1.4-0.6-1.9-1c-0.3-0.2-0.6-0.5-0.9-0.7c-0.3-0.3-0.5-0.6-0.7-0.9c-2-2.6-2-6.2,0-8.9
		c0.2-0.3,0.5-0.6,0.7-0.9c0.3-0.3,0.6-0.5,0.9-0.7c0.6-0.4,1.2-0.8,1.9-1c1.3-0.5,2.6-0.6,4-0.3c2.1,0.4,4,1.7,5.1,3.6
		c0.4,0.6,0.6,1.3,0.8,2c0.1,0.3,0.1,0.5,0.1,0.8c0,0.2,0,0.4,0,0.6c0,0.1,0,0.3,0,0.4L169,55.3z"/>
	<path class="st6" d="M166.6,60.7c0,0,1.7,1.5,3.6,3.4s3.5,3.6,3.5,3.6c0,0-1.7-1.5-3.6-3.4C168.2,62.4,166.6,60.8,166.6,60.7z"/>
	<ellipse class="st2" cx="72.6" cy="162.4" rx="31.9" ry="31.6"/>
	<path class="st4" d="M104.4,162.4c0,0,0-0.2,0-0.5c0-0.3-0.1-0.9-0.1-1.5c0-0.3,0-0.7-0.1-1.1c-0.1-0.4-0.1-0.8-0.2-1.3
		c-0.1-1.1-0.4-2.2-0.7-3.3c-0.7-3-1.9-5.8-3.5-8.4c-4.7-7.7-12.5-13.1-21.4-14.8c-1.3-0.2-2.7-0.4-4-0.5c-0.7,0-1.4-0.1-2.1-0.1
		l-2.1,0.1c-0.3,0-0.7,0-1.1,0.1l-1,0.2c-0.7,0.1-1.4,0.2-2.1,0.3c-2.9,0.7-5.7,1.7-8.3,3c-0.7,0.4-1.3,0.8-1.9,1.2
		c-0.7,0.4-1.3,0.8-1.9,1.3c-1.3,0.9-2.5,1.9-3.6,3c-1.1,1.1-2.1,2.4-3.1,3.6c-2,2.6-3.5,5.6-4.5,8.7c-2.2,6.4-2.2,13.4,0,19.8
		c1,3.1,2.6,6,4.5,8.7c0.9,1.3,2,2.5,3.1,3.6c1.1,1.1,2.3,2.1,3.6,3c0.6,0.5,1.3,0.9,1.9,1.3c0.7,0.4,1.3,0.8,1.9,1.2
		c1.3,0.7,2.7,1.3,4.1,1.8c1.4,0.5,2.8,0.9,4.2,1.2c0.7,0.1,1.4,0.2,2.1,0.3l1,0.2c0.4,0,0.7,0,1.1,0.1l2.1,0.1c0.7,0,1.4,0,2.1-0.1
		c1.3-0.1,2.7-0.2,4-0.5c8.9-1.7,16.7-7,21.4-14.8c1.6-2.6,2.8-5.4,3.5-8.4c0.3-1.1,0.5-2.2,0.7-3.3c0.1-0.5,0.2-0.9,0.2-1.3
		c0-0.4,0-0.8,0.1-1.1c0-0.6,0.1-1.1,0.1-1.5C104.5,162.6,104.4,162.5,104.4,162.4c0,0,0,0.2,0,0.6c0,0.3,0,0.9,0,1.5
		c0,0.3,0,0.7,0,1.1c0,0.4-0.1,0.8-0.2,1.3c-0.1,1.1-0.3,2.2-0.6,3.3c-0.7,3-1.9,5.8-3.5,8.5c-4.7,7.9-12.6,13.3-21.7,15
		c-1.3,0.3-2.7,0.4-4.1,0.5c-0.7,0-1.4,0.1-2.1,0.1l-2.1-0.1c-0.4,0-0.7,0-1.1-0.1l-1.1-0.2c-0.7-0.1-1.4-0.2-2.2-0.3
		c-1.5-0.3-2.9-0.7-4.3-1.2c-1.4-0.5-2.8-1.1-4.1-1.8c-0.7-0.4-1.3-0.8-2-1.2c-0.7-0.4-1.3-0.8-1.9-1.3c-1.3-0.9-2.5-2-3.6-3.1
		c-1.1-1.2-2.2-2.4-3.2-3.7c-2-2.7-3.6-5.6-4.6-8.8c-2.2-6.5-2.2-13.6,0-20.1c1-3.2,2.6-6.1,4.6-8.8c1-1.3,2-2.6,3.1-3.7
		c1.1-1.1,2.4-2.1,3.6-3.1c0.6-0.5,1.3-0.9,1.9-1.3c0.7-0.4,1.3-0.8,2-1.2c1.4-0.7,2.8-1.3,4.2-1.8c1.4-0.5,2.8-0.9,4.3-1.2
		c0.7-0.1,1.4-0.2,2.2-0.3l1.1-0.2c0.4,0,0.7,0,1.1-0.1l2.1-0.1c0.7,0,1.4,0.1,2.1,0.1c1.4,0.1,2.7,0.2,4.1,0.5
		c9,1.7,16.9,7.2,21.6,15c1.6,2.6,2.8,5.5,3.5,8.5c0.3,1.1,0.5,2.2,0.6,3.3c0.1,0.5,0.1,1,0.2,1.3s0,0.8,0,1.1c0,0.6,0,1.1,0,1.5
		S104.4,162.4,104.4,162.4z"/>
	<path class="st0" d="M66,147.7c8.6-3.7,18.6,0.3,22.3,8.9c3.7,8.6-0.3,18.5-8.9,22.1s-18.6-0.3-22.3-8.9
		C53.3,161.3,57.4,151.4,66,147.7z"/>
	<path class="st6" d="M89.7,163.2c0,0,0-0.4-0.1-1.1c0-0.4-0.1-0.9-0.1-1.3c-0.1-0.6-0.2-1.2-0.4-1.7c-0.4-1.6-1-3.1-1.9-4.5
		c-2.5-4.1-6.7-7-11.4-7.9c-3-0.5-6-0.3-8.9,0.7c-1.5,0.5-3,1.3-4.3,2.3c-1.4,1-2.6,2.2-3.6,3.6c-4.4,5.9-4.4,13.9,0,19.8
		c0.5,0.7,1.1,1.3,1.7,1.9c0.6,0.6,1.3,1.1,1.9,1.6c1.3,1,2.7,1.7,4.3,2.3c7.6,2.7,16.1-0.3,20.3-7.2c0.9-1.4,1.5-2.9,1.9-4.5
		c0.2-0.6,0.3-1.1,0.4-1.7c0.1-0.4,0.1-0.9,0.1-1.3C89.7,163.6,89.7,163.2,89.7,163.2c0,0,0,0.3,0,1.1c0,0.4,0,0.9-0.1,1.3
		c-0.1,0.6-0.2,1.2-0.3,1.7c-0.4,1.6-1,3.1-1.9,4.5c-2.5,4.2-6.7,7.1-11.5,8c-3,0.6-6.1,0.3-9-0.7c-1.6-0.5-3-1.3-4.3-2.3
		c-0.7-0.5-1.3-1-1.9-1.6c-0.6-0.6-1.2-1.2-1.7-1.9c-4.4-6-4.4-14.1,0-20c0.5-0.7,1.1-1.3,1.7-1.9c0.6-0.6,1.3-1.1,1.9-1.6
		c1.3-1,2.8-1.8,4.3-2.3c2.9-1,6-1.3,9-0.7c4.8,0.9,9,3.8,11.5,8c0.8,1.4,1.4,2.9,1.8,4.5c0.2,0.6,0.3,1.2,0.3,1.8
		c0.1,0.4,0.1,0.9,0.1,1.3C89.6,162.8,89.7,163.2,89.7,163.2z"/>
	<path class="st9" d="M72.7,152.2c-6.1,0-11.1,4.9-11.1,11c0,6.1,5,11,11.1,11c6.1,0,11.1-4.9,11.1-11
		C83.8,157.1,78.8,152.2,72.7,152.2z"/>
	<path class="st4" d="M72.7,152.2c0.9-0.1,1.8,0,2.7,0.3c2.5,0.6,4.7,2,6.2,4c2.4,3,3,7,1.7,10.6c-0.7,2.1-2.1,3.9-3.9,5.2
		c-4,2.9-9.4,2.9-13.4,0c-0.9-0.7-1.7-1.5-2.4-2.4c-0.7-0.9-1.2-1.9-1.5-2.9c-2.1-5.8,0.9-12.1,6.7-14.2c0.4-0.1,0.8-0.3,1.2-0.4
		C70.9,152.2,71.8,152.1,72.7,152.2c-0.9,0-1.8,0.2-2.6,0.4c-4.1,1.1-7.2,4.4-8,8.6c-0.3,1.9-0.2,3.9,0.5,5.7c0.4,1,0.9,1.9,1.5,2.7
		c0.6,0.9,1.4,1.7,2.2,2.3c3.8,2.8,9,2.8,12.8,0c0.9-0.6,1.7-1.4,2.3-2.3c0.6-0.8,1.1-1.7,1.5-2.7c1.3-3.4,0.7-7.3-1.5-10.2
		c-1.5-2-3.6-3.4-6-4C74.4,152.4,73.6,152.3,72.7,152.2z"/>
	<path class="st9" d="M72.7,159.7c-1.9,0-3.5,1.6-3.5,3.5c0,1.9,1.6,3.5,3.5,3.5c1.9,0,3.5-1.6,3.5-3.5S74.6,159.7,72.7,159.7
		L72.7,159.7z"/>
	<path class="st4" d="M72.7,159.7c0.3-0.1,0.6-0.1,0.9,0c0.8,0.2,1.5,0.6,2.1,1.3c0.8,1,1,2.3,0.6,3.5c-0.7,1.9-2.8,2.9-4.8,2.2
		c-1.1-0.4-1.9-1.2-2.3-2.2c-0.4-1.2-0.2-2.5,0.6-3.5c0.5-0.6,1.2-1.1,2.1-1.3C72.1,159.6,72.4,159.6,72.7,159.7c0,0-0.3,0-0.8,0.2
		c-0.7,0.2-1.4,0.7-1.8,1.3c-1.1,1.5-0.8,3.5,0.7,4.6c1.5,1.1,3.5,0.8,4.6-0.7c0.9-1.2,0.9-2.7,0-3.9c-0.5-0.6-1.1-1.1-1.8-1.3
		C73,159.8,72.7,159.8,72.7,159.7z"/>
	<path class="st0" d="M54.6,175.4c5.9-4.1,12.2-8.1,18.1-12.1"/>
	<path class="st6" d="M72.7,163.2c0,0-4,2.8-9,6.2c-5,3.4-9.1,6-9.1,6s4-2.8,9-6.2C68.6,165.8,72.6,163.2,72.7,163.2z"/>
	<path class="st6" d="M56.5,174.2c-0.7,0.1-1.4,0.1-2.1,0c-0.7,0-1.4,0-2.1-0.2c0.7-0.1,1.4-0.1,2.1,0
		C55.1,174,55.8,174.1,56.5,174.2z"/>
	<path class="st6" d="M55.8,176.9c0-0.5,0.1-1,0.2-1.4c0.1-0.5,0.2-0.9,0.4-1.4c0,0.5-0.1,1-0.2,1.4C56.2,176,56,176.5,55.8,176.9z"
		/>
	<path class="st6" d="M56.9,176.6c0-0.5,0.1-1,0.2-1.5c0.1-0.5,0.2-1,0.4-1.5c0,0.5,0,1-0.2,1.5C57.2,175.6,57,176.1,56.9,176.6z"/>
	<path class="st6" d="M54.4,173c0.5,0,1,0.1,1.5,0.2c0.5,0.1,1,0.2,1.4,0.4c-0.5,0-1-0.1-1.5-0.2C55.4,173.3,54.9,173.2,54.4,173z"
		/>
	<path class="st2" d="M157.6,114.5c9.4-3.8,20.2,0.7,24.1,10c3.9,9.4-0.7,20.1-10.1,23.9c-9.4,3.8-20.2-0.7-24.1-10
		C143.6,129,148.1,118.3,157.6,114.5z"/>
	<path class="st4" d="M183,131.5c0-0.1,0-0.2,0-0.3c0-0.2,0-0.5-0.1-0.9c0-0.5-0.1-0.9-0.2-1.4c-0.1-0.7-0.2-1.3-0.4-1.9
		c-0.4-1.7-1.1-3.3-2.1-4.8c-4.5-7.5-13.7-10.7-22-7.7c-1.7,0.6-3.2,1.4-4.6,2.5c-0.7,0.5-1.5,1.1-2.1,1.7c-0.6,0.7-1.2,1.4-1.8,2.1
		c-4.7,6.4-4.7,15,0,21.4c0.5,0.7,1.1,1.4,1.8,2.1c0.6,0.6,1.3,1.2,2.1,1.7c1.4,1.1,3,1.9,4.6,2.5c8.2,3,17.4-0.3,22-7.7
		c0.9-1.5,1.6-3.1,2.1-4.8c0.2-0.6,0.3-1.3,0.4-1.9c0.1-0.5,0.2-0.9,0.2-1.4c0-0.4,0.1-0.6,0.1-0.9C183,131.7,183,131.6,183,131.5
		c0,0.1,0,0.2-0.1,0.3c0,0.2,0,0.5,0,0.9c0,0.5,0,0.9-0.1,1.4c-0.1,0.6-0.2,1.3-0.4,1.9c-0.4,1.7-1.1,3.4-2,4.9
		c-2.7,4.6-7.3,7.8-12.5,8.8c-3.3,0.6-6.7,0.4-9.8-0.8c-1.7-0.6-3.3-1.4-4.7-2.5c-0.8-0.5-1.5-1.1-2.1-1.8c-0.7-0.7-1.3-1.4-1.8-2.2
		c-4.9-6.5-4.9-15.4,0-21.9c0.6-0.8,1.2-1.5,1.8-2.2c0.7-0.6,1.4-1.2,2.1-1.8c1.4-1.1,3-1.9,4.7-2.5c3.1-1.1,6.5-1.4,9.8-0.8
		c5.3,1,9.8,4.2,12.5,8.8c0.9,1.5,1.6,3.2,2,4.9c0.2,0.6,0.3,1.3,0.4,1.9c0.1,0.5,0.1,0.9,0.1,1.4c0,0.4,0,0.6,0,0.9
		C183,131.3,183,131.4,183,131.5z"/>
	<path class="st0" d="M166.1,131.8c1.6-0.7,2.6-2.3,2.6-4c0.2-2.2-1.5-4.1-3.8-4.3c-2.2-0.2-4.2,1.5-4.3,3.7c0,0.2,0,0.4,0,0.6
		c0,1.7,1,3.3,2.6,4c-6.2,1-5.9,7.6-5.9,7.6l14.7,0.1C171.9,139.5,172.2,132.7,166.1,131.8z"/>
	<path class="st6" d="M166.1,131.8c1,0.1,1.9,0.5,2.7,1c1,0.6,1.7,1.5,2.2,2.5c0.7,1.3,1,2.8,1,4.3v0.1h-0.1h-14.7h-0.1v-0.1
		c0-1.4,0.3-2.8,0.9-4.1c0.5-1,1.2-1.9,2.1-2.5c0.9-0.6,1.9-1,3-1.1v0.2c-1.5-0.7-2.6-2.2-2.6-3.9c-0.1-1.5,0.6-3,1.9-3.9
		c1.1-0.8,2.6-1,3.9-0.4c1.1,0.5,1.9,1.4,2.3,2.5c0.3,0.9,0.4,1.8,0.1,2.8c-0.2,0.7-0.5,1.3-1,1.8c-0.3,0.3-0.7,0.6-1,0.8
		c-0.1,0.1-0.3,0.1-0.4,0.2c0.5-0.3,1-0.6,1.4-1c0.5-0.5,0.8-1.1,1-1.8c0.2-0.9,0.2-1.8-0.1-2.7c-0.4-1.1-1.2-1.9-2.2-2.4
		c-1.2-0.5-2.6-0.4-3.7,0.4c-1.2,0.9-1.8,2.3-1.8,3.7c0.1,1.6,1,3,2.5,3.7l0.3,0.1l-0.3,0.1c-1,0.2-2,0.5-2.9,1.1
		c-0.9,0.6-1.6,1.4-2.1,2.4c-0.6,1.3-0.9,2.6-0.9,4l-0.1-0.1l14.7,0.1l-0.1,0.1c0-1.5-0.3-2.9-0.9-4.2c-0.5-1-1.2-1.8-2.2-2.5
		c-0.3-0.2-0.7-0.4-1.1-0.5c-0.3-0.1-0.6-0.2-0.9-0.3L166.1,131.8z"/>
	<path class="st2" d="M90.7,232.3c2.7-17.5,19.1-29.5,36.7-26.8c17.6,2.6,29.7,18.9,27,36.4c-2.7,17.5-19.1,29.5-36.7,26.8
		S88.1,249.8,90.7,232.3z"/>
	<path class="st4" d="M154.8,238.2c0,0,0-0.2,0-0.5c0-0.3-0.1-0.9-0.1-1.5c0-0.3,0-0.7-0.1-1.1c-0.1-0.4-0.1-0.8-0.2-1.3
		c-0.1-1.1-0.4-2.2-0.7-3.3c-0.8-3-2-5.8-3.6-8.5c-2.1-3.5-4.9-6.6-8.2-9c-4-3-8.6-5-13.5-5.9c-1.3-0.2-2.7-0.4-4-0.5
		c-0.7,0-1.4-0.1-2.1-0.1l-2.1,0.1c-0.4,0-0.7,0-1.1,0.1l-1.1,0.2c-0.7,0.1-1.4,0.2-2.2,0.3c-1.4,0.3-2.9,0.7-4.3,1.2
		c-1.4,0.5-2.8,1.1-4.2,1.8c-0.7,0.4-1.3,0.8-1.9,1.2c-0.7,0.4-1.3,0.8-1.9,1.3c-1.3,0.9-2.5,2-3.6,3.1c-1.1,1.2-2.2,2.4-3.1,3.7
		c-2,2.6-3.5,5.6-4.6,8.7c-2.2,6.5-2.2,13.5,0,20c1,3.1,2.6,6.1,4.6,8.7c1.9,2.6,4.2,4.9,6.8,6.7c0.6,0.5,1.3,0.9,1.9,1.3
		c0.7,0.4,1.3,0.8,1.9,1.2c1.3,0.7,2.7,1.3,4.2,1.8c1.4,0.5,2.8,0.9,4.3,1.2c0.7,0.2,1.4,0.2,2.2,0.3l1.1,0.2c0.3,0,0.7,0,1.1,0.1
		l2.1,0.1c0.7,0,1.4-0.1,2.1-0.1c1.4-0.1,2.7-0.2,4-0.5c9-1.7,16.9-7.1,21.6-14.9c1.6-2.6,2.8-5.5,3.6-8.5c0.3-1.1,0.5-2.2,0.7-3.3
		c0.1-0.5,0.2-1,0.2-1.3c0-0.4,0-0.8,0.1-1.1c0-0.6,0.1-1.2,0.1-1.5C154.8,238.3,154.8,238.2,154.8,238.2c0,0,0,0.2,0,0.5
		c0,0.3,0,0.9,0,1.5c0,0.3,0,0.7,0,1.1c0,0.4-0.1,0.9-0.2,1.3c-0.1,1.1-0.3,2.2-0.6,3.3c-0.7,3-1.9,5.9-3.5,8.6
		c-4.7,7.9-12.7,13.5-21.8,15.2c-1.4,0.3-2.7,0.4-4.1,0.5c-0.7,0-1.4,0.1-2.1,0.1l-2.1-0.1c-0.4,0-0.7,0-1.1-0.1l-1.1-0.2
		c-0.7-0.1-1.5-0.2-2.2-0.3c-1.5-0.3-2.9-0.7-4.3-1.3c-1.5-0.5-2.9-1.1-4.2-1.8c-0.7-0.4-1.3-0.8-2-1.2c-0.7-0.4-1.3-0.8-1.9-1.3
		c-2.6-1.9-5-4.2-6.9-6.8c-2-2.7-3.6-5.7-4.6-8.9c-2.2-6.6-2.2-13.7,0-20.3c1.1-3.2,2.6-6.2,4.6-8.9c1-1.3,2-2.6,3.2-3.7
		c1.2-1.1,2.4-2.1,3.7-3.1c0.6-0.5,1.3-0.9,1.9-1.3c0.7-0.4,1.3-0.8,2-1.2c2.7-1.4,5.6-2.4,8.6-3.1c0.7-0.1,1.5-0.2,2.2-0.3l1.1-0.2
		c0.4,0,0.7,0,1.1-0.1l2.1-0.1c0.7,0,1.4,0.1,2.1,0.1c1.4,0.1,2.7,0.2,4.1,0.5c9.1,1.7,17.1,7.3,21.8,15.2c1.6,2.7,2.8,5.5,3.5,8.6
		c0.3,1.1,0.5,2.2,0.6,3.3c0.1,0.5,0.1,1,0.2,1.3c0,0.4,0,0.8,0,1.1c0,0.6,0,1.2,0,1.5C154.9,238,154.8,238.2,154.8,238.2z"/>
	<path class="st0" d="M111.1,225.3c7-6.2,17.9-5.7,24.2,1.3c6.3,7,5.7,17.7-1.3,24c-7,6.2-17.9,5.7-24.2-1.3
		C103.5,242.3,104.1,231.6,111.1,225.3z"/>
	<path class="st6" d="M105.5,236.9c0,0.1,0,0.2,0,0.3v1.4c0,0.2,0,0.5,0.1,0.7c0,0.6,0.1,1.2,0.3,1.8c0.3,1.6,0.8,3.1,1.6,4.6
		c3.7,7.2,12,10.7,19.8,8.5c0.8-0.2,1.5-0.5,2.3-0.8c0.7-0.3,1.5-0.7,2.2-1.2c0.7-0.4,1.4-0.9,2-1.5c0.6-0.6,1.2-1.2,1.8-1.8
		c1.1-1.3,2.1-2.8,2.7-4.5c0.7-1.7,1.1-3.4,1.2-5.2c0.1-1.8-0.1-3.6-0.5-5.3c-0.4-1.7-1.1-3.3-2.1-4.8c-0.9-1.4-2-2.7-3.3-3.8
		c-0.6-0.5-1.3-1-1.9-1.5c-0.7-0.4-1.4-0.8-2.2-1.1c-7.4-3.2-16.1-0.8-20.8,5.8c-0.9,1.3-1.7,2.8-2.2,4.4c-0.2,0.6-0.4,1.1-0.5,1.7
		c-0.1,0.3-0.1,0.5-0.2,0.7c0,0.2,0,0.4-0.1,0.6l-0.1,0.8C105.5,236.7,105.5,236.8,105.5,236.9c0-0.1,0-0.2,0-0.3
		c0-0.2,0-0.5,0.1-0.8l0.1-0.6c0-0.2,0.1-0.5,0.1-0.7c0.1-0.6,0.3-1.2,0.4-1.7c0.5-1.6,1.2-3.1,2.2-4.4c2.8-4.1,7.2-6.7,12.1-7.3
		c3.1-0.4,6.2,0.1,9,1.3c0.8,0.3,1.5,0.7,2.2,1.1c0.7,0.4,1.4,0.9,2,1.5c1.3,1.1,2.5,2.4,3.4,3.9c1,1.5,1.7,3.1,2.2,4.9
		c0.5,1.8,0.6,3.6,0.5,5.5c-0.1,1.8-0.6,3.6-1.3,5.4c-0.7,1.7-1.6,3.2-2.8,4.6c-0.6,0.7-1.2,1.3-1.8,1.9c-0.7,0.5-1.3,1.1-2.1,1.5
		c-0.7,0.4-1.4,0.9-2.2,1.2c-3.6,1.6-7.6,1.9-11.4,1c-4.8-1.2-8.8-4.5-11-8.8c-0.8-1.5-1.3-3-1.6-4.7c-0.1-0.6-0.2-1.2-0.2-1.8
		c0-0.3,0-0.5,0-0.7c0-0.2,0-0.4,0-0.6v-0.8C105.4,237.1,105.4,237,105.5,236.9z"/>
	<path class="st6" d="M130.3,238.5h-0.6H128c-1.4,0-3.4,0-5.6,0h-0.1v-1.2c0-2.5,0-4.7,0-6.3c0-0.8,0-1.4,0-1.9c0-0.2,0-0.5,0-0.7
		c0,0.2,0,0.5,0,0.7c0,0.5,0,1.1,0,1.9c0,1.6,0,3.9,0,6.3v1.1l-0.1-0.1h5.6h1.7C129.7,238.3,130,238.4,130.3,238.5z"/>
	<path class="st6" d="M122.5,223.8c0.1,1,0.1,1.9,0,2.9C122.3,225.8,122.3,224.8,122.5,223.8z"/>
	<path class="st6" d="M130.3,226.1c-0.6,0.8-1.2,1.4-2,2C128.8,227.3,129.5,226.7,130.3,226.1z"/>
	<path class="st6" d="M134.8,231.1c-0.4,0.3-0.8,0.6-1.2,0.8c-0.4,0.3-0.8,0.5-1.2,0.7c0.3-0.4,0.7-0.6,1.1-0.9
		C133.9,231.4,134.4,231.2,134.8,231.1z"/>
	<path class="st6" d="M137.5,238.4c-1.3,0.2-2.6,0.2-3.9,0C134.9,238.2,136.2,238.2,137.5,238.4z"/>
	<path class="st6" d="M110.3,238.1c-1.2,0.2-2.5,0.2-3.7,0C107.9,238,109.1,238,110.3,238.1z"/>
	<path class="st6" d="M112.3,243.6c-0.4,0.5-0.9,0.9-1.4,1.2c-0.5,0.4-1,0.8-1.5,1.1c0.4-0.5,0.9-0.9,1.4-1.3
		C111.2,244.2,111.7,243.9,112.3,243.6z"/>
	<path class="st6" d="M117,247.8c-0.3,0.6-0.6,1.1-1,1.6c-0.3,0.6-0.6,1.1-1,1.6c0.2-0.6,0.5-1.2,0.8-1.7
		C116.2,248.8,116.5,248.2,117,247.8z"/>
	<path class="st6" d="M122.5,253.2c-0.2-1.3-0.2-2.6,0-3.9C122.6,250.7,122.6,252,122.5,253.2z"/>
	<path class="st6" d="M130.9,250.6c-1.2-0.6-2.2-1.5-2.9-2.5c0.5,0.4,1,0.8,1.5,1.3C130,249.8,130.5,250.2,130.9,250.6z"/>
	<path class="st6" d="M134.9,246.4c-0.5-0.3-0.9-0.7-1.3-1.1c-0.4-0.4-0.8-0.8-1.1-1.3c0.5,0.3,0.9,0.7,1.3,1.1
		C134.2,245.5,134.6,245.9,134.9,246.4z"/>
	<path class="st6" d="M112.1,232.9c-0.4-0.3-0.8-0.6-1.1-1c-0.4-0.3-0.7-0.7-1-1.1c0.4,0.3,0.8,0.6,1.1,1
		C111.5,232.1,111.8,232.5,112.1,232.9z"/>
	<path class="st6" d="M117,227.8c-0.4-0.3-0.8-0.6-1.1-1c-0.4-0.3-0.7-0.7-1-1.1c0.4,0.3,0.8,0.6,1.1,1
		C116.4,227,116.7,227.4,117,227.8z"/>
	<path class="st4" d="M199.6,285c-0.1-1.2-0.3-2.3-0.6-3.5c-0.3-1.3-0.9-2.6-1.6-3.8c-3.5-5.8-10.8-8.4-17.2-6
		c-1.3,0.5-2.5,1.1-3.6,1.9c-1.2,0.8-2.2,1.9-3,3c-3.7,5-3.7,11.8,0,16.7c0.8,1.2,1.8,2.2,3,3c1.1,0.8,2.3,1.5,3.6,1.9
		c2.4,0.9,5,1.1,7.5,0.6c4-0.7,7.6-3.2,9.7-6.7c0.7-1.2,1.3-2.4,1.6-3.8C199.3,287.4,199.5,286.2,199.6,285c0,0.1,0,0.1,0,0.2
		c0,0.2,0,0.4,0,0.7c0,0.4,0,0.7-0.1,1.1c-0.1,0.5-0.1,1-0.3,1.5c-0.3,1.4-0.9,2.7-1.6,3.9c-2.1,3.6-5.7,6.1-9.9,6.9
		c-2.6,0.5-5.3,0.3-7.8-0.6c-2.7-1-5.1-2.8-6.9-5.1c-3.9-5.1-3.9-12.2,0-17.3c1.7-2.3,4.1-4.1,6.9-5.1c2.5-0.9,5.2-1.1,7.8-0.6
		c4.1,0.8,7.7,3.3,9.9,6.9c0.7,1.2,1.2,2.5,1.6,3.9c0.1,0.5,0.2,1,0.3,1.5c0.1,0.4,0.1,0.7,0.1,1.1c0,0.3,0,0.5,0,0.7
		C199.6,284.8,199.6,284.9,199.6,285z"/>
	<path class="st0" d="M187.9,288.4c-0.8,0-1.5,0.4-1.9,1.1c-0.5-0.4-1.2-0.9-1.9-1.3l-1.1-0.8c0.8-0.8,1-2,0.3-3
		c0.4-0.3,1-0.7,1.4-1.1c0.5-0.4,0.9-0.7,1.3-1c0.7,1.1,2.2,1.3,3.3,0.6c1.1-0.7,1.4-2.2,0.6-3.2c-0.7-1.1-2.2-1.3-3.3-0.6
		c-0.6,0.4-1,1.2-1,1.9c0,0.3,0.1,0.5,0.1,0.8c-0.4,0.3-0.9,0.6-1.4,1c-0.5,0.4-1,0.8-1.4,1.1c-1-0.9-2.5-0.8-3.3,0.1
		c-0.9,1-0.8,2.4,0.1,3.3c0.4,0.4,1,0.6,1.6,0.6c0.4,0,0.8-0.1,1.1-0.3l1.3,0.9c0.7,0.5,1.4,1,2,1.3c-0.1,0.3-0.2,0.6-0.2,1
		c0.1,1.3,1.3,2.2,2.6,2.1c1.3-0.1,2.3-1.2,2.2-2.5C190.1,289.3,189.1,288.4,187.9,288.4L187.9,288.4z"/>
	<path class="st6" d="M187.9,288.4c0.3,0,0.6,0,0.9,0.2c0.8,0.4,1.4,1.1,1.5,1.9c0.1,0.6,0,1.2-0.3,1.8c-0.4,0.7-1,1.1-1.7,1.2
		c-0.9,0.1-1.7-0.3-2.2-1c-0.6-0.8-0.7-1.8-0.4-2.6v0.1c-1.1-0.7-2.2-1.4-3.3-2.2h0.1c-0.7,0.4-1.7,0.4-2.4,0
		c-1.2-0.6-1.7-2.1-1-3.3c0.6-1.2,2.1-1.6,3.3-1c0.2,0.1,0.4,0.3,0.6,0.4h-0.1l1.4-1.1l1.4-1.1v0.1c-0.2-0.6-0.2-1.3,0.1-1.9
		c0.3-0.6,0.9-1,1.5-1.2c0.6-0.2,1.3-0.1,1.9,0.2c0.6,0.3,1,0.8,1.1,1.4c0.4,1.3-0.3,2.6-1.6,3c-1,0.3-2.2-0.1-2.8-1h0.1
		c-1,0.8-1.9,1.4-2.7,2.1v-0.1c0.6,1,0.5,2.3-0.3,3.1v-0.1c1.3,0.8,2.3,1.6,3,2.1h-0.1c0.3-0.5,0.8-0.9,1.4-1
		C187.5,288.4,187.7,288.4,187.9,288.4c-0.2,0-0.4,0.1-0.6,0.1c-0.5,0.2-1,0.5-1.3,1l0,0l0,0c-0.8-0.5-1.8-1.3-3.1-2.1h-0.1l0.1,0
		c0.8-0.8,0.9-2,0.3-2.9v-0.1h0.1c0.9-0.6,1.8-1.3,2.7-2.1l0.1-0.1v0.1c0.7,1,2.1,1.3,3.2,0.6s1.3-2.1,0.6-3.1
		c-0.7-1-2.1-1.3-3.2-0.6c-0.3,0.2-0.6,0.5-0.8,0.8c-0.3,0.6-0.3,1.2-0.1,1.8v0.1h-0.1l-1.4,1l-1.4,1.1l-0.1,0.1l-0.1-0.1
		c-0.9-0.8-2.3-0.8-3.2,0.1c-0.8,0.9-0.8,2.3,0.1,3.2c0.7,0.7,1.8,0.8,2.6,0.3h0.1h0c1.1,0.8,2.3,1.5,3.3,2.2h0.1v0.1
		c-0.3,0.8-0.2,1.8,0.3,2.5c0.5,0.7,1.3,1,2.1,0.9c0.7-0.1,1.3-0.5,1.7-1.1c0.3-0.5,0.4-1.1,0.3-1.7c-0.1-0.8-0.6-1.6-1.4-1.9
		C188.5,288.5,188.2,288.4,187.9,288.4z"/>
	<path class="st4" d="M403.4,235.9c0,0,0-0.2-0.1-0.5c-0.1-0.4-0.1-0.9-0.1-1.6l-0.1-1.2c0-0.4-0.1-0.9-0.2-1.4
		c-0.1-1.2-0.4-2.3-0.7-3.4c-0.8-3.1-2-6.1-3.7-8.8c-4.9-8.1-13.1-13.8-22.5-15.5c-1.4-0.3-2.8-0.4-4.2-0.5c-0.7,0-1.4-0.1-2.2-0.1
		l-2.2,0.1c-0.4,0-0.7,0-1.1,0.1l-1.1,0.2c-0.7,0.1-1.5,0.2-2.2,0.4c-1.5,0.3-3,0.8-4.4,1.3c-1.5,0.5-2.9,1.2-4.3,1.9
		c-0.7,0.4-1.4,0.8-2.1,1.2c-0.7,0.4-1.4,0.9-2,1.4c-1.3,1-2.6,2-3.8,3.2c-1.2,1.2-2.3,2.5-3.3,3.9c-2.1,2.7-3.7,5.8-4.7,9.1
		c-2.3,6.7-2.3,14,0,20.8c1.1,3.2,2.7,6.3,4.7,9c1,1.4,2.1,2.6,3.3,3.9c1.2,1.1,2.4,2.2,3.8,3.2c0.6,0.5,1.3,1,2,1.4
		c0.7,0.4,1.4,0.8,2.1,1.2c1.4,0.7,2.8,1.4,4.3,1.9c1.4,0.5,2.9,1,4.4,1.3c0.7,0.1,1.5,0.2,2.2,0.4l1.1,0.2c0.4,0,0.7,0,1.1,0.1
		l2.2,0.1c0.7,0,1.5-0.1,2.2-0.1c1.4-0.1,2.8-0.2,4.2-0.5c9.4-1.7,17.6-7.4,22.5-15.5c1.7-2.7,2.9-5.7,3.7-8.8
		c0.3-1.1,0.6-2.3,0.7-3.4c0.1-0.5,0.2-1,0.2-1.4c0-0.4,0-0.8,0.1-1.2c0-0.7,0.1-1.2,0.1-1.6C403.4,236.2,403.4,236,403.4,235.9
		c0,0.1,0,0.3,0,0.6c0,0.4,0,0.9-0.1,1.6c0,0.3,0,0.7,0,1.2c0,0.4-0.1,0.9-0.2,1.4c-0.1,1.2-0.4,2.3-0.7,3.4c-0.8,3.1-2,6.1-3.7,8.9
		c-4.9,8.2-13.2,14-22.6,15.8c-1.4,0.3-2.8,0.4-4.3,0.5c-0.7,0-1.5,0.1-2.2,0.1l-2.2-0.1c-0.4,0-0.7,0-1.1-0.1l-1.1-0.2
		c-0.8-0.1-1.5-0.2-2.3-0.4c-1.5-0.3-3-0.8-4.5-1.3c-1.5-0.5-3-1.2-4.4-1.9c-0.7-0.4-1.4-0.8-2.1-1.2c-0.7-0.4-1.4-0.9-2-1.4
		c-2.8-2-5.2-4.4-7.1-7.1c-2.1-2.8-3.7-5.9-4.9-9.2c-2.3-6.8-2.3-14.2,0-21.1c1.1-3.3,2.7-6.4,4.9-9.2c2-2.7,4.4-5.1,7.1-7.1
		c0.6-0.5,1.3-1,2-1.4c0.7-0.4,1.4-0.9,2.1-1.2c2.8-1.4,5.8-2.5,8.9-3.2c0.8-0.2,1.5-0.2,2.3-0.4l1.1-0.2c0.4,0,0.8,0,1.1-0.1
		l2.2-0.1c0.7,0,1.5,0.1,2.2,0.1c1.4,0.1,2.8,0.2,4.3,0.5c9.5,1.8,17.7,7.5,22.6,15.8c1.7,2.8,2.9,5.8,3.7,8.9
		c0.3,1.1,0.5,2.3,0.7,3.4c0.1,0.5,0.1,1,0.2,1.4s0,0.8,0,1.2c0,0.7,0,1.2,0.1,1.6C403.5,235.8,403.4,235.9,403.4,235.9z"/>
	<path class="st6" d="M390.5,252.9c-0.2,0-0.5,0.1-0.7,0l-2.1,0l-7.8,0.1l-25.7,0.1h-2.1v-0.2c0-9.5,0.1-18.1,0.1-24.3
		c0-3.1,0-5.5,0.1-7.3c0-0.8,0-1.5,0-2c0-0.2,0-0.5,0-0.7c0,0.2,0,0.5,0,0.7c0,0.5,0,1.1,0,2c0,1.8,0,4.2,0.1,7.3
		c0,6.2,0,14.7,0.1,24.3l-0.2-0.2h1.8l25.7,0.1l7.8,0.1h2.1C389.9,252.8,390.2,252.8,390.5,252.9z"/>
	<path class="st6" d="M386.2,227c-0.4,0.4-0.7,0.7-1.1,1.1l-3.2,2.8c-2.7,2.3-6.5,5.6-10.8,9.1l-0.6,0.5l-0.2,0.1l-0.2-0.1
		c-1.7-1.5-3.3-3-4.8-4.4h0.3l-7,5.8l-2,1.6c-0.2,0.2-0.5,0.4-0.8,0.5c0.2-0.2,0.4-0.5,0.7-0.7l1.9-1.7l6.9-5.9l0.2-0.1l0.1,0.1
		l4.8,4.4h-0.3l0.6-0.5c4.2-3.5,8-6.7,10.8-9l3.3-2.7C385.4,227.6,385.8,227.2,386.2,227z"/>
	<path class="st6" d="M386.2,234.9c-0.1-0.8-0.2-1.6-0.2-2.4c0-1.5-0.1-3.5-0.1-5.8l0.2,0.2h-0.4c-2.4,0-4.5,0-6.1-0.1
		c-0.8,0-1.7,0-2.5-0.2c0.8-0.1,1.7-0.2,2.5-0.2c1.6,0,3.7-0.1,6.1-0.1h0.7v0.2c0,2.3,0,4.3-0.1,5.8
		C386.4,233.3,386.4,234.1,386.2,234.9z"/>
	<path class="st4" d="M457.1,160.4c0-0.1,0-0.3,0-0.4c0-0.3,0-0.7-0.1-1.2c0-0.3,0-0.6-0.1-0.9c-0.1-0.3-0.1-0.7-0.2-1
		c-0.1-0.9-0.3-1.7-0.5-2.6c-0.6-2.3-1.5-4.6-2.8-6.6c-6.1-10.2-18.7-14.7-30-10.6c-1.1,0.4-2.2,0.9-3.3,1.4
		c-1.1,0.6-2.1,1.2-3.1,1.9c-1,0.7-1.9,1.5-2.8,2.4c-0.9,0.9-1.7,1.9-2.4,2.9c-1.5,2.1-2.8,4.4-3.6,6.8c-1.7,5.1-1.7,10.6,0,15.6
		c0.8,2.4,2,4.7,3.6,6.8c0.8,1,1.6,2,2.4,2.9c0.9,0.9,1.8,1.7,2.8,2.4c1,0.7,2,1.4,3.1,1.9c1.1,0.5,2.1,1,3.3,1.4
		c11.3,4,23.9-0.4,30-10.6c1.3-2.1,2.2-4.3,2.8-6.6c0.2-0.8,0.4-1.7,0.5-2.6c0.1-0.4,0.1-0.7,0.2-1c0-0.3,0-0.6,0.1-0.9
		c0-0.5,0.1-0.9,0.1-1.2C457,160.6,457,160.5,457.1,160.4c0,0.1,0,0.2,0,0.3c0,0.3,0,0.7,0,1.2v0.9c0,0.3-0.1,0.7-0.1,1
		c-0.1,0.9-0.3,1.7-0.5,2.6c-0.6,2.4-1.5,4.6-2.7,6.7c-3.7,6.2-9.9,10.6-17.1,11.9c-4.5,0.8-9.1,0.5-13.4-1.1
		c-1.1-0.4-2.2-0.9-3.3-1.4c-1.1-0.6-2.1-1.3-3.1-2c-1-0.7-2-1.6-2.9-2.4c-0.9-0.9-1.7-1.9-2.5-2.9c-1.6-2.1-2.8-4.5-3.6-7
		c-1.8-5.2-1.8-10.8,0-15.9c0.8-2.5,2.1-4.8,3.6-6.9c0.8-1,1.6-2,2.5-2.9c0.9-0.9,1.9-1.7,2.9-2.4c1-0.7,2-1.4,3.1-2
		c1.1-0.6,2.2-1,3.3-1.4c4.3-1.5,8.9-1.9,13.4-1.1c7.1,1.4,13.3,5.7,17,11.9c1.3,2.1,2.2,4.4,2.7,6.7c0.2,0.9,0.4,1.7,0.5,2.6
		c0,0.4,0.1,0.7,0.1,1s0,0.6,0,0.9c0,0.5,0,0.9,0,1.2C457,160.2,457,160.3,457.1,160.4z"/>
	<path class="st10" d="M432.6,147l3.4,6.7c0.1,0.3,0.4,0.4,0.7,0.5l7.5,1.1c0.5,0.1,0.8,0.5,0.7,1c0,0.2-0.1,0.4-0.3,0.5l-5.5,5.3
		c-0.2,0.2-0.3,0.5-0.3,0.8l1.3,7.5c0.1,0.5-0.2,0.9-0.6,1c-0.2,0.1-0.4,0-0.6-0.1l-6.7-3.5c-0.3-0.1-0.6-0.1-0.8,0l-6.7,3.5
		c-0.4,0.2-1,0.1-1.2-0.3c-0.1-0.2-0.1-0.4-0.1-0.6l1.3-7.5c0.1-0.3,0-0.6-0.2-0.8l-5.5-5.3c-0.3-0.3-0.4-0.9,0-1.2
		c0.1-0.1,0.3-0.2,0.5-0.3l7.5-1.1c0.3,0,0.5-0.2,0.7-0.5l3.4-6.7c0.2-0.4,0.7-0.6,1.2-0.4C432.4,146.7,432.6,146.9,432.6,147z"/>
	<path class="st4" d="M389.8,83.6c0-0.1,0-0.2,0-0.3c0-0.2,0-0.5-0.1-0.9c0-0.5-0.1-0.9-0.2-1.4c-0.1-0.7-0.2-1.3-0.4-1.9
		c-0.4-1.7-1.1-3.3-2.1-4.8c-4.5-7.5-13.7-10.7-22-7.7c-1.7,0.6-3.2,1.4-4.6,2.5c-0.7,0.5-1.4,1.1-2.1,1.8c-0.6,0.7-1.2,1.4-1.8,2.1
		c-4.7,6.4-4.7,15,0,21.4c0.5,0.7,1.1,1.4,1.8,2.1c0.6,0.6,1.3,1.2,2.1,1.7c1.4,1.1,3,1.9,4.6,2.5c8.2,3,17.4-0.3,22-7.7
		c0.9-1.5,1.6-3.1,2.1-4.8c0.2-0.6,0.3-1.3,0.4-1.9c0.1-0.5,0.1-0.9,0.2-1.4c0-0.4,0.1-0.6,0.1-0.9
		C389.7,83.8,389.7,83.7,389.8,83.6c0,0.1,0,0.2,0,0.3c0,0.2,0,0.5,0,0.9c0,0.5,0,0.9-0.1,1.4c-0.1,0.6-0.2,1.3-0.3,1.9
		c-0.4,1.7-1.1,3.4-2,4.9c-2.7,4.6-7.3,7.8-12.5,8.8c-3.3,0.6-6.7,0.4-9.8-0.8c-1.7-0.6-3.3-1.4-4.7-2.5c-0.8-0.5-1.5-1.1-2.1-1.8
		c-0.7-0.7-1.3-1.4-1.8-2.2c-4.9-6.5-4.9-15.4,0-21.9c1.1-1.5,2.4-2.9,4-3.9c1.4-1.1,3-1.9,4.7-2.5c3.1-1.1,6.5-1.4,9.8-0.8
		c5.3,1,9.8,4.2,12.5,8.8c0.9,1.5,1.6,3.2,2,4.9c0.2,0.6,0.3,1.3,0.3,1.9c0.1,0.5,0.1,0.9,0.1,1.4c0,0.4,0,0.7,0,0.9
		C389.7,83.5,389.8,83.5,389.8,83.6z"/>
	<path class="st0" d="M379.5,81.4c0-4.6-3.7-8.4-8.4-8.4c-4.7,0-8.4,3.7-8.4,8.3c0,1.5,0.4,3,1.2,4.3l0,0l0,0c0.3,0.5,0.7,1,1.1,1.5
		l4.9,6.4c0.5,0.7,1.5,0.8,2.1,0.3c0.1-0.1,0.2-0.2,0.3-0.3l4.9-6.3c0,0,0.9-1.1,1.2-1.6l0,0l0,0C379.1,84.4,379.5,82.9,379.5,81.4z
		 M371.1,85.1c-2.1,0-3.7-1.6-3.7-3.7c0-2,1.7-3.7,3.7-3.7c2.1,0,3.7,1.6,3.7,3.7c0,0,0,0,0,0C374.8,83.4,373.1,85.1,371.1,85.1
		L371.1,85.1z"/>
	<path class="st9" d="M379.5,81.4c0-4.6-3.7-8.4-8.4-8.4c-4.7,0-8.4,3.7-8.4,8.3c0,1.5,0.4,3,1.2,4.3l0,0l0,0c0.3,0.5,0.7,1,1.1,1.5
		l4.9,6.4c0.5,0.7,1.5,0.8,2.1,0.3c0.1-0.1,0.2-0.2,0.3-0.3l4.9-6.3c0,0,0.9-1.1,1.2-1.6l0,0l0,0C379.1,84.4,379.5,82.9,379.5,81.4z
		 M371.1,85.1c-2.1,0-3.7-1.6-3.7-3.7c0-2,1.7-3.7,3.7-3.7c2.1,0,3.7,1.6,3.7,3.7c0,0,0,0,0,0C374.8,83.4,373.1,85.1,371.1,85.1
		L371.1,85.1z"/>
	<path class="st6" d="M371.1,85.1c0,0,0.3,0,0.9-0.2c0.8-0.2,1.5-0.7,2-1.3c1.2-1.6,0.8-3.8-0.8-5c-1.6-1.2-3.9-0.8-5.1,0.8
		c-0.9,1.3-0.9,3,0,4.3c0.5,0.7,1.2,1.1,2,1.3C370.7,85.1,371,85,371.1,85.1c-0.3,0-0.7,0-1-0.1c-0.8-0.2-1.5-0.7-2.1-1.3
		c-0.8-1-1-2.3-0.6-3.6c0.7-2,2.9-3,4.9-2.3c1.1,0.4,1.9,1.2,2.3,2.3c0.4,1.2,0.2,2.5-0.6,3.6c-0.5,0.7-1.3,1.2-2.1,1.4
		C371.6,85.1,371.3,85.1,371.1,85.1z"/>
	<path class="st6" d="M379.5,81.4c0,0.4,0,0.8,0,1.2c-0.1,1.1-0.5,2.1-1.1,3.1l0-0.1h0.1l-0.1,0.1l0,0l0,0l-5.8,7.6
		c-0.3,0.5-0.7,0.8-1.2,0.9c-0.5,0.1-1.1-0.1-1.5-0.5c-0.7-0.8-1.3-1.7-1.9-2.6l-4.2-5.5l0,0l0,0l-0.1-0.2h0.2l-0.1,0.2
		c-0.3-0.5-0.6-1.1-0.7-1.6c-1.5-4.4,0.9-9.2,5.3-10.7c2.4-0.8,5.1-0.5,7.3,0.9c1.8,1.1,3.1,2.9,3.7,4.9c0.1,0.3,0.2,0.6,0.2,1
		c0,0.2,0.1,0.5,0.1,0.7c0,0.4,0,0.6,0,0.6c0-0.8-0.2-1.5-0.4-2.2c-0.6-2-1.9-3.7-3.6-4.8c-1.2-0.7-2.6-1.2-4-1.2
		c-1.6-0.1-3.3,0.3-4.7,1.2c-3.4,2-4.9,6-3.7,9.7c0.2,0.5,0.4,1.1,0.7,1.6l0.1,0.2h-0.2l0.1-0.2l0,0l0,0l4.2,5.5l1.9,2.6
		c0.3,0.3,0.8,0.5,1.3,0.4c0.5-0.1,0.9-0.4,1.1-0.8c2.3-3,4.3-5.6,5.8-7.6l0,0l0,0v0.1h-0.1l0-0.1c0.6-0.9,0.9-2,1.1-3
		c0-0.3,0.1-0.6,0.1-0.9C379.5,81.5,379.5,81.4,379.5,81.4z"/>
	<path class="st4" d="M300,72.5c0,0,0-0.2,0-0.5c0-0.3-0.1-0.9-0.1-1.5c0-0.3,0-0.7-0.1-1.1c-0.1-0.4-0.1-0.9-0.2-1.4
		c-0.1-1.1-0.4-2.2-0.7-3.3c-0.8-3-2-5.9-3.6-8.6c-4.8-7.9-12.8-13.4-21.9-15.1c-1.4-0.3-2.7-0.4-4.1-0.5c-0.7,0-1.4-0.1-2.1-0.1
		l-2.1,0.1c-0.4,0-0.7,0-1.1,0.1l-1.1,0.2c-0.7,0.1-1.5,0.2-2.2,0.3c-1.5,0.3-2.9,0.7-4.3,1.3c-1.5,0.5-2.9,1.1-4.2,1.8
		c-0.7,0.4-1.3,0.8-2,1.2c-0.7,0.4-1.3,0.8-1.9,1.3c-1.3,1-2.5,2-3.7,3.1c-1.1,1.2-2.2,2.4-3.2,3.7c-2,2.7-3.6,5.7-4.6,8.8
		c-1.1,3.3-1.6,6.7-1.7,10.1c0,3.4,0.6,6.9,1.7,10.1c1.1,3.2,2.6,6.2,4.6,8.9c1.9,2.6,4.2,4.9,6.8,6.8c0.6,0.5,1.3,0.9,1.9,1.3
		c0.7,0.4,1.3,0.8,2,1.2c1.4,0.7,2.8,1.3,4.2,1.8c1.4,0.5,2.9,0.9,4.3,1.3c0.7,0.2,1.5,0.2,2.2,0.4l1.1,0.2c0.4,0,0.7,0,1.1,0.1
		l2.1,0.1c0.7,0,1.4-0.1,2.1-0.1c1.4-0.1,2.7-0.2,4.1-0.5c9.2-1.7,17.2-7.2,22-15.1c1.6-2.7,2.9-5.6,3.6-8.6
		c0.3-1.1,0.5-2.2,0.7-3.3c0.1-0.5,0.2-1,0.2-1.4c0-0.4,0-0.8,0.1-1.1c0-0.7,0.1-1.2,0.1-1.5C300,72.7,300,72.5,300,72.5
		c0,0,0,0.2,0,0.5c0,0.3,0,0.9,0,1.5c0,0.3,0,0.7,0,1.1c0,0.4-0.1,0.9-0.2,1.4c-0.1,1.1-0.3,2.3-0.6,3.4c-0.7,3.1-1.9,6-3.6,8.7
		c-4.8,8-12.8,13.6-22.1,15.4c-1.4,0.3-2.8,0.4-4.2,0.5c-0.7,0-1.4,0.1-2.1,0.1L265,105c-0.4,0-0.7,0-1.1-0.1l-1.1-0.2
		c-0.7-0.1-1.5-0.2-2.2-0.4c-1.5-0.3-3-0.7-4.4-1.3c-1.5-0.5-2.9-1.1-4.3-1.9c-0.7-0.4-1.4-0.8-2-1.2c-0.7-0.4-1.3-0.9-1.9-1.4
		c-1.3-1-2.6-2-3.7-3.1c-1.2-1.2-2.3-2.5-3.3-3.8c-2-2.7-3.6-5.8-4.7-9c-1.1-3.3-1.7-6.8-1.7-10.3c0-3.5,0.6-7,1.7-10.3
		c1.1-3.2,2.7-6.3,4.7-9c1-1.3,2.1-2.6,3.2-3.8c1.2-1.1,2.4-2.2,3.7-3.1c0.6-0.5,1.3-0.9,1.9-1.3c0.7-0.4,1.4-0.8,2-1.2
		c1.4-0.7,2.8-1.3,4.3-1.9c1.4-0.5,2.9-0.9,4.4-1.3c0.7-0.1,1.5-0.2,2.2-0.3l1.1-0.2c0.4,0,0.7,0,1.1-0.1l2.2-0.1
		c0.7,0,1.4,0.1,2.1,0.1c1.4,0.1,2.8,0.2,4.2,0.5c9.2,1.7,17.3,7.4,22.1,15.4c1.6,2.7,2.8,5.6,3.6,8.7c0.3,1.1,0.5,2.2,0.6,3.4
		c0.1,0.5,0.1,1,0.2,1.4c0,0.4,0,0.8,0,1.1c0,0.7,0,1.2,0,1.5C300,72.4,300,72.5,300,72.5z"/>
	<path class="st9" d="M268.5,57.6c1.3,0.2,2.6,0.5,3.9,1l2.8-2.4l4.9,3.7l-1.5,3.3c0.8,1,1.5,2.2,2,3.4l3.7,0.3l0.8,6l-3.5,1.3
		c-0.2,1.3-0.5,2.6-1,3.9l2.4,2.8l-3.7,4.8l-3.4-1.5c-1.1,0.8-2.2,1.5-3.4,2l-0.3,3.7l-6.1,0.8l-1.3-3.4c-1.3-0.1-2.6-0.5-3.9-1
		l-2.8,2.4l-4.9-3.7l1.5-3.3c-0.8-1-1.5-2.2-2-3.4l-3.7-0.3l-0.8-6l3.5-1.3c0.2-1.3,0.5-2.6,1-3.9l-2.4-2.8l3.7-4.8l3.4,1.5
		c1.1-0.8,2.2-1.5,3.4-2l0.3-3.7l6.1-0.8L268.5,57.6L268.5,57.6z M266,65.9c-3.6,0.5-6.1,3.8-5.6,7.3c0.5,3.6,3.8,6.1,7.4,5.6
		c3.6-0.5,6.1-3.7,5.6-7.3C273,68,269.7,65.4,266,65.9C266.1,65.9,266,65.9,266,65.9z"/>
	<path class="st6" d="M266,65.9c0,0,0.1,0,0.4-0.1c0.4-0.1,0.8-0.1,1.2,0c1.5,0.1,2.9,0.8,4,1.8c2.6,2.7,2.4,7-0.3,9.5
		c-2.1,2-5.2,2.4-7.7,1.1c-1.2-0.6-2.2-1.6-2.8-2.8c-1.1-2-1-4.5,0.2-6.4c0.8-1.3,2-2.3,3.4-2.8c0.4-0.1,0.8-0.2,1.2-0.3
		C265.7,65.9,265.9,65.9,266,65.9c0,0.1-0.6,0.1-1.5,0.5c-1.3,0.6-2.4,1.6-3.1,2.8c-1,1.9-1.1,4.1,0,6c1.2,2.3,3.8,3.6,6.4,3.3
		c3.5-0.5,5.9-3.6,5.4-7.1c-0.2-1.3-0.8-2.6-1.8-3.6c-1-1-2.3-1.7-3.8-1.9C266.6,65.9,266,66,266,65.9z"/>
	<path class="st6" d="M268.5,57.6c0-0.1-0.1-0.1-0.1-0.2l-0.3-0.6c-0.2-0.6-0.6-1.5-1-2.6l0.1,0l-6.1,0.9l0.1-0.1
		c-0.1,1.1-0.2,2.3-0.3,3.6v0.1h-0.1c-1.2,0.5-2.4,1.2-3.4,2l-0.1,0.1h-0.1l-3.4-1.5l0.2-0.1l-3.7,4.8v-0.3l2.4,2.8l0.1,0.1v0.1
		c-0.5,1.2-0.8,2.5-1,3.8v0.1l-0.1,0l-3.5,1.3l0.1-0.3c0.3,1.9,0.5,3.9,0.8,6l-0.2-0.2l3.7,0.3h0.1l0.1,0.1c0.5,1.2,1.2,2.3,1.9,3.3
		l0.1,0.1l-0.1,0.1c-0.5,1-1,2.2-1.5,3.3l-0.1-0.3l4.9,3.7H258l2.8-2.4l0.1-0.1l0.1,0.1c1.2,0.5,2.5,0.8,3.8,1l0,0
		c0.1,0.1-0.2-0.2,0.2,0.2l0,0l0,0v0.1v0.1l0.1,0.2l0.2,0.4l0.3,0.9l0.6,1.7l-0.3-0.2l6.1-0.8l-0.2,0.2l0.3-3.6v-0.2l0.1-0.1
		c1.2-0.5,2.4-1.1,3.4-1.9l0.1-0.1l0.1,0.1l3.4,1.5l-0.3,0.1l3.7-4.8V81l-2.3-2.7l-0.1-0.1l0.1-0.1c0.5-1.2,0.8-2.5,1-3.8v-0.1h0.1
		l3.5-1.3l-0.1,0.2c-0.3-2.1-0.6-4.1-0.8-6l0.2,0.2l-3.7-0.3h-0.1v-0.1c-0.5-1.2-1.1-2.3-1.9-3.4l-0.1-0.1v-0.1
		c0.6-1.2,1.1-2.3,1.6-3.3v0.2l-4.9-3.7h0.2c-1.1,1-2.1,1.7-2.9,2.3l0,0h0c-0.9-0.4-1.9-0.7-2.9-0.9l-0.7-0.1L268.5,57.6
		c0.1,0,0.1,0,0.2,0.1c0.2,0,0.5,0.1,0.7,0.1c1,0.2,2,0.4,2.9,0.8h-0.1l2.8-2.4l0.1-0.1l0.1,0.1l4.9,3.6l0.1,0.1l-0.1,0.1
		c-0.5,1-1,2.1-1.5,3.3v-0.2c0.8,1,1.5,2.2,2,3.4l-0.2-0.1l3.7,0.3h0.2v0.2c0.3,1.9,0.5,3.9,0.8,6v0.2l-0.2,0.1l-3.4,1.3l0.1-0.2
		c-0.2,1.3-0.5,2.6-1,3.9v-0.3l2.4,2.8l0.1,0.2l-0.1,0.2l-3.7,4.8l-0.1,0.2l-0.2,0l-3.4-1.5h0.3c-1.1,0.8-2.2,1.5-3.5,2l0.2-0.2
		c-0.1,1.2-0.2,2.4-0.3,3.6v0.2h-0.2l-6.1,0.8h-0.2l-0.1-0.2c-0.2-0.6-0.4-1.1-0.7-1.7l-0.3-0.9l-0.2-0.4l-0.1-0.2v-0.1l0,0l0,0l0,0
		l0,0l0.2,0.2l0,0c-1.3-0.2-2.6-0.5-3.9-1h0.3l-2.8,2.3l-0.2,0.1l-0.2-0.1l-4.9-3.7l-0.2-0.1l0.1-0.2l1.4-3.5v0.3
		c-0.8-1.1-1.5-2.2-2-3.5l0.2,0.2l-3.7-0.3h-0.2v-0.2c-0.3-2.1-0.6-4.1-0.8-6v-0.2l0.2-0.1l3.4-1.3l-0.1,0.2c0.2-1.3,0.5-2.6,1-3.9
		v0.2l-2.4-2.8l-0.1-0.1l0.1-0.1l3.7-4.8l0.1-0.1l0.1,0.1l3.4,1.5h-0.2c1.1-0.8,2.2-1.5,3.5-2l-0.1,0.1c0.1-1.3,0.2-2.6,0.3-3.7
		v-0.1h0.1l6.1-0.8h0.1v0.1c0.4,1.1,0.7,1.9,0.9,2.6l0.2,0.7C268.4,57.4,268.5,57.5,268.5,57.6z"/>
</g>
<g id="freepik--Character--inject-1134">
	<path class="st4" d="M233.3,323.2l-1.4,0.5c-6.2,2.1-24.8,8.2-30.4,10.5c0,0,9.9,87.9,11.1,96.1s1.4,40.9,1.4,40.9h105.8
		c0,0-0.3-88.1,0-101.8c0.4-17.7,2.6-35.2,2.6-35.2l-18.4-7.2l-21.6-11.4L233.3,323.2z"/>
	<g class="st11">
		<path d="M256.8,342.2c-8.6,32.1-17.7,64-27.3,95.8c-1.1,3.8-2.2,7.9-0.7,11.5c1.5,3.2,4.6,5.4,8.2,5.8c3.5,0.3,7-0.5,10-2.3
			c7.1-4,11.8-11.5,14.1-19.4s2.5-16.1,2.7-24.3l1.5-65.5L256.8,342.2z"/>
	</g>
	<path class="st4" d="M201.5,334.2c0,0-15.5,6.9-14.3,34.4c0.6,12,1.8,24,3.7,35.9l43.6-12.5l-11.1-47.9L201.5,334.2z"/>
	<path class="st4" d="M304.9,378.5l-2.3,31.8l43.8-14.2c0,0-9.4-56.1-24.3-62l-16,27.4L304.9,378.5z"/>
	<path class="st6" d="M309.9,369.4c0,0.2,0.1,0.4,0.1,0.6c0,0.5,0.1,1.1,0.1,1.9c0.1,1.7,0.2,4,0.4,6.8c0.3,5.8,0.6,13.8,0.9,22.6
		s0.5,16.8,0.7,22.6c0.1,2.8,0.2,5.2,0.2,6.9c0,0.8,0,1.4,0,1.9c0,0.2,0,0.4,0,0.6c-0.1-0.2-0.1-0.4-0.1-0.6c0-0.5-0.1-1.1-0.1-1.9
		c-0.1-1.7-0.2-4-0.4-6.9c-0.3-5.8-0.6-13.8-0.9-22.6s-0.5-16.8-0.7-22.6c-0.1-2.9-0.2-5.2-0.2-6.9c0-0.8,0-1.4,0-1.9
		C309.8,369.8,309.9,369.6,309.9,369.4z"/>
	<path class="st6" d="M223.2,356c-0.2-0.3-0.4-0.6-0.6-1c-0.4-0.8-0.9-1.7-1.4-2.8c-1.5-3.1-3.3-6.1-5.5-8.8
		c-2.2-2.7-4.9-4.8-8.1-6.2c-1.3-0.5-2.7-0.9-4.1-1.2c0.4-0.1,0.8-0.1,1.2,0c1.1,0.1,2.1,0.4,3.1,0.8c3.3,1.3,6.2,3.4,8.4,6.2
		c2.2,2.8,4,5.8,5.4,9c0.6,1.2,1,2.2,1.3,2.9C223,355.3,223.1,355.6,223.2,356z"/>
	<path class="st6" d="M315,332.9c-1.1,2.4-2,4.9-2.8,7.4c-0.6,2.6-1,5.1-1.3,7.8c-0.1-0.8-0.2-1.6-0.1-2.3c0.1-1.9,0.4-3.7,0.9-5.6
		c0.5-1.8,1.1-3.6,2-5.3C314.1,334.1,314.5,333.5,315,332.9z"/>
	<path class="st10" d="M217.5,346.6c0,0-0.2,0-0.4,0c-0.4,0.1-0.8,0.3-1,0.7c-0.4,0.5-0.6,1.2-0.7,1.8c-0.1,0.4-0.2,0.8-0.3,1.2
		c-0.2,0.5-0.5,0.9-0.9,1.2c-1,0.6-2.3,0.4-3.2-0.3c-0.9-0.9-1.7-1.8-2.3-3c-0.3-0.5-0.8-1-1.3-1.4c-0.5-0.4-1.1-0.6-1.8-0.6
		c-0.6,0.1-1.2,0.4-1.5,1c-0.3,0.6-0.5,1.3-0.5,2c-0.1,0.7-0.1,1.5-0.1,2.2c-0.1,0.8-0.3,1.5-0.7,2.1c-0.1,0.2-0.2,0.3-0.4,0.4
		c-0.1,0.1-0.3,0.3-0.5,0.4c-0.3,0.2-0.7,0.3-1.1,0.3c-0.7,0.1-1.4-0.1-2.1-0.4c-1.1-0.6-2.1-1.5-2.8-2.6c-0.6-0.9-1.4-1.6-2.2-2.3
		c-0.7-0.5-1.5-0.7-2.4-0.6c-0.6,0.1-1.2,0.5-1.5,1c-0.2,0.3-0.4,0.7-0.3,1.1c0,0.3,0.1,0.4,0.1,0.4c-0.1-0.1-0.1-0.3-0.2-0.4
		c-0.1-0.4,0-0.9,0.3-1.3c0.4-0.6,1-1,1.7-1.2c0.9-0.2,1.9,0.1,2.6,0.6c0.9,0.6,1.7,1.4,2.3,2.3c0.7,1,1.6,1.8,2.7,2.4
		c0.6,0.3,1.2,0.4,1.8,0.3c0.6-0.1,1.2-0.4,1.6-0.9c0.7-1.1,0.6-2.6,0.8-4.1c0-0.8,0.2-1.6,0.5-2.3c0.4-0.7,1.2-1.2,2-1.2
		c1.5,0.1,2.8,0.9,3.5,2.2c0.6,1.1,1.3,2,2.2,2.9c0.8,0.7,1.9,0.8,2.8,0.4c0.6-0.6,1-1.3,1.1-2.2c0.1-0.7,0.4-1.3,0.8-1.9
		c0.3-0.4,0.7-0.6,1.1-0.7C217.2,346.5,217.4,346.5,217.5,346.6z"/>
	<path class="st10" d="M226.4,361.3c0,0.2,0,0.4,0,0.6c-0.1,0.6-0.3,1.1-0.6,1.5c-0.5,0.8-1.2,1.4-2,1.7c-1.1,0.5-2.4,0.5-3.4,0
		c-1.2-0.6-2.1-1.7-3.5-2.1s-2.9,0.5-3.7,1.9s-1.3,3.1-2.2,4.7c-0.5,0.9-1.2,1.6-2,2.1c-0.9,0.6-2,0.7-3,0.2
		c-0.9-0.5-1.6-1.2-2.1-2.1c-0.5-0.8-0.9-1.6-1.4-2.4c-0.4-0.7-1.1-1.3-1.9-1.5c-0.8-0.2-1.6,0-2.2,0.4c-1.2,1-2.2,2.2-2.7,3.7
		c-0.5,1.3-1.2,2.5-1.9,3.7c-1,1.8-2.8,3-4.8,3.2c-0.6,0-1.1-0.1-1.6-0.3c-0.1,0-0.3-0.1-0.4-0.2l-0.1-0.1c0.7,0.3,1.4,0.4,2.1,0.4
		c2-0.3,3.7-1.5,4.6-3.2c0.7-1.2,1.3-2.4,1.8-3.7c0.6-1.5,1.5-2.9,2.8-3.9c0.8-0.6,1.7-0.7,2.6-0.5c0.9,0.3,1.7,0.9,2.2,1.7
		c0.5,0.8,0.9,1.6,1.4,2.4c0.4,0.8,1.1,1.5,1.9,1.9c0.8,0.3,1.8,0.3,2.5-0.2c0.8-0.5,1.4-1.1,1.8-1.9c0.9-1.5,1.3-3.3,2.2-4.8
		c0.5-0.7,1.1-1.3,1.9-1.7c0.7-0.4,1.6-0.5,2.4-0.3c0.7,0.2,1.4,0.6,1.9,1.1c0.5,0.4,1.1,0.8,1.6,1.1c1,0.5,2.1,0.6,3.1,0.1
		C225.2,364.3,226.2,362.9,226.4,361.3z"/>
	<path class="st10" d="M221.3,382.7c0,0-0.1,0-0.4-0.1c-0.4,0-0.7,0.1-1,0.3c-0.4,0.4-0.7,0.8-0.9,1.4c-0.2,0.7-0.2,1.5-0.1,2.2
		c0.2,1,0.1,2-0.2,2.9c-0.6,1.1-1.7,1.7-2.9,1.7c-1.3,0-2.6-0.6-3.4-1.6c-0.9-1.1-1.6-2.2-2.2-3.5l0.2,0.1c-1.1-0.1-2.1,0.4-2.7,1.4
		c-0.7,1-1.1,2.1-1.1,3.3c-0.1,0.9-0.3,1.8-0.5,2.7c-0.2,0.9-0.7,1.7-1.3,2.4c-0.6,0.7-1.5,1.1-2.4,1.1c-0.9-0.1-1.7-0.4-2.4-1
		c-1.3-1.1-1.9-2.5-2.8-3.6c-0.7-1-1.9-1.7-3.2-1.8c-1.1-0.1-2.1,0.3-2.9,1c-0.6,0.5-1,1.2-1.2,2c-0.2,0.7-0.2,1.3-0.1,2
		c0,0,0,0-0.1-0.1c0-0.1-0.1-0.3-0.1-0.4c-0.1-0.5-0.1-1.1,0-1.6c0.4-2,2.3-3.4,4.3-3.3c0.7,0,1.3,0.2,1.9,0.5
		c0.6,0.4,1.2,0.8,1.6,1.4c0.9,1.1,1.6,2.5,2.8,3.5c0.6,0.5,1.3,0.8,2.1,0.9c0.8,0,1.5-0.4,2.1-1c0.6-0.6,1-1.4,1.2-2.2
		c0.2-0.9,0.4-1.8,0.5-2.6c0.1-1.3,0.5-2.5,1.3-3.5c0.7-1.1,1.9-1.7,3.2-1.5h0.1l0.1,0.1c0.5,1.2,1.2,2.4,2.1,3.4
		c0.8,0.9,1.9,1.5,3.1,1.5c1.1,0.1,2.1-0.5,2.6-1.4c0.3-0.9,0.4-1.8,0.2-2.7c-0.1-0.8-0.1-1.6,0.2-2.4c0.2-0.6,0.6-1.1,1.1-1.4
		c0.3-0.2,0.7-0.3,1.1-0.3C221,382.5,221.1,382.6,221.3,382.7z"/>
	<path class="st10" d="M342.7,378.4c0,0-0.2,0-0.5,0.1c-0.5,0.2-0.9,0.5-1.1,0.9c-0.4,0.7-0.7,1.4-0.9,2.2c-0.2,1.1-0.4,2.1-0.9,3.1
		c-0.3,0.6-0.7,1.1-1.3,1.4c-0.7,0.4-1.4,0.4-2.1,0.1c-0.7-0.4-1.2-0.9-1.6-1.6c-0.4-0.6-0.8-1.3-1.1-2c-0.3-0.7-0.8-1.3-1.3-1.9
		c-0.5-0.6-1.2-0.9-2-0.8c-0.8,0.2-1.3,0.9-1.4,1.7c-0.1,0.9-0.2,1.7-0.1,2.6c0,1.8-0.6,3.6-1.8,5c-1.2,1.3-3.1,1.8-4.8,1.1
		c-1.5-0.7-2.4-2-3.5-2.8c-0.8-0.9-2.1-1.4-3.3-1.1c-1,0.3-1.8,0.9-2.4,1.8c-0.4,0.7-0.7,1.4-0.9,2.1c-0.3,1.3-0.5,2-0.5,2
		c0-0.2,0-0.4,0-0.5c0-0.3,0.1-0.9,0.3-1.5c0.2-0.8,0.5-1.6,0.9-2.3c0.6-1,1.5-1.7,2.5-2c0.6-0.2,1.3-0.1,1.9,0.1
		c0.7,0.3,1.2,0.6,1.8,1.1c1.1,0.9,2,2.1,3.4,2.7c1.5,0.5,3.1,0.1,4.2-1c1.1-1.3,1.7-2.9,1.7-4.6c0-0.9,0-1.8,0.1-2.7
		c0.1-0.5,0.3-0.9,0.5-1.3c0.3-0.4,0.7-0.7,1.2-0.8c0.9-0.1,1.9,0.2,2.5,0.9c0.6,0.6,1,1.3,1.4,2c0.3,0.7,0.6,1.4,1,2
		c0.3,0.6,0.8,1.1,1.4,1.4c0.5,0.3,1.2,0.3,1.7,0c0.5-0.3,0.9-0.7,1.1-1.3c0.4-1,0.7-2,0.9-3c0.2-0.8,0.5-1.5,1-2.2
		c0.3-0.4,0.8-0.7,1.3-0.9C342.2,378.5,342.5,378.4,342.7,378.4z"/>
	<path class="st10" d="M337.5,354.9c0,0.1-0.1,0.3-0.2,0.4c-0.1,0.2-0.4,0.6-0.6,1c-0.4,0.5-0.8,1-1.2,1.4c-0.6,0.6-1.3,1.1-2.1,1.3
		c-1,0.3-2.1,0.2-3-0.3c-1-0.6-1.5-1.8-2.4-2.4c-0.4-0.3-1-0.4-1.5-0.2c-0.5,0.3-0.9,0.7-1.2,1.3c-0.3,0.6-0.4,1.2-0.5,1.8
		c0,0.7,0,1.3,0,2c0,0.7-0.1,1.4-0.4,2.1c-0.3,0.7-0.8,1.2-1.5,1.5c-1.3,0.5-2.7,0.4-3.9-0.2c-1-0.5-2-1.2-2.9-1.9
		c-0.8-0.6-1.6-1.1-2.5-1.4c-0.7-0.2-1.6-0.2-2.3,0.1c-0.6,0.2-1,0.6-1.4,1.1c-0.3,0.4-0.4,0.9-0.3,1.5c0,0-0.1-0.1-0.1-0.4
		c0-0.4,0.1-0.8,0.3-1.2c0.3-0.5,0.8-1,1.4-1.2c0.8-0.4,1.7-0.4,2.5-0.2c1,0.3,1.9,0.8,2.7,1.4c0.9,0.7,1.8,1.3,2.8,1.8
		c1.1,0.5,2.3,0.6,3.4,0.2c0.5-0.3,1-0.7,1.2-1.3c0.2-0.6,0.3-1.3,0.4-1.9c0-0.7,0-1.4,0-2.1c0.1-0.7,0.2-1.4,0.5-2
		c0.3-0.6,0.8-1.2,1.4-1.5c0.7-0.3,1.4-0.2,2,0.2c1.1,0.8,1.5,1.9,2.3,2.5c0.8,0.5,1.8,0.6,2.7,0.3c0.7-0.2,1.4-0.6,2-1.2
		c0.4-0.4,0.9-0.9,1.2-1.4C336.8,355.8,337.1,355.3,337.5,354.9z"/>
	<path class="st10" d="M311.9,412.5c-0.1,0.2-0.3,0.4-0.5,0.6c-0.7,0.4-1.4,0.5-2.2,0.4c-0.5-0.1-1.1-0.3-1.5-0.5
		c-0.6-0.3-1.1-0.6-1.6-1c-0.6-0.4-1.2-0.8-1.9-1.1c-0.7-0.3-1.5-0.3-2.3-0.1c-0.8,0.4-1.4,1-1.9,1.7c-0.5,0.8-0.9,1.7-1.3,2.6
		c-0.4,1-0.9,1.9-1.5,2.8c-0.4,0.4-0.8,0.8-1.3,1.1c-0.3,0.2-0.5,0.3-0.9,0.3c-0.1,0-0.3,0.1-0.4,0.1h-0.5c-0.6,0-1.2-0.2-1.7-0.6
		c-0.5-0.4-0.9-0.8-1.3-1.3c-0.8-1-1.4-2-2.1-3c-0.7-1-1.7-1.8-2.8-2.2c-1.2-0.2-2.5,0-3.5,0.7c-1.1,0.7-1.9,1.6-2.6,2.7
		c-0.7,1.1-1.2,2.2-1.9,3.3c-0.6,1.1-1.4,2.1-2.3,2.9c-0.9,0.8-2,1.4-3.2,1.5c-1.2,0.1-2.4-0.2-3.3-1c-0.8-0.7-1.5-1.5-2.1-2.4
		c-1.2-1.7-2.2-3.3-3.6-4.2c-0.7-0.4-1.4-0.7-2.2-0.7c-0.7,0-1.4,0.2-2.1,0.5c-1.1,0.5-1.9,1.3-2.5,2.2c-0.4,0.6-0.6,1.3-0.7,2.1
		c0,0.3,0,0.5,0,0.8c0,0,0-0.1,0-0.2c0-0.2-0.1-0.4-0.1-0.6c0-0.8,0.2-1.5,0.6-2.2c0.6-1.1,1.5-1.9,2.6-2.4c0.7-0.3,1.4-0.5,2.2-0.5
		c0.9,0,1.7,0.2,2.4,0.7c1.5,1,2.6,2.6,3.8,4.3c0.6,0.9,1.3,1.6,2,2.3c0.8,0.7,1.9,1,3,0.9c1.1-0.2,2.2-0.7,3-1.5
		c0.9-0.8,1.6-1.8,2.2-2.8c0.6-1.1,1.2-2.2,1.9-3.3c0.7-1.2,1.6-2.1,2.7-2.9c1.1-0.8,2.6-1.1,3.9-0.8c1.3,0.4,2.3,1.3,3.1,2.4
		c0.8,1,1.4,2.1,2.1,3c0.6,0.9,1.6,1.6,2.7,1.7c1.1,0,2.1-0.5,2.7-1.4c0.6-0.8,1.1-1.8,1.5-2.7c0.4-0.9,0.8-1.8,1.4-2.6
		c0.5-0.8,1.2-1.5,2.1-1.9c0.8-0.3,1.7-0.2,2.5,0.1c0.7,0.3,1.3,0.7,1.9,1.1c0.5,0.4,1,0.7,1.6,1.1c0.5,0.3,1,0.4,1.5,0.5
		c0.7,0.2,1.5,0.1,2.1-0.3C311.6,412.8,311.7,412.7,311.9,412.5z"/>
	<path class="st10" d="M310,379.2c0,0,0,0.1-0.1,0.2c-0.1,0.1-0.2,0.3-0.4,0.3c-0.7,0.2-1.4,0.2-2-0.2c-0.8-0.4-1.5-1.3-2.6-1.8
		c-0.6-0.2-1.2-0.1-1.7,0.3c-0.5,0.5-0.8,1.2-0.9,1.9c-0.2,0.8-0.5,1.6-0.8,2.3c-0.2,0.4-0.5,0.8-0.9,1.1c-0.4,0.3-0.9,0.5-1.3,0.5
		c-2,0.2-3.9-1.1-5.1-2.7c-0.7-0.8-1.4-1.5-2.2-2.2c-0.8-0.6-1.9-1-2.9-0.9c-2.2,0.3-4.3,1.5-5.6,3.3c-1.4,1.8-2.4,4-3.6,5.8
		c-1.1,1.9-2.9,3.4-5,4.1c-1,0.3-2.1,0.4-3.1,0.2c-1-0.2-1.8-0.8-2.5-1.5c-1.3-1.3-2.1-2.9-3.4-3.7c-0.6-0.4-1.3-0.6-2-0.5
		c-0.6,0.1-1.2,0.3-1.8,0.6c-0.8,0.6-1.5,1.4-2.1,2.3c-0.9,1.5-1.2,2.4-1.3,2.4c0-0.2,0.1-0.5,0.2-0.7c0.3-0.6,0.6-1.2,0.9-1.8
		c0.5-0.9,1.2-1.8,2.1-2.4c0.6-0.4,1.2-0.7,1.9-0.7c0.8-0.1,1.6,0.1,2.2,0.5c1.4,0.9,2.3,2.4,3.5,3.7c0.6,0.7,1.4,1.1,2.3,1.4
		c0.9,0.2,1.9,0.1,2.8-0.2c2-0.8,3.6-2.2,4.7-4c1.2-1.8,2.2-4,3.7-5.9c1.4-2,3.6-3.2,6-3.5c1.2,0,2.3,0.3,3.2,1
		c0.8,0.7,1.6,1.4,2.3,2.3c0.6,0.8,1.3,1.4,2.2,1.9c0.8,0.5,1.7,0.7,2.6,0.6c0.8-0.1,1.5-0.6,1.9-1.3c0.3-0.7,0.6-1.5,0.8-2.3
		c0.2-0.7,0.5-1.4,1-2c0.6-0.5,1.3-0.6,2-0.3c1.2,0.5,1.8,1.5,2.6,1.9c0.5,0.4,1.2,0.5,1.9,0.3C309.7,379.5,309.9,379.4,310,379.2z"
		/>
	<path class="st10" d="M310.5,344.7c0,0-0.1-0.1-0.5-0.3c-0.5-0.2-1.1-0.3-1.7-0.1c-0.9,0.2-1.6,0.9-2.1,1.7c-0.5,1.1-1,2.3-1.3,3.5
		c-0.2,0.7-0.5,1.4-1,2c-0.5,0.7-1.2,1.2-2,1.5c-0.9,0.2-1.8,0.2-2.6-0.1c-0.9-0.3-1.7-0.7-2.5-1.2c-1.5-1-3-2.4-5-2.7
		c-1-0.2-1.9,0-2.8,0.5c-0.9,0.5-1.7,1.1-2.4,1.9c-1.4,1.5-2.4,3.4-3.7,5c-0.6,0.8-1.4,1.4-2.2,2c-0.8,0.5-1.8,0.8-2.8,0.9
		c-1.8-0.1-3.5-0.8-4.9-2c-1.3-1-2.4-2.1-3.5-2.9c-1-0.7-2.2-1.2-3.4-1.2c-0.9,0-1.8,0.3-2.6,0.8c-0.5,0.3-0.8,0.8-1,1.4
		c-0.1,0.4-0.1,0.6-0.2,0.6c0-0.2,0-0.4,0.1-0.6c0.2-0.6,0.5-1.1,1-1.5c0.8-0.6,1.7-1,2.7-1c1.3,0,2.5,0.5,3.6,1.2
		c1.2,0.8,2.3,1.9,3.6,2.9c1.3,1.1,2.9,1.8,4.6,1.9c1.9-0.2,3.6-1.2,4.6-2.8c1.3-1.5,2.3-3.4,3.7-5c0.7-0.8,1.6-1.5,2.5-2
		c1-0.5,2.1-0.7,3.1-0.5c2.1,0.4,3.6,1.8,5.1,2.8s3.2,1.7,4.7,1.2c0.7-0.2,1.3-0.7,1.8-1.3c0.4-0.6,0.7-1.2,0.9-1.9
		c0.3-1.2,0.8-2.4,1.3-3.5c0.3-0.5,0.6-0.9,1-1.2c0.4-0.3,0.8-0.4,1.2-0.5c0.6-0.2,1.2-0.1,1.8,0.2
		C310.2,344.3,310.4,344.5,310.5,344.7z"/>
	<path class="st10" d="M305.4,328.5c0,0.1,0,0.3-0.1,0.4c-0.1,0.3-0.2,0.7-0.4,1c-0.2,0.5-0.6,1-1.1,1.4c-0.7,0.5-1.6,0.4-2.3-0.1
		c-0.6-0.7-1.1-1.5-1.5-2.3c-0.2-0.4-0.6-0.8-1-1c-0.4-0.3-0.9-0.4-1.4-0.4c-1.1-0.1-2.2,0.3-3,1.1c-0.9,0.8-1.6,1.8-2.1,2.9
		c-0.3,0.6-0.6,1.1-1,1.6c-0.4,0.5-1.1,0.8-1.8,0.8c-0.7-0.1-1.3-0.5-1.6-1c-0.4-0.5-0.7-1-0.8-1.6c-0.2-1-0.6-1.9-1.3-2.7
		c-0.3-0.3-0.7-0.5-1.1-0.6c-0.4-0.1-0.8,0.1-1.1,0.3c-0.5,0.5-0.9,1.2-1,1.9c-0.2,0.6-0.5,1.1-0.9,1.5c-0.2,0.3-0.6,0.5-1,0.5
		c-0.1,0-0.3,0-0.4,0c0.5-0.1,0.9-0.3,1.2-0.7c0.3-0.4,0.6-0.9,0.7-1.5c0.2-0.8,0.5-1.5,1.1-2c0.4-0.3,0.9-0.5,1.4-0.5
		c0.5,0.1,1,0.3,1.4,0.7c0.7,0.8,1.2,1.8,1.4,2.9c0.2,0.5,0.4,1,0.8,1.4c0.3,0.4,0.8,0.7,1.3,0.8c0.5,0,1.1-0.2,1.4-0.6
		c0.4-0.5,0.7-1,1-1.5c0.5-1.2,1.3-2.2,2.2-3.1c0.9-0.8,2.1-1.3,3.4-1.2c0.6,0,1.1,0.2,1.6,0.5c0.4,0.3,0.8,0.7,1.1,1.2
		c0.4,0.8,0.9,1.6,1.4,2.3c0.5,0.5,1.3,0.6,1.9,0.2c0.4-0.3,0.8-0.7,1-1.2C305.2,329,305.3,328.5,305.4,328.5z"/>
	<path class="st10" d="M240.2,328.5c0.1,0.2,0.1,0.3,0.1,0.5c0.1,0.5,0.1,0.9,0.1,1.4c0,0.7-0.1,1.5-0.3,2.2c-0.3,1-1,1.8-1.9,2.2
		c-0.5,0.3-1.2,0.4-1.8,0.2c-0.6-0.2-1.2-0.6-1.6-1.1c-0.4-0.5-0.7-1.1-1-1.7c-0.3-0.6-0.8-1-1.4-1.3c-1.4-0.4-2.8,0.3-3.4,1.5
		c-0.4,0.7-0.6,1.4-0.6,2.1c-0.1,0.8-0.1,1.6,0,2.4c0.1,0.8,0,1.7-0.2,2.5c-0.2,0.8-0.7,1.5-1.4,2c-0.7,0.4-1.6,0.5-2.4,0.2
		c-0.7-0.3-1.4-0.7-1.9-1.2c-1-1.1-1.6-2.3-2.5-3.1c-0.8-0.8-1.9-1.3-3-1.2c-0.9,0-1.8,0.4-2.5,1.1c-0.5,0.5-0.8,1.1-1,1.8
		c-0.1,0.6-0.2,1.2-0.1,1.8c-0.1-0.1-0.1-0.3-0.1-0.5c-0.1-0.5-0.1-0.9,0-1.4c0.4-1.8,1.9-3.1,3.7-3.2c1.2-0.1,2.5,0.4,3.3,1.3
		c0.9,0.9,1.6,2.1,2.6,3.1c0.5,0.5,1.1,0.9,1.7,1.1c0.7,0.3,1.4,0.2,2-0.2c0.6-0.4,1-1,1.2-1.8c0.2-0.8,0.2-1.5,0.1-2.3
		c-0.3-1.6,0-3.3,0.7-4.8c0.8-1.5,2.5-2.2,4.1-1.7c0.7,0.3,1.2,0.8,1.6,1.5c0.4,0.6,0.6,1.2,1,1.6c0.3,0.5,0.8,0.8,1.3,1
		c0.5,0.1,1,0.1,1.5-0.2c0.8-0.4,1.5-1.1,1.8-2c0.2-0.7,0.3-1.4,0.3-2.1C240.2,329.2,240.1,328.5,240.2,328.5z"/>
	<path class="st6" d="M293.7,213.4c-6.8-1.5-13.1,5-20,4.3c-4.2-0.5-7.6-3.5-11.4-5.2c-5.7-2.6-13.5-2.4-18.9,0.9s-8.7,6.6-8.9,12.9
		c-5.3-2.5-13.3,4.6-15.6,11.1s-1.1,12.7,1.1,19.2c3.8,11.2,9.7,21.5,17.5,30.4c0.7,0.8,1.8,1.6,2.7,1.1c0.6-0.5,0.9-1.2,0.8-1.9
		c0.5-6.1-0.8-12.3-1.9-18.3s-1.8-12.3-0.4-18.3s5.5-11.7,11.4-13.4c4.4-1.3,9.1-0.2,13.3,1.7s7.9,4.6,11.8,6.8s8.4,4,12.9,3.8
		s9.2-2.7,10.8-7s-1.1-9.9-5.6-10.5c4.9-0.9,8.1-5.5,7.3-10.3C300,217,297.3,214.2,293.7,213.4L293.7,213.4z"/>
	<path class="st12" d="M282.4,321.3l-1.8-13c0,0,17-4.8,15.1-22.1c-0.9-8.4-4.2-25.5-7.3-40.9c-3.4-16.6-18.9-27.8-35.7-25.8
		l-1.7,0.2c-17.9,3.2-25.1,20.2-21.4,38l10.1,69.6c1.7,11.7,12.6,19.8,24.3,18.2l0,0C275.7,343.8,283.9,333,282.4,321.3z"/>
	<path class="st13" d="M280.6,308.2c-8,1.1-16.1-0.2-23.3-3.7c0,0,6.8,11.8,23.9,8.2L280.6,308.2z"/>
	<path class="st6" d="M283.1,255.8c0.2,1.4-0.7,2.6-2.1,2.9c-1.3,0.2-2.6-0.6-2.8-1.9c0,0,0,0,0-0.1c-0.2-1.4,0.7-2.6,2.1-2.9
		C281.6,253.5,282.9,254.4,283.1,255.8C283.1,255.7,283.1,255.7,283.1,255.8z"/>
	<path class="st6" d="M285.8,255.3c-0.3,0.4-2.3-0.8-5-0.5s-4.5,1.9-4.8,1.6c-0.2-0.1,0.1-0.8,0.9-1.5c1.1-0.9,2.4-1.5,3.8-1.7
		c1.4-0.2,2.8,0.1,4,0.8C285.5,254.6,285.9,255.1,285.8,255.3z"/>
	<path class="st6" d="M257.8,257.9c0.2,1.4-0.7,2.7-2.1,2.9c-1.3,0.2-2.6-0.7-2.8-2c0,0,0-0.1,0-0.1c-0.2-1.4,0.7-2.7,2.1-2.9
		C256.3,255.6,257.6,256.5,257.8,257.9C257.8,257.8,257.8,257.9,257.8,257.9z"/>
	<path class="st6" d="M260.2,257.4c-0.3,0.4-2.3-0.8-5-0.5s-4.4,1.9-4.8,1.6c-0.2-0.1,0.1-0.7,0.9-1.5c1.1-0.9,2.4-1.5,3.8-1.7
		c1.4-0.2,2.8,0.1,4,0.8C260,256.7,260.4,257.2,260.2,257.4z"/>
	<path class="st6" d="M271.7,276.3c0-0.1,1.6-0.6,4.2-1.3c0.7-0.1,1.3-0.4,1.4-0.8c0-0.7-0.3-1.4-0.7-2l-2.6-4.9
		c-3.7-7-6.4-12.8-6.1-13s3.5,5.4,7.2,12.5l2.5,5c0.5,0.8,0.8,1.7,0.7,2.6c-0.1,0.5-0.5,0.9-1,1.1c-0.4,0.1-0.7,0.3-1.1,0.3
		C273.4,276.3,271.7,276.5,271.7,276.3z"/>
	<path class="st6" d="M264.1,279.1c0.4-0.1,0.8,2.8,3.5,4.6s5.8,1.1,5.8,1.5c0.1,0.2-0.6,0.6-1.9,0.8c-1.7,0.2-3.4-0.1-4.8-1.1
		c-1.4-0.9-2.4-2.3-2.8-3.8C263.6,279.9,263.9,279.1,264.1,279.1z"/>
	<path class="st6" d="M258.9,245.2c-0.2,0.8-2.9,0.7-5.9,1.5s-5.5,1.9-6,1.3c-0.2-0.3,0.1-1,1.1-1.8c2.5-2.1,5.9-2.9,9.1-2.1
		C258.3,244.4,259,244.9,258.9,245.2z"/>
	<path class="st6" d="M283.9,246.6c-0.4,0.7-2.3,0.3-4.5,0.5s-4,0.9-4.5,0.3c-0.2-0.3,0-0.9,0.7-1.6c2.1-1.7,4.9-1.9,7.3-0.6
		C283.7,245.6,284,246.2,283.9,246.6z"/>
	<path class="st12" d="M232.6,270.3c-0.3-0.1-12.3-2.1-10.5,9.7s13.3,7.5,13.2,7.2S232.6,270.3,232.6,270.3z"/>
	<path class="st13" d="M231,283.3c-0.1,0-0.2,0.2-0.5,0.4c-0.5,0.3-1,0.4-1.5,0.3c-1.3-0.3-2.7-2.1-3.1-4.2c-0.2-1-0.1-2,0.1-3
		c0.1-0.8,0.6-1.5,1.3-1.8c0.5-0.2,1,0,1.3,0.4c0.2,0.3,0.2,0.5,0.2,0.6s0.2-0.2,0.1-0.7c-0.1-0.3-0.3-0.5-0.6-0.7
		c-0.4-0.2-0.8-0.2-1.2-0.1c-1,0.3-1.7,1.2-1.9,2.2c-0.3,1.1-0.4,2.3-0.2,3.4c0.4,2.4,2,4.4,3.8,4.6c0.7,0.1,1.3-0.1,1.8-0.6
		C231.1,283.5,231.1,283.3,231,283.3z"/>
	<path class="st6" d="M291.7,241.2c-7.5,2.9-16,2.1-22.8-2.3c-4.6-3.1-8.5-7.8-14-8.8c-3.8-0.5-7.6,0.5-10.6,2.8
		c-3,2.3-5.4,5.2-7.3,8.5c4.4,8.4,3.3,18.5,2.1,27.9c0,1.1-0.4,2.1-1,2.9c-1.3,1.2-3.5,0.6-4.8-0.5c-2.2-1.8-3.3-4.6-4.1-7.3
		c-2-6.2-2.8-12.7-2.2-19.2c0.6-6.5,3-12.7,7.1-17.8c5.3-6.3,12.8-10.2,21-11c8.1-0.7,16.3,1.1,23.3,5.3c3.3,1.8,6.2,4.4,8.3,7.5"/>
	<path class="st8" d="M299.2,217c0.1,0.3,0.1,0.7,0,1c-0.2,1-0.6,1.9-1.4,2.6c-1.2,1.1-2.7,1.8-4.2,2c-1,0.2-2,0.2-3,0.2
		c-1.1,0-2.2-0.4-3.2-1c-1.1-0.7-1.8-1.9-1.9-3.2c0-1.4,0.8-2.7,2.1-3.3c0.6-0.3,1.4-0.5,2.1-0.5c0.8,0,1.5,0.2,2.1,0.7
		c1.3,0.9,2.1,2.4,2.3,3.9c0.2,1.6-0.3,3.3-1.3,4.6c-1.1,1.3-2.4,2.3-4,2.9c-3.3,1.2-6.9,1.2-10.3,0.1c-3.3-1-6.4-2.5-9.4-4.2
		c-2.7-1.6-5.6-3-8.5-4.1c-2.7-1-5.5-1.4-8.4-1c-2.5,0.4-4.8,1.3-6.9,2.7c-3,2-5.4,4.8-7,8.1c-0.6,1.1-0.9,2.1-1.2,2.7
		c-0.1,0.3-0.2,0.7-0.4,1c0-0.1,0-0.2,0.1-0.3c0.1-0.2,0.1-0.4,0.2-0.7c0.3-0.9,0.7-1.9,1.1-2.8c1.6-3.3,4-6.2,7-8.3
		c2.1-1.4,4.5-2.4,7-2.8c2.9-0.4,5.9,0,8.6,1c3,1.1,5.9,2.5,8.6,4.1c2.9,1.7,6,3.1,9.3,4.2c3.2,1.1,6.7,1,9.9-0.1
		c1.5-0.6,2.8-1.5,3.8-2.8c1-1.2,1.4-2.7,1.3-4.2c-0.1-1.4-0.8-2.7-2-3.6c-1.1-0.7-2.6-0.8-3.7-0.1c-1.1,0.5-1.9,1.6-1.9,2.9
		c0.1,1.2,0.7,2.2,1.7,2.8c0.9,0.6,1.9,0.9,3,1c1,0.1,1.9,0,2.9-0.1c1.5-0.2,3-0.8,4.1-1.8c0.7-0.7,1.2-1.5,1.4-2.5
		C299.2,217.3,299.2,217,299.2,217z"/>
	<path class="st8" d="M218,247.8c1.2,0.3,2.5,0.5,3.7,0.5c1.4,0,2.7-0.3,3.9-0.9c1.5-0.7,2.9-1.6,4.2-2.7c2.3-2,3.8-4.7,4.4-7.7
		c0.2-1.2,0.3-2.5,0.4-3.8c0.1,0.3,0.2,0.7,0.2,1c0.1,0.9,0,1.9-0.1,2.8c-0.5,3.1-2.1,6-4.4,8.1c-1.3,1.1-2.8,2-4.4,2.7
		c-1.3,0.6-2.7,0.8-4.1,0.8c-0.9,0-1.9-0.2-2.8-0.5C218.6,248.1,218.3,248,218,247.8z"/>
	<path class="st8" d="M219.5,256.3c0-0.1,1.4,0,3.6-0.4c5.9-1,10.8-5.1,12.7-10.8c0.8-2.1,0.8-3.5,1-3.5c0.1,0.3,0.1,0.7,0,1
		c-0.1,0.9-0.3,1.8-0.6,2.7c-1.8,5.9-6.9,10.2-13,11.1c-0.9,0.1-1.8,0.2-2.7,0.1C220.3,256.4,219.9,256.4,219.5,256.3z"/>
	<path class="st13" d="M252.2,270.1c-0.2,0-0.3-0.1-0.4-0.2c0,0,0,0,0,0c-0.1-0.2,0-0.3,0.2-0.4c0,0,0,0,0,0c0.2,0,0.3,0.1,0.4,0.2
		C252.4,269.9,252.4,270.1,252.2,270.1C252.2,270.1,252.2,270.1,252.2,270.1z"/>
	<path class="st13" d="M257.1,268.4c-0.2,0-0.4-0.1-0.4-0.4c0-0.1,0.1-0.3,0.2-0.3c0.2,0,0.4,0.1,0.4,0.3
		C257.4,268.1,257.3,268.3,257.1,268.4z"/>
	<path class="st13" d="M260.5,267.9c-0.1,0-0.3-0.1-0.4-0.4s0-0.5,0.2-0.5s0.3,0.1,0.4,0.4S260.7,267.9,260.5,267.9z"/>
	<path class="st13" d="M255.1,273c-0.2,0-0.3,0-0.3-0.2s0.1-0.2,0.3-0.2s0.3,0,0.3,0.1S255.2,273,255.1,273z"/>
	<path class="st13" d="M259.6,271.4c-0.2,0.1-0.4,0-0.4-0.2c-0.1-0.2,0-0.4,0.2-0.4c0.2-0.1,0.4,0,0.4,0.2c0,0,0,0,0,0
		C259.9,271.2,259.8,271.4,259.6,271.4z"/>
	<path class="st13" d="M283.5,265.6c-0.2,0-0.3-0.1-0.4-0.2c0,0,0,0,0,0c-0.1-0.2,0-0.3,0.2-0.4c0,0,0,0,0,0c0.2,0,0.3,0.1,0.4,0.2
		c0,0,0,0,0,0C283.7,265.3,283.7,265.5,283.5,265.6z"/>
	<path class="st13" d="M286.9,264.9c-0.2,0-0.3-0.1-0.4-0.3c-0.1-0.2,0-0.4,0.2-0.4c0.2,0,0.4,0.2,0.4,0.4
		C287.1,264.7,287.1,264.8,286.9,264.9z"/>
	<path class="st13" d="M280.5,266c-0.1,0.1-0.3,0-0.4-0.1c0-0.1,0-0.3,0.2-0.3c0,0,0,0,0,0c0.1-0.1,0.3,0,0.3,0.1
		S280.7,265.9,280.5,266C280.5,266,280.5,266,280.5,266L280.5,266z"/>
	<path class="st13" d="M283.4,269.2c-0.2,0.1-0.3,0-0.4-0.1c-0.1-0.1-0.1-0.3,0-0.4c0.1-0.1,0.3-0.1,0.4,0c0,0,0,0.1,0.1,0.1
		C283.6,268.9,283.6,269.1,283.4,269.2z"/>
	<path class="st13" d="M286.3,268.3c-0.2,0-0.3-0.1-0.3-0.3c0-0.1,0.2-0.2,0.3-0.2c0,0,0,0,0,0c0.2,0,0.3,0.1,0.3,0.3
		C286.6,268.2,286.5,268.3,286.3,268.3z"/>
	<path class="st6" d="M221.4,276.5c0,0.1-0.6,0-1.2-0.7c-0.3-0.5-0.4-1-0.3-1.5c0.1-0.6,0.5-1.2,1.1-1.6c0.5-0.4,1.2-0.5,1.9-0.5
		c0.5,0.1,1,0.2,1.4,0.5c0.7,0.5,0.8,1.1,0.8,1.1s-0.3-0.4-1-0.8c-0.9-0.5-1.9-0.5-2.8,0c-0.4,0.3-0.8,0.8-0.9,1.3
		c-0.1,0.4,0,0.9,0.2,1.3C220.9,276.3,221.5,276.4,221.4,276.5z"/>
	<path class="st12" d="M311,405.7l0.9,25.8c0,0-74.9,14.8-84.5,19.8s-13.6,5.7-13,20l119.6-0.2c0,0,14.7-5.5,14.5-21.6
		s-4.3-54.6-4.3-54.6L311,405.7z"/>
	<path class="st12" d="M226.8,471.7l9.9-0.9l9.5-22.7c-1.5-0.3-33.6-5-35.4-4.5l-7.7,27.3C203.1,470.9,226.1,471.7,226.8,471.7z"/>
	<path class="st12" d="M204.9,471.4c0.2,0.1,0.3,0.1,0.5,0.1c2.6,0.3,14.9-0.5,14.9-0.5c0.6-1.6-0.5-6.3-2-6.6s-14.5,0.6-14.5,0.6
		s-2,0.3-2.6,3.7C200.9,470.9,204.9,471.4,204.9,471.4z"/>
	<path class="st12" d="M200.8,464.4c0.2,0.1,0.3,0.1,0.5,0.1c2.6,0.3,14.2,0.2,14.7-1.3c0.6-1.6-0.3-5.5-1.8-5.8s-14.5,0.6-14.5,0.6
		s-2,0.3-2.6,3.7C196.7,463.9,200.8,464.4,200.8,464.4z"/>
	<path class="st12" d="M198.7,457.6c0.2,0.1,0.3,0.1,0.5,0.1c2.6,0.3,14.2,0.2,14.7-1.3c0.6-1.6-0.3-5.5-1.9-5.8s-14.5,0.6-14.5,0.6
		s-2,0.3-2.6,3.7C194.7,457.1,198.7,457.6,198.7,457.6z"/>
	<path class="st12" d="M196.8,450.9c0,0,0.2,0.1,0.5,0.1c2.6,0.3,14.2,0.2,14.7-1.2c0.6-1.6-0.3-5.5-1.9-5.8s-14.5,0.6-14.5,0.6
		s-2,0.3-2.6,3.7C192.8,450.4,196.8,450.9,196.8,450.9z"/>
	<path class="st13" d="M214.9,464.4c0,0.2-2.5,0.4-5.6,0.5s-5.6,0-5.6-0.2s2.5-0.4,5.6-0.5S214.9,464.2,214.9,464.4z"/>
	<path class="st13" d="M214.9,457.6c0,0.2-3.6,0.5-8,0.6s-8,0.1-8-0.1s3.6-0.5,8-0.6S214.9,457.4,214.9,457.6z"/>
	<g class="st14">
		<path class="st13" d="M214.4,450.6c0,0.2-3.6,0.5-8,0.6s-8,0.1-8-0.1s3.6-0.5,8-0.6S214.4,450.5,214.4,450.6z"/>
	</g>
	<path class="st12" d="M232.9,446.4c0,0-21.8-9.7-23.1-8.3s-3.5,5.9-3.5,5.9L232.9,446.4z"/>
	<path class="st13" d="M328.6,454c-0.1,0-0.5-1.6-1.6-4c-0.6-1.4-1.3-2.8-2.1-4.1c-0.9-1.6-2-3.2-3.1-4.7c-1.2-1.5-2.4-2.8-3.8-4.1
		c-1.1-1.1-2.3-2.1-3.5-3c-2.1-1.6-3.5-2.4-3.5-2.5c0.4,0.1,0.7,0.3,1,0.5c0.9,0.5,1.8,1.1,2.7,1.7c1.3,0.9,2.5,1.9,3.6,3
		c1.4,1.3,2.7,2.7,3.9,4.2c1.2,1.5,2.2,3.1,3.2,4.8c0.8,1.4,1.4,2.8,2,4.2c0.4,1,0.7,2,1,3C328.4,453.3,328.5,453.7,328.6,454z"/>
	<path class="st12" d="M240.9,332.5l-22.5,64.2l-25.3,7.3c0,0,9.2,38.9,18.6,45.9c3.2,2.4,8.4,4.9,13.7,4.6
		c10.1-0.7,21.5-7.9,25.8-17.8c3.8-8.9,14.1-100.5,14.1-100.5L240.9,332.5z"/>
	<path class="st12" d="M265,338.8l1.3-15.6l-3.6-12.5l-1.4-4.8l2.7,2.8l5-5.3c0,0-1.6-9.5-3-9.5c-1.7,0.3-3.4,0.8-5.1,1.5
		c-1,0.4-1.8,0.7-1.8,0.7l-4.2,2.2l4.2-6.5c0,0,4.4,3.6,6.6,0.5c1.7-2.4-4.6-7.8-7-9.7c-0.6-0.4-1.3-0.6-2-0.5l-2.5,0.5
		c-0.2-1.9-1.7-3.3-3.6-3.3c-2,0-3.8,1.1-4.8,2.9l-2.6,0.5c-1.8,0-3.4,1.1-4.1,2.8l-5.7,15.6l7.3,31.6"/>
	<path class="st13" d="M240.9,332.5c0,0-0.1-0.2-0.2-0.6s-0.2-1-0.4-1.7c-0.4-1.5-0.9-3.6-1.5-6.3c-1.3-5.5-3.2-13.4-5.4-23v-0.1
		v-0.1c1.1-3.1,2.3-6.4,3.6-9.8l1.9-5.3c0.3-1,0.8-1.8,1.6-2.5c0.8-0.7,1.8-1,2.9-1l0,0l2.6-0.5l-0.2,0.1c0.5-0.8,1.1-1.5,1.9-2
		c0.8-0.6,1.8-0.9,2.7-0.9c1-0.1,2,0.2,2.8,0.9c0.8,0.6,1.4,1.6,1.4,2.7l-0.3-0.3l1.9-0.4c0.3-0.1,0.7-0.1,1-0.2c0.4,0,0.7,0,1,0.1
		c0.3,0.1,0.6,0.3,0.9,0.5l0.8,0.6c0.5,0.4,1,0.9,1.5,1.3c1,0.9,1.9,1.8,2.8,2.8c1,1,1.7,2.2,2.1,3.5c0.1,0.4,0.1,0.9,0,1.3
		c-0.2,0.4-0.4,0.7-0.7,1c-0.6,0.6-1.4,0.9-2.3,0.8c-1.6-0.2-3-0.8-4.2-1.8l0.4,0c-1.4,2.2-2.9,4.4-4.2,6.5l-0.3-0.4l4.2-2.2l0,0
		c1.4-0.5,2.8-1.1,4.3-1.5c0.7-0.2,1.4-0.4,2.2-0.6c0.2,0,0.4,0,0.6,0c0.2,0.1,0.4,0.2,0.6,0.4c0.2,0.3,0.4,0.6,0.5,1
		c0.9,2.7,1.6,5.4,2,8.2v0.1l-0.1,0.1c-1.7,1.8-3.4,3.6-5,5.3l-0.2,0.2l-0.2-0.2l-2.7-2.8l0.4-0.2c1.9,6.7,3.6,12.5,5,17.4v0
		c-0.5,4.9-0.8,8.8-1,11.5l-0.3,3.1c0,0.3-0.1,0.6-0.1,0.8c0,0.1,0,0.2,0,0.3c0,0,0-0.1,0-0.3s0-0.5,0-0.8c0-0.7,0.1-1.7,0.2-3.1
		c0.2-2.7,0.5-6.6,0.9-11.5v0c-1.4-4.8-3.1-10.6-5.1-17.3l-0.2-0.8l0.6,0.6l2.8,2.8h-0.3l5-5.3l-0.1,0.2c-0.4-2.8-1.1-5.5-2-8.1
		c-0.1-0.3-0.3-0.6-0.5-0.9c-0.1-0.1-0.2-0.2-0.3-0.3c-0.1,0-0.3,0-0.5,0c-0.7,0.2-1.4,0.4-2.1,0.6c-1.4,0.5-2.8,1-4.2,1.5l0,0
		l-4.2,2.2l-0.9,0.4l0.5-0.8l4.2-6.5l0.1-0.2l0.2,0.2c1.1,0.9,2.5,1.5,3.9,1.7c1.1,0.1,2-0.5,2.5-1.5c0.1-0.3,0.1-0.7,0-1
		c-0.4-1.2-1.1-2.3-2-3.3c-0.9-1-1.8-1.9-2.8-2.8c-0.5-0.4-1-0.9-1.5-1.3c-0.4-0.4-0.9-0.8-1.5-1.1c-0.6-0.2-1.2-0.2-1.8,0l-1.9,0.4
		l-0.3,0.1v-0.3c0-0.9-0.5-1.7-1.2-2.2c-0.7-0.6-1.6-0.8-2.5-0.8c-1.8,0.1-3.4,1.1-4.2,2.7l-0.1,0.1h-0.1l-2.6,0.5l0,0
		c-0.9,0-1.8,0.3-2.6,0.9c-0.7,0.6-1.2,1.4-1.5,2.3c-0.7,1.8-1.3,3.5-1.9,5.3c-1.3,3.4-2.5,6.7-3.6,9.8v-0.1
		c2.2,9.6,4,17.5,5.3,23.1l1.4,6.4c0.2,0.7,0.3,1.3,0.4,1.7C240.9,332,240.9,332.2,240.9,332.5z"/>
	<path class="st13" d="M259,303.8c1.4-0.9,2.9-1.7,4.4-2.4l1.6-0.8l-1.4,1.2c-1,0.9-1.5,2.2-1.4,3.5c0,0.7,0.3,1.3,0.6,1.9
		c0.4,0.5,0.8,1,1.2,1.4c0,0-0.8-0.2-1.5-1.3c-0.4-0.6-0.7-1.3-0.8-2c-0.1-0.9,0.1-1.8,0.5-2.6c0.3-0.5,0.6-0.9,1-1.3l0.3,0.4
		C262.1,302.6,260.6,303.3,259,303.8z"/>
	<path class="st13" d="M247,295.3c0.3-0.8,0.7-1.6,1.2-2.4c0.8-1.4,2-3.4,3.3-5.5c0.7-1.1,1.3-2.1,1.9-3c0.5-0.9,1.2-1.6,2.1-2.1
		c0.6-0.3,1.3-0.5,1.9-0.4c0.2,0,0.5,0.1,0.7,0.2c0,0-0.3,0-0.7,0c-0.6,0-1.2,0.2-1.8,0.5c-1.4,0.8-2.4,3-3.7,5s-2.5,4-3.4,5.4
		C248.1,293.9,247.6,294.6,247,295.3z"/>
	<path class="st13" d="M239.3,295.3c0.2-0.7,0.4-1.4,0.7-2.1c0.5-1.3,1.3-3,2.3-4.9s1.9-3.6,2.6-4.8c0.3-0.7,0.8-1.3,1.3-1.9
		c-0.2,0.7-0.5,1.4-0.9,2c-0.7,1.4-1.5,3-2.4,4.8l-2.4,4.9C240.1,293.9,239.7,294.6,239.3,295.3z"/>
	<path class="st13" d="M221.2,390.3c-0.1,0.4-0.2,0.8-0.4,1.2l-1.1,3.1c-1,2.6-2.3,6.2-3.8,10.3s-2.7,7.7-3.5,10.3
		c-0.4,1.3-0.8,2.3-1.1,3.1c-0.1,0.4-0.3,0.8-0.4,1.1c0-0.4,0.1-0.8,0.3-1.2c0.2-0.8,0.5-1.9,0.9-3.2c0.8-2.7,2-6.4,3.4-10.4
		s2.8-7.6,3.9-10.2c0.5-1.3,1-2.3,1.3-3C220.8,391,220.9,390.7,221.2,390.3z"/>
	<path class="st13" d="M254.6,419.9c0,0.1,0,0.2,0,0.3c0,0.2-0.1,0.5-0.1,0.9c-0.1,0.8-0.3,1.9-0.5,3.3s-0.5,3.2-0.9,5.2
		c-0.4,2.3-1.1,4.6-1.9,6.8c-1,2.7-2.5,5.2-4.4,7.3c-2.2,2.4-4.8,4.5-7.6,6.1c-3.1,1.8-6.5,3.2-10,4.1c-1.9,0.5-3.8,0.8-5.7,0.8
		c-2,0-4-0.3-5.8-1c-3.7-1.4-6.9-3.8-9.3-6.9c-2.2-2.8-4.1-6-5.4-9.4c-1.3-3.2-2.1-6.4-3-9.3s-1.7-5.6-2.5-8.1
		c-1.6-5-2.7-9-3.5-11.8c-0.4-1.4-0.6-2.5-0.8-3.2l-0.2-0.9c0-0.1,0-0.2,0-0.3c0,0.1,0.1,0.2,0.1,0.3c0.1,0.2,0.1,0.5,0.2,0.8
		c0.2,0.8,0.5,1.9,0.9,3.2c0.8,2.8,2,6.8,3.6,11.7c0.8,2.5,1.6,5.2,2.6,8.1s1.7,6.1,3,9.2c1.3,3.3,3.1,6.4,5.3,9.2
		c2.4,3,5.5,5.3,9.1,6.7c1.8,0.7,3.7,1,5.6,1c1.9,0,3.7-0.3,5.6-0.8c3.4-0.9,6.8-2.3,9.9-4.1c2.8-1.6,5.3-3.6,7.5-6
		c1.9-2.1,3.4-4.5,4.4-7.1c0.8-2.2,1.5-4.4,1.9-6.7c0.4-2,0.7-3.8,1-5.2s0.4-2.5,0.6-3.3l0.2-0.9C254.5,420.1,254.6,420,254.6,419.9
		z"/>
</g>
<g id="freepik--Desk--inject-1134">
	<path class="st6" d="M469,471.1c0,0.1-97.5,0.3-217.7,0.3s-217.7-0.1-217.7-0.3s97.4-0.3,217.7-0.3S469,471,469,471.1z"/>
</g>
<g>
	<circle class="st1" cx="440.9" cy="301.2" r="6"/>
	<path class="st1" d="M453,269.5c0-2,1.7-3.7,3.7-3.7c2,0,3.7,1.7,3.7,3.7s-1.7,3.7-3.7,3.7c0,0,0,0,0,0
		C454.6,273.2,453,271.6,453,269.5z"/>
	<path class="st1" d="M437.1,243.3c-0.6-1.8,0.4-3.7,2.1-4.3c1.8-0.6,3.7,0.4,4.3,2.1c0.6,1.8-0.4,3.7-2.1,4.3c0,0,0,0,0,0
		C439.6,246,437.7,245.1,437.1,243.3z"/>
	<circle class="st1" cx="416.6" cy="361.8" r="5.5"/>
	<circle class="st1" cx="417.9" cy="405.1" r="4"/>
	<path class="st1" d="M416.4,450.7c0,1.6-1.3,2.8-2.8,2.8c-1.6,0-2.8-1.3-2.8-2.8c0-1.6,1.3-2.8,2.8-2.8c0,0,0,0,0,0
		C415.1,447.9,416.4,449.2,416.4,450.7z"/>
	<circle class="st1" cx="433.1" cy="361.8" r="5.5"/>
	<circle class="st1" cx="452.9" cy="401.1" r="4"/>
	<path class="st1" d="M441.3,445.3c-0.3,1.5-1.9,2.5-3.4,2.1c-1.5-0.3-2.5-1.9-2.1-3.4c0.3-1.5,1.9-2.5,3.4-2.1
		C440.7,442.2,441.6,443.8,441.3,445.3z"/>
	
		<ellipse transform="matrix(0.7071 -0.7071 0.7071 0.7071 -108.73 395.2808)" class="st1" cx="422.8" cy="328.9" rx="9.2" ry="9.2"/>
	<circle class="st1" cx="422.9" cy="289.8" r="6"/>
	<path class="st0" d="M460,273.6c0,0-9.5,21.4-13.4,26c-2.6-0.9-5-2.3-7-4.2c0,0,11.4-21.7,13.3-25.4L460,273.6z"/>
	<path class="st0" d="M459.3,265c-0.1-0.4-15-23-15-23l-6.5,4.5L452,270L459.3,265z"/>
	<path class="st0" d="M443.7,240.6c0,0,9.6-10.8,2.9-14.5s-8.5,9.1-7.9,12.7l5.3,2"/>
	<path class="st1" d="M449,470.5h-46.9c0-8.2,6.6-14.8,14.8-14.8c0,0,0,0,0,0h17.2C442.3,455.7,449,462.3,449,470.5z"/>
	<path class="st1" d="M423.6,335.8c0.2,0,0.3,26.9,0.3,60.2s-0.1,60.2-0.3,60.2s-0.3-26.9-0.3-60.2S423.5,335.8,423.6,335.8z"/>
	<path class="st0" d="M413,332c0,0-5.5,8.9-4,26.5h28.8c0,0,1.8-20.9-5-27L413,332z"/>
	<polygon class="st0" points="410.2,366.5 423.4,366.5 422.1,403.7 413.1,403.7 	"/>
	<polygon class="st0" points="412.9,406.3 410.2,449 416.8,450.2 422.7,407.5 	"/>
	<path class="st0" d="M407.3,455.7c0,0,0.1-5.3,5.4-5.5s5.9,5.5,5.9,5.5H407.3z"/>
	<polygon class="st0" points="429.4,367.9 441.4,362.4 455.8,396.8 447.6,400.6 	"/>
	<polygon class="st0" points="447.8,401.1 435.6,442.2 441.8,444.9 457.1,404.5 	"/>
	<path class="st0" d="M432.7,448.5c0.3,0.6,16.2,6.5,16.2,6.5s3.8-3.4-8.1-8.8l-2.5-1.1c-1.9-0.9-4.1-0.1-5,1.8
		c-0.1,0.1-0.1,0.2-0.1,0.3L432.7,448.5z"/>
	<path class="st0" d="M408.1,293.1c-0.4,0.1,0.4,23.5,5.5,32.2c0,0,18.5-0.6,18.9,0s6.4-20.4,5.9-31.7
		C438.5,293.7,425.5,289,408.1,293.1z"/>
	<path class="st0" d="M420.3,256.7c0,0-11.8,0.3-9.6,15.3c2.2,15,4.6,15,4.7,15.4s14.8-1,14.8-1S438.3,256.1,420.3,256.7z"/>
</g>
<path class="st6" d="M400.2,360.8c0.2,0.3,5.3,5.6,5.3,5.6c-0.6,0.4-1.4,0.5-2,0.2c-1.2-0.4-4.7-4.4-4.7-4.4L400.2,360.8z"/>
<path class="st6" d="M402.6,366.4c0,0-0.3,0.7-1.7,0.3c-1.3-0.4-3.9-3.7-3.9-3.7s1.7-0.7,1.7-0.7L402.6,366.4z"/>
<path class="st6" d="M400.2,366.4c0,0-0.3,0.7-1.7,0.3s-3.9-3.7-3.9-3.7c0.1,0,1.7-0.7,1.7-0.7L400.2,366.4z"/>
<path class="st6" d="M393.2,351c1.4,1.1,1.6,3,0.5,4.4c-1.1,1.4-3,1.6-4.4,0.5c-1.4-1.1-1.6-3-0.5-4.4c0,0,0,0,0,0
	C389.9,350.1,391.9,349.9,393.2,351z"/>
<polygon class="st1" points="402.4,310.7 408.9,293.9 410.4,294.4 403.9,311.5 "/>
<path class="st6" d="M404.4,310.2c-0.3-0.1-0.5-0.1-0.8-0.3c-0.3-0.1-0.5-0.2-0.7-0.4c0.3,0.1,0.5,0.1,0.8,0.3
	C403.9,309.9,404.2,310,404.4,310.2z"/>
<path class="st6" d="M402,309.2c-0.3,0-0.5-0.1-0.8-0.2c-0.3-0.1-0.5-0.2-0.8-0.3c0.3,0,0.5,0.1,0.8,0.2
	C401.5,308.9,401.8,309,402,309.2z"/>
<path class="st6" d="M402.4,308.2c-0.3,0-0.5-0.1-0.8-0.2c-0.3-0.1-0.5-0.2-0.8-0.3c0.3,0,0.5,0.1,0.8,0.2
	C401.9,307.9,402.1,308,402.4,308.2z"/>
<path class="st6" d="M402.7,307.2c-0.3,0-0.6-0.1-0.8-0.2c-0.3-0.1-0.5-0.2-0.8-0.3c0.3,0,0.6,0.1,0.8,0.2
	C402.2,307,402.5,307.1,402.7,307.2z"/>
<path class="st6" d="M403.1,306.2c-0.3,0-0.6-0.1-0.8-0.2c-0.3-0.1-0.5-0.2-0.8-0.3c0.3,0,0.6,0.1,0.8,0.2
	C402.6,306,402.8,306.1,403.1,306.2z"/>
<path class="st6" d="M403.4,305c-0.3,0-0.5-0.1-0.8-0.1c-0.3,0-0.5-0.1-0.8-0.2c0.3,0,0.5,0.1,0.8,0.1
	C402.9,304.8,403.2,304.9,403.4,305z"/>
<path class="st6" d="M403.8,304c-0.3,0-0.5-0.1-0.8-0.2c-0.3-0.1-0.5-0.2-0.7-0.3c0.3,0,0.5,0.1,0.8,0.2
	C403.3,303.8,403.5,303.9,403.8,304z"/>
<path class="st6" d="M404.2,302.9c-0.3,0-0.5-0.1-0.8-0.2c-0.3-0.1-0.5-0.2-0.7-0.3c0.3,0,0.5,0.1,0.8,0.2
	C403.7,302.7,403.9,302.8,404.2,302.9z"/>
<path class="st6" d="M404.6,301.7c-0.5,0-1.1-0.2-1.6-0.4c0.3,0,0.5,0,0.8,0.1C404.1,301.5,404.4,301.6,404.6,301.7z"/>
<path class="st6" d="M404.9,300.7c-0.3,0-0.5-0.1-0.8-0.2c-0.3-0.1-0.5-0.1-0.8-0.3C403.9,300.3,404.4,300.5,404.9,300.7
	L404.9,300.7z"/>
<path class="st6" d="M405.4,299.6c-0.3,0-0.6-0.1-0.8-0.2c-0.3,0-0.5-0.1-0.8-0.3c0.3,0,0.6,0.1,0.8,0.2
	C404.9,299.4,405.1,299.5,405.4,299.6z"/>
<polygon class="st1" points="403.5,312.5 409.4,298.1 408.9,297.7 402.9,312.4 "/>
<path class="st6" d="M403.9,311.5c0,0-0.1,0-0.3,0c-0.1-0.1-0.2-0.1-0.2-0.2c0,0,0.1,0,0.3,0C403.8,311.4,403.9,311.4,403.9,311.5z"
	/>
<path class="st6" d="M404.3,310.6c0,0-0.1,0-0.3,0c-0.2,0-0.3-0.1-0.3-0.1c0,0,0.1,0,0.3,0C404.2,310.5,404.3,310.5,404.3,310.6z"/>
<path class="st6" d="M404.6,309.7c0,0-0.1,0-0.3,0c-0.1-0.1-0.3-0.1-0.2-0.1c0,0,0.1,0,0.3,0C404.5,309.6,404.6,309.7,404.6,309.7z"
	/>
<path class="st6" d="M405,308.7c0,0-0.1,0-0.3,0c-0.1,0-0.2-0.1-0.2-0.1s0.1,0,0.3,0C404.9,308.6,405,308.7,405,308.7z"/>
<path class="st6" d="M404.9,307.5c0,0,0.1,0,0.3,0.1c0.1,0.1,0.3,0.1,0.2,0.2c0,0-0.1,0-0.3-0.1S404.9,307.5,404.9,307.5z"/>
<path class="st6" d="M405.9,306.8c0,0-0.1,0-0.3-0.1c-0.2-0.1-0.3-0.1-0.3-0.2c0,0,0.1,0,0.3,0.1
	C405.8,306.6,405.9,306.7,405.9,306.8z"/>
<path class="st6" d="M406.2,305.8c0,0-0.1,0-0.3,0c-0.1,0-0.3-0.1-0.2-0.1c0,0,0.1,0,0.3,0C406.1,305.7,406.2,305.7,406.2,305.8z"/>
<path class="st6" d="M406.6,304.8c0,0-0.1,0-0.3-0.1c-0.1-0.1-0.2-0.1-0.2-0.2s0.1,0,0.3,0.1C406.6,304.7,406.7,304.7,406.6,304.8z"
	/>
<path class="st6" d="M407.1,303.6C407.1,303.6,407.1,303.7,407.1,303.6L407.1,303.6L407.1,303.6c-0.1,0.1-0.2,0.1-0.3,0
	c-0.2-0.1-0.3-0.1-0.3-0.1c0,0,0.1,0,0.3,0C406.9,303.6,407,303.6,407.1,303.6L407.1,303.6L407.1,303.6z"/>
<path class="st6" d="M407.5,302.6c0,0-0.1,0-0.3,0c-0.1-0.1-0.2-0.1-0.2-0.2s0.1,0,0.3,0C407.4,302.5,407.5,302.6,407.5,302.6z"/>
<path class="st6" d="M400.6,308.9c0,0-3,9.4-4.4,17l5.2,2.8l7.3-15l-3.7-2.5L400.6,308.9z"/>
<path class="st4" d="M394.2,322.3l8.5,7c0,0-1,7.7-2.1,10.2s-6,12.3-6,12.3l-5.2-1.1c0,0,0.8-13.6,1.9-18.8
	C392.1,328.6,393.1,325.4,394.2,322.3z"/>
<path class="st6" d="M390.6,325.9c0.1,0.1,0.2,0.1,0.3,0.2c0.2,0.2,0.5,0.4,0.8,0.6c0.7,0.6,1.6,1.4,2.7,2.4l0,0l0,0.1l-1,5.9l0-0.1
	c0.4,0.3,0.7,0.7,1.1,1l0.1,0.1l0,0.1l-0.5,1.7l-2.6,9.6l-0.8,2.9l-0.2,0.8c0,0.1-0.1,0.2-0.1,0.3c0-0.1,0-0.2,0-0.3l0.2-0.8
	l0.7-2.9l2.5-9.7l0.5-1.7l0,0.1c-0.4-0.4-0.8-0.7-1.1-1l-0.1,0l0-0.1l1.1-5.9l0,0.1c-1.1-1-2-1.8-2.6-2.5l-0.7-0.7
	C390.8,326,390.7,326,390.6,325.9z"/>
<path class="st4" d="M395.6,353.6l1.3,0.2l4.8,7.3c0,0-3.1,3-6.4,1.8l-3.3-6.9L395.6,353.6z"/>
<path class="st6" d="M397.9,355.7c0.3-0.2,0.9-1,2.4,0.2s4.8,5.7,4.8,5.7s-0.8,1.1-1.9-0.1L397.9,355.7z"/>
<path class="st2" d="M401.4,328.7c0,0.3-0.1,0.6-0.2,0.9c-0.1,0.6-0.4,1.4-0.7,2.5c-0.6,2.1-1.4,5-2.5,8.1s-2.1,6-2.8,8
	c-0.4,1-0.7,1.8-1,2.4c-0.1,0.3-0.2,0.6-0.4,0.9c0.1-0.3,0.2-0.6,0.3-0.9l0.9-2.4c0.7-2,1.7-4.9,2.8-8c1-3.1,1.9-6,2.5-8.1l0.7-2.5
	C401.1,329.3,401.2,329,401.4,328.7z"/>
<rect x="59.2" y="275.1" class="st4" width="3.1" height="57.3"/>
<rect x="64.7" y="275.1" class="st4" width="3.7" height="15.3"/>
<rect x="69.8" y="278.5" class="st4" width="3.7" height="3.5"/>
<path class="st4" d="M108.4,302.5c0,0.1-7.2,0.3-16.1,0.3s-16.1-0.1-16.1-0.3s7.2-0.3,16.1-0.3S108.4,302.3,108.4,302.5z"/>
<path class="st4" d="M108.4,306.4c0,0.1-7.2,0.3-16.1,0.3s-16.1-0.1-16.1-0.3s7.2-0.3,16.1-0.3S108.4,306.2,108.4,306.4z"/>
<path class="st4" d="M108.2,298.7c0,0.1-7.2,0.3-16.1,0.3s-16.1-0.1-16.1-0.3s7.2-0.3,16.1-0.3S108.2,298.6,108.2,298.7z"/>
<g id="freepik--Books--inject-64">
	<rect x="114.3" y="397.3" class="st0" width="17.6" height="21"/>
	<rect x="35.2" y="395.9" class="st4" width="79.7" height="23.6"/>
	<path class="st4" d="M132.5,397.9h-19.7v-2h19.7c0.6,0,1,0.4,1,1l0,0C133.5,397.4,133,397.9,132.5,397.9z"/>
	<path class="st4" d="M132.5,419.5h-19.7v-2h19.7c0.6,0,1,0.4,1,1l0,0C133.5,419.1,133,419.5,132.5,419.5z"/>
	<g class="st15">
		<rect x="99.2" y="395.9" width="9.4" height="23.6"/>
	</g>
	<g class="st15">
		<rect x="42.3" y="395.9" width="9.4" height="23.6"/>
	</g>
	<path class="st1" d="M131.9,400.7c0,0-3.8,0.1-8.5,0.1c-4.7,0-8.5,0-8.5-0.1c0-0.1,3.8-0.1,8.5-0.1
		C128.1,400.6,131.9,400.7,131.9,400.7z"/>
	<path class="st1" d="M131.9,403.9c0,0.1-3.8,0.1-8.5,0.1c-4.7,0-8.5,0-8.5-0.1c0-0.1,3.8-0.1,8.5-0.1
		C128.1,403.8,131.9,403.8,131.9,403.9z"/>
	<path class="st1" d="M131.9,407.7c0,0.1-3.8,0.1-8.5,0.1c-4.7,0-8.5,0-8.5-0.1c0-0.1,3.8-0.1,8.5-0.1
		C128.1,407.6,131.9,407.7,131.9,407.7z"/>
	<path class="st1" d="M131.9,411.7c0,0.1-3.8,0.1-8.5,0.1c-4.7,0-8.5,0-8.5-0.1s3.8-0.1,8.5-0.1
		C128.1,411.5,131.9,411.5,131.9,411.7z"/>
	<path class="st1" d="M131.9,415.5c0,0.1-3.8,0.1-8.5,0.1c-4.7,0-8.5,0-8.5-0.1s3.8-0.1,8.5-0.1
		C128.1,415.4,131.9,415.4,131.9,415.5z"/>
	<g class="st7">
		<rect x="58.3" y="405.6" width="35.8" height="4.3"/>
	</g>
	<rect x="113.8" y="420" class="st10" width="17.9" height="12.8"/>
	<rect x="37.9" y="419.5" class="st8" width="76.2" height="13.7"/>
	<path class="st8" d="M113.5,420.5h19.2c0.3,0,0.5-0.2,0.5-0.5l0,0c0-0.3-0.2-0.5-0.5-0.5h-19.2V420.5z"/>
	<path class="st8" d="M113.5,432.3h19.3c0.2,0,0.4,0.2,0.4,0.4l0,0v0.1c0,0.2-0.2,0.4-0.4,0.4h0h-19.3l0,0V432.3L113.5,432.3z"/>
	<path class="st1" d="M131.7,422.4c0,0.1-4,0.1-8.8,0.1s-8.9,0-8.9-0.1c0-0.1,4-0.1,8.9-0.1S131.7,422.4,131.7,422.4z"/>
	<path class="st1" d="M131.7,424.8c0,0-4,0.1-8.8,0.1s-8.9,0-8.9-0.1c0-0.1,4-0.1,8.9-0.1S131.7,424.8,131.7,424.8z"/>
	<path class="st1" d="M131.7,427.3c0,0.1-4,0.1-8.8,0.1s-8.9,0-8.9-0.1s4-0.1,8.9-0.1S131.7,427.2,131.7,427.3z"/>
	<path class="st1" d="M131.7,429.7c0,0.1-4,0.1-8.8,0.1s-8.9,0-8.9-0.1c0-0.1,4-0.1,8.9-0.1S131.7,429.7,131.7,429.7z"/>
	<rect x="116.2" y="434.5" class="st3" width="18.3" height="34.6"/>
	<rect x="30.4" y="433.2" class="st4" width="85.8" height="37.5"/>
	<path class="st4" d="M135.9,470.8h-22v-2.4h22c0.7,0,1.2,0.5,1.2,1.2l0,0C137.1,470.2,136.6,470.8,135.9,470.8z"/>
	<path class="st4" d="M113.8,433.2H136c0.6,0,1.1,0.5,1.1,1.1l0,0v0.2c0,0.6-0.5,1.1-1.1,1.1h0h-22.2l0,0V433.2L113.8,433.2z"/>
	<path class="st1" d="M134.5,439.1c0,0.1-4.1,0.1-9.1,0.1c-5.1,0-9.1,0-9.1-0.1c0-0.1,4.1-0.1,9.1-0.1
		C130.4,439,134.5,439,134.5,439.1z"/>
	<path class="st1" d="M134.5,443.5c0,0.1-4.1,0.1-9.1,0.1c-5.1,0-9.1,0-9.1-0.1c0-0.1,4.1-0.1,9.1-0.1
		C130.4,443.4,134.5,443.5,134.5,443.5z"/>
	<path class="st1" d="M134.5,448c0,0.1-4.1,0.1-9.1,0.1c-5.1,0-9.1,0-9.1-0.1c0-0.1,4.1-0.1,9.1-0.1
		C130.4,447.9,134.5,447.9,134.5,448z"/>
	<path class="st1" d="M134.5,452.4c0,0.1-4.1,0.1-9.1,0.1c-5.1,0-9.1,0-9.1-0.1c0-0.1,4.1-0.1,9.1-0.1
		C130.4,452.3,134.5,452.4,134.5,452.4z"/>
	<path class="st1" d="M134.5,456.9c0,0.1-4.1,0.1-9.1,0.1c-5.1,0-9.1,0-9.1-0.1c0-0.1,4.1-0.1,9.1-0.1
		C130.4,456.8,134.5,456.8,134.5,456.9z"/>
	<path class="st1" d="M134.5,461.3c0,0.1-4.1,0.1-9.1,0.1c-5.1,0-9.1,0-9.1-0.1s4.1-0.1,9.1-0.1
		C130.4,461.2,134.5,461.2,134.5,461.3z"/>
	<path class="st1" d="M134.5,465.7c0,0.1-4.1,0.1-9.1,0.1c-5.1,0-9.1,0-9.1-0.1s4.1-0.1,9.1-0.1
		C130.4,465.6,134.5,465.7,134.5,465.7z"/>
	<path class="st3" d="M59.8,454v2.1c0,2.5-1.3,4-3.7,4s-3.7-1.4-3.7-4V448c0-2.5,1.3-4,3.7-4c2.4,0,3.7,1.4,3.7,4v1.5h-2.3v-1.7
		c0-1.1-0.5-1.5-1.3-1.5s-1.3,0.4-1.3,1.5v8.5c0,1.1,0.5,1.5,1.3,1.5s1.3-0.4,1.3-1.5V454H59.8z"/>
	<path class="st3" d="M61.1,448c0-2.5,1.3-4,3.8-4s3.8,1.4,3.8,4v8.2c0,2.5-1.3,4-3.8,4s-3.8-1.4-3.8-4V448z M63.5,456.3
		c0,1.1,0.5,1.5,1.3,1.5s1.3-0.4,1.3-1.5v-8.5c0-1.1-0.5-1.5-1.3-1.5s-1.3,0.4-1.3,1.5V456.3z"/>
	<path class="st3" d="M70.2,444.2h2.5v13.5h4v2.3h-6.5L70.2,444.2z"/>
	<path class="st3" d="M77.6,448c0-2.5,1.3-4,3.8-4s3.8,1.4,3.8,4v8.2c0,2.5-1.3,4-3.8,4s-3.8-1.4-3.8-4V448z M80,456.3
		c0,1.1,0.5,1.5,1.3,1.5s1.3-0.4,1.3-1.5v-8.5c0-1.1-0.5-1.5-1.3-1.5s-1.3,0.4-1.3,1.5V456.3z"/>
	<path class="st3" d="M89,444.2v12.1c0,1.1,0.5,1.5,1.3,1.5s1.3-0.4,1.3-1.5v-12.1h2.3v12c0,2.5-1.3,4-3.7,4s-3.7-1.4-3.7-4v-12H89z
		"/>
	<path class="st3" d="M100.8,459.9c-0.2-0.6-0.3-1.3-0.2-1.9v-2.5c0-1.5-0.5-2-1.6-2h-0.9v6.4h-2.5v-15.7h3.7c2.6,0,3.7,1.2,3.7,3.6
		v1.2c0,1.6-0.5,2.7-1.6,3.2c1.2,0.5,1.6,1.7,1.6,3.3v2.4c0,0.6,0,1.3,0.3,1.9L100.8,459.9z M98.1,446.4v4.8h1
		c0.9,0,1.5-0.4,1.5-1.7v-1.5c0-1.1-0.4-1.6-1.3-1.6H98.1z"/>
	<g class="st11">
		<polygon points="51.7,433.2 39.9,470.8 30.4,470.8 30.4,433.2 		"/>
	</g>
	<text transform="matrix(1 0 0 1 53.0002 428.999)" class="st16 st17">Ergotherapy</text>
	<path class="st6" d="M142.8,383.4c0,0-18.2,3.5-32.6,4.4l-4.1-10.3l29.5-10.2l3.8,7.3L142.8,383.4z"/>
	<path class="st4" d="M116.4,392.2l-10.9-17.3c0,0-14.6,0.2-19.3,1.6c-4.8,1.4-24.2,8.4-24.2,8.4l0.8,9.9c0,0,25.5,1.6,35.4,0.6
		C104.3,394.7,110.4,393.6,116.4,392.2z"/>
	<path class="st6" d="M116.6,394.4c-0.2-0.1-0.3-0.3-0.4-0.5c-0.3-0.4-0.7-0.9-1.1-1.4c-1-1.3-2.4-3.1-4.1-5.3l0.2,0.1l-11.2,1
		l-0.1,0l-0.1-0.1c-0.5-0.7-1.1-1.5-1.7-2.3l0.3,0.1l-3.2,0.5l-18.5,3l-5.6,0.8l-1.5,0.2c-0.2,0-0.4,0-0.5,0
		c0.2-0.1,0.3-0.1,0.5-0.1l1.5-0.3l5.6-1l18.5-3.1l3.2-0.5l0.2,0l0.1,0.1c0.6,0.8,1.2,1.6,1.7,2.3l-0.2-0.1l11.2-0.9l0.1,0l0.1,0.1
		c1.6,2.2,2.9,4,4,5.4c0.4,0.6,0.8,1.1,1,1.5C116.4,394,116.5,394.2,116.6,394.4z"/>
	<path class="st2" d="M106.2,377.5c-0.6,0.2-1.1,0.3-1.7,0.4l-4.7,0.8c-4,0.7-9.5,1.7-15.6,2.9s-11.6,2.4-15.5,3.3l-4.7,1.1
		c-0.6,0.2-1.2,0.3-1.7,0.3c0.5-0.2,1.1-0.4,1.7-0.5c1.1-0.3,2.7-0.7,4.7-1.2c3.9-1,9.4-2.2,15.5-3.5c6.1-1.2,11.6-2.2,15.7-2.8
		c2-0.3,3.6-0.5,4.8-0.7C105,377.6,105.6,377.5,106.2,377.5z"/>
	<path class="st6" d="M39.1,381.9c-0.6,0-14-3.2-14-3.2c-0.1,1.4,0.5,2.7,1.5,3.5c1.9,1.6,11.5,3.5,11.5,3.5L39.1,381.9z"/>
	<path class="st6" d="M28,383.3c0,0-0.8,1.2,1.2,3c1.9,1.8,9.7,2.9,9.6,2.7c0-0.1-0.5-3.4-0.5-3.4L28,383.3z"/>
	<path class="st6" d="M36.7,387.5c0,0-0.8,1.2,1.2,3c1.9,1.8,9.6,2.9,9.6,2.7s-0.5-3.4-0.5-3.4L36.7,387.5z"/>
	<path class="st6" d="M61.6,383.7c-3-1.2-6.4,0.3-7.6,3.3c-1.2,3,0.3,6.4,3.3,7.6c3,1.2,6.4-0.3,7.6-3.3c0,0,0,0,0,0
		C66,388.2,64.5,384.9,61.6,383.7z"/>
	<path class="st4" d="M56.5,386.5l-1.1-2.2l-15.8-3.6c0,0-3.2,7.4,1.1,12.3l14.2,1.1L56.5,386.5z"/>
	<path class="st6" d="M50.7,383.2c0.1-0.6,0.9-2.5-2.5-3.7c-3.4-1.2-13.6-2.6-13.6-2.6s-1.1,2.3,2,3L50.7,383.2z"/>
</g>
<g>
	<path class="st0" d="M429.6,155.8c-9-4.1-13,4.3-13,4.3l12.9,2.4L429.6,155.8z"/>
	<path class="st0" d="M434,164.6c-2.2,9.7-11.3,7.8-11.3,7.8l5.9-11.7L434,164.6z"/>
	<path class="st18" d="M451.2,150.6c-13.5-2.3-29.1,8.1-29.1,8.1l-2.1,7.4l7.1,2.8C427.2,168.9,444.9,162.8,451.2,150.6z"/>
	<path class="st0" d="M423.6,159.8c-9.7,0.9-10.8,6.6-10.8,6.6l12.4-3.8L423.6,159.8z"/>
	<path class="st0" d="M427.2,167c-6.5,7.2-11.7,4.7-11.7,4.7l10.5-7.6L427.2,167z"/>
	<path class="st2" d="M435.7,162.7c-1.9,1-4.3,0.2-5.3-1.8c-1-1.9-0.2-4.3,1.8-5.3c1.9-1,4.3-0.2,5.3,1.8
		C438.5,159.4,437.7,161.7,435.7,162.7z"/>
	<path class="st19" d="M435.4,162.1c-1.6,0.8-3.6,0.2-4.4-1.5c-0.8-1.6-0.2-3.6,1.5-4.4c1.6-0.8,3.6-0.2,4.4,1.5c0,0,0,0,0,0
		C437.7,159.3,437.1,161.3,435.4,162.1z"/>
</g>
</svg>
