<?xml version="1.0" encoding="utf-8"?>
<!-- Generator: Adobe Illustrator 21.0.0, SVG Export Plug-In . SVG Version: 6.00 Build 0)  -->
<svg version="1.1" id="Capa_1" xmlns="http://www.w3.org/2000/svg" xmlns:xlink="http://www.w3.org/1999/xlink" x="0px" y="0px"
	 viewBox="0 0 512 512" style="enable-background:new 0 0 512 512;" xml:space="preserve">
<style type="text/css">
	.st0{fill:#2F2F2E;}
</style>
<g>
	<g>
		<path class="st0" d="M256,8.1C114.8,8.1,0,123,0,264.1c0,105.3,66,201.2,164.2,238.7c4.1,1.6,8.7,1.4,12.7-0.5c4-2,7-5.4,8.3-9.6
			l48-153.3c2.3-7.3-0.9-15.1-7.5-18.8c-20.8-11.5-33.7-33.1-33.7-56.4c0-35.3,28.7-64,64-64s64,28.7,64,64
			c0,23.3-12.9,44.9-33.7,56.4c-6.7,3.7-9.8,11.5-7.5,18.8l48,153.3c1.3,4.2,4.4,7.7,8.3,9.6c2.2,1.1,4.6,1.6,7,1.6
			c2,0,3.9-0.4,5.7-1.1C446,465.4,512,369.5,512,264.1C512,123,397.2,8.1,256,8.1z M352.1,466.2L313,341.4
			c24.4-18.1,39-46.7,39-77.2c0-52.9-43.1-96-96-96s-96,43.1-96,96c0,30.6,14.7,59.1,39,77.2l-39.1,124.8
			C82.8,429.7,32,350.5,32,264.1c0-123.5,100.5-224,224-224c123.5,0,224,100.5,224,224C480,350.5,429.2,429.7,352.1,466.2z"/>
	</g>
</g>
</svg>
